<svg xmlns="http://www.w3.org/2000/svg" width="1080" height="1080" viewBox="0 0 1080 1080" version="1.1"><path d="M 532.500 421.658 L 528.500 421.980 523 423.071 L 517.500 424.162 513 425.205 L 508.500 426.247 501.500 428.644 L 494.500 431.040 492.500 431.847 L 490.500 432.653 485.836 434.920 L 481.173 437.186 475.336 436.709 L 469.500 436.232 461.500 434.584 L 453.500 432.936 447.217 431.413 L 440.933 429.890 433.739 429.822 L 426.546 429.754 423 433.750 L 419.454 437.745 416.298 447.123 L 413.141 456.500 411.977 480 L 410.814 503.500 411.104 515.500 L 411.393 527.500 411.197 541.250 L 411 555 409.595 555 L 408.189 555 404.345 553.125 L 400.500 551.251 396 550.028 L 391.500 548.805 379.865 546.359 L 368.230 543.912 364.865 545.785 L 361.500 547.657 361.174 550.433 L 360.847 553.208 363.002 555.502 L 365.157 557.796 368.329 558.435 L 371.500 559.074 377.500 559.984 L 383.500 560.894 393.500 564.053 L 403.500 567.212 404.450 568.106 L 405.400 569 407.545 569 L 409.690 569 411.250 570.750 L 412.809 572.500 413.029 578 L 413.248 583.500 413.124 584.750 L 413 586 410.559 586 L 408.118 586 407.500 587 L 406.882 588 404.500 588 L 402.118 588 401.500 589 L 400.882 590 398.579 590 L 396.276 590 388.653 593.921 L 381.030 597.842 377.765 600.138 L 374.500 602.434 373.408 603.488 L 372.316 604.541 371.158 606.705 L 370 608.869 370 611.006 L 370 613.143 371.271 614.413 L 372.541 615.684 374.896 616.944 L 377.250 618.204 379.852 616.852 L 382.455 615.500 386.472 611.750 L 390.489 608 392.245 608 L 394 608 394 607.121 L 394 606.243 397.250 605.018 L 400.500 603.794 404.500 601.946 L 408.500 600.097 412.675 598.913 L 416.850 597.728 418.426 598.333 L 420.003 598.938 421.751 602.719 L 423.500 606.500 424.165 607.006 L 424.830 607.513 423.665 609.006 L 422.500 610.500 418.837 613.235 L 415.173 615.970 413.837 617.268 L 412.500 618.566 409 620.992 L 405.500 623.417 401.208 627.959 L 396.917 632.500 394.830 636.976 L 392.744 641.453 394.122 643.905 L 395.500 646.358 398.136 647.062 L 400.772 647.766 403.176 647.307 L 405.579 646.847 406.927 643.804 L 408.274 640.760 412.887 636.106 L 417.500 631.451 421.691 628.226 L 425.883 625 427.382 625 L 428.882 625 429.500 624 L 430.118 623 431.692 623 L 433.265 623 435.232 625.250 L 437.198 627.500 440.349 631.392 L 443.500 635.285 447.561 639.392 L 451.622 643.500 456.061 647.283 L 460.500 651.067 470 657.351 L 479.500 663.636 482.750 665.062 L 486 666.488 486 667.244 L 486 668 488 668 L 490 668 490 669 L 490 670 491.970 670 L 493.939 670 497.500 672 L 501.061 674 503.971 674 L 506.882 674 507.500 675 L 508.118 676 510.500 676 L 512.882 676 513.412 676.857 L 513.942 677.714 522.721 678.526 L 531.500 679.337 544 679.379 L 556.500 679.420 564.784 678.559 L 573.068 677.698 573.593 676.849 L 574.118 676 576.500 676 L 578.882 676 579.500 675 L 580.118 674 582.965 674 L 585.811 674 590.155 671.875 L 594.500 669.750 596.236 668.875 L 597.973 668 599.486 668 L 601 668 601.008 667.250 L 601.016 666.500 603.707 665.250 L 606.399 664 607.616 664 L 608.833 664 609.167 663.250 L 609.500 662.500 614.816 659.250 L 620.133 656 620.983 656 L 621.833 656 622.167 655.226 L 622.500 654.452 629 649.476 L 635.500 644.500 638.291 641.500 L 641.082 638.500 645.291 633.526 L 649.500 628.553 652.641 625.286 L 655.781 622.019 660.641 624.716 L 665.500 627.413 666.821 628.707 L 668.143 630 668.822 630 L 669.501 630 673.525 633.750 L 677.549 637.500 680.023 642.250 L 682.497 647 686.820 647 L 691.143 647 692.413 645.729 L 693.684 644.459 694.713 642.479 L 695.742 640.500 693.621 636.785 L 691.500 633.071 687.921 629.285 L 684.342 625.500 679.825 621.500 L 675.307 617.500 673.805 616.500 L 672.302 615.500 668.663 613 L 665.025 610.500 665.027 608.500 L 665.030 606.500 666.415 602.500 L 667.800 598.500 670.339 598.190 L 672.877 597.879 677.689 599.512 L 682.500 601.145 686 602.656 L 689.500 604.168 691.500 605.268 L 693.500 606.368 696 607.637 L 698.500 608.907 702.234 612.436 L 705.968 615.966 708.913 616.190 L 711.857 616.415 714.428 615.038 L 717 613.662 717 610.331 L 717 607 716 607 L 715 607 715 605.929 L 715 604.857 713.750 603.624 L 712.500 602.390 706.305 598.195 L 700.110 594 699.085 594 L 698.061 594 694.500 592 L 690.939 590 689.029 590 L 687.118 590 686.500 589 L 685.882 588 683.500 588 L 681.118 588 680.500 587 L 679.882 586 677.548 586 L 675.214 586 674.607 584.418 L 674 582.836 674 580.540 L 674 578.244 675.528 574.588 L 677.055 570.932 679.778 569.855 L 682.500 568.778 687 566.958 L 691.500 565.139 699.812 562.569 L 708.123 560 711.312 559.985 L 714.500 559.970 719 558.474 L 723.500 556.978 725.250 556.372 L 727 555.767 727 551.409 L 727 547.051 723.848 545.421 L 720.696 543.791 714.598 545.022 L 708.500 546.253 701 548.244 L 693.500 550.235 689.645 551.146 L 685.790 552.057 682.762 553.623 L 679.735 555.189 679.005 554.008 L 678.276 552.828 677.498 545.164 L 676.720 537.500 677.110 529 L 677.500 520.500 677.500 494 L 677.500 467.500 676.142 461 L 674.784 454.500 674.273 451.172 L 673.763 447.843 670.331 440.791 L 666.898 433.738 664.699 431.943 L 662.500 430.147 659.500 429.595 L 656.500 429.042 650.500 429.975 L 644.500 430.907 631 433.595 L 617.500 436.284 613.182 436.748 L 608.864 437.212 602.682 434.432 L 596.500 431.652 590 429.214 L 583.500 426.776 579.500 425.825 L 575.500 424.875 570.500 423.898 L 565.500 422.922 559 422.012 L 552.500 421.103 544.500 421.219 L 536.500 421.336 532.500 421.658 M 533.826 438.507 L 533.318 439.015 526.409 439.985 L 519.500 440.955 514.760 441.946 L 510.020 442.936 504.760 445.088 L 499.500 447.241 491.500 451.250 L 483.500 455.259 479 458.332 L 474.500 461.405 473.367 462.452 L 472.235 463.500 467.927 467 L 463.619 470.500 460.387 474 L 457.155 477.500 454.957 480 L 452.758 482.500 448.914 487.660 L 445.070 492.820 440.035 502.243 L 435 511.666 435 513.347 L 435 515.027 434.117 516.764 L 433.233 518.500 432.169 521 L 431.104 523.500 430.589 528 L 430.073 532.500 429.001 542.250 L 427.930 552 428.921 561.250 L 429.912 570.500 430.751 575.500 L 431.589 580.500 433.295 583.904 L 435 587.307 435 588.679 L 435 590.050 438.613 597.275 L 442.226 604.500 446.279 610.500 L 450.332 616.500 455.916 622.380 L 461.500 628.260 466 632.705 L 470.500 637.149 473.250 638.790 L 476 640.431 476 641.216 L 476 642 477.070 642 L 478.140 642 482.320 644.867 L 486.500 647.734 492.663 650.838 L 498.826 653.941 508.163 656.858 L 517.500 659.775 526.052 660.887 L 534.604 662 544.552 661.996 L 554.500 661.992 563.916 660.465 L 573.333 658.938 580.416 656.559 L 587.500 654.180 595.110 650.711 L 602.719 647.242 611.110 641.413 L 619.500 635.583 627.584 627.542 L 635.669 619.500 638.584 615.113 L 641.500 610.725 645.067 605.113 L 648.633 599.500 650.932 593.500 L 653.230 587.500 654.745 584 L 656.261 580.500 658.127 571 L 659.993 561.500 659.997 551.750 L 660 542.001 658.453 532.750 L 656.906 523.500 654.370 516 L 651.835 508.500 647.222 499.500 L 642.609 490.500 642.006 490 L 641.404 489.500 638.970 486 L 636.536 482.500 634.022 479.500 L 631.508 476.500 625.741 470.750 L 619.973 465 619.478 465 L 618.982 465 615.843 462 L 612.703 459 611.352 459 L 610 459 610 458.186 L 610 457.371 606.250 455.360 L 602.500 453.349 600.250 452.175 L 598 451 596.250 450.156 L 594.500 449.312 592.500 448.290 L 590.500 447.268 587 446.006 L 583.500 444.744 576.500 442.831 L 569.500 440.919 560 439.465 L 550.500 438.012 542.417 438.006 L 534.333 438 533.826 438.507 M 644 448.435 L 637.500 449.678 634.750 450.814 L 632 451.950 632 453.284 L 632 454.617 638.250 461.083 L 644.500 467.549 648.761 473.524 L 653.023 479.500 655.261 482.941 L 657.500 486.382 658.500 486.168 L 659.500 485.955 659.340 474.227 L 659.179 462.500 657.555 455.537 L 655.930 448.575 654.715 447.803 L 653.500 447.031 652 447.111 L 650.500 447.192 644 448.435 M 434.250 448.610 L 433 449.167 433 450.883 L 433 452.600 432.081 453.550 L 431.162 454.500 430.620 461 L 430.077 467.500 429.433 475.753 L 428.788 484.005 429.423 485.660 L 430.058 487.315 432.029 485.199 L 434 483.084 434 482.472 L 434 481.860 437.205 477.202 L 440.410 472.543 442.455 470.060 L 444.500 467.577 450.796 461.607 L 457.092 455.637 456.796 453.674 L 456.500 451.711 451.500 450.411 L 446.500 449.111 441 448.582 L 435.500 448.053 434.250 448.610 M 580.913 523.320 L 579.327 524.500 578.184 526.645 L 577.042 528.790 576.399 534.263 L 575.756 539.736 580.308 542.868 L 584.860 546 590.756 546 L 596.651 546 598.826 543.686 L 601 541.371 601 535.245 L 601 529.118 599.867 528.418 L 598.733 527.717 594.917 527.609 L 591.101 527.500 590.647 529.238 L 590.194 530.976 587.527 531.990 L 584.861 533.003 582.431 532.393 L 580 531.783 580 529.463 L 580 527.143 581.580 525.563 L 583.161 523.982 582.830 523.061 L 582.500 522.140 580.913 523.320 M 506.005 524.781 L 506 527.063 504.298 527.716 L 502.595 528.369 499.649 531.185 L 496.703 534 495.052 534 L 493.400 534 492.200 532.800 L 491 531.600 491 528.383 L 491 525.167 492.250 524.662 L 493.500 524.158 492.365 524.079 L 491.230 524 489.766 526.250 L 488.302 528.500 487.583 532.369 L 486.865 536.239 487.480 539.869 L 488.095 543.500 491.798 545.998 L 495.500 548.496 501.169 548.498 L 506.839 548.500 509.390 546.103 L 511.942 543.706 513.090 540.228 L 514.238 536.750 512.898 532.625 L 511.559 528.500 508.784 525.500 L 506.009 522.500 506.005 524.781 M 541.063 560.140 L 539.961 565.280 533.730 571.633 L 527.500 577.986 526.250 577.993 L 525 578 525 580.383 L 525 582.767 527.250 583.152 L 529.500 583.538 531.692 583.207 L 533.884 582.876 537.628 579.446 L 541.373 576.016 543.025 575.492 L 544.678 574.967 548.239 576.456 L 551.801 577.944 553.189 579.222 L 554.577 580.500 556.775 581.750 L 558.973 583 561.486 583 L 564 583 563.968 580.750 L 563.936 578.500 562.608 576.750 L 561.280 575 560.498 575 L 559.716 575 554.358 570.423 L 549 565.845 549 562.970 L 549 560.094 547.839 557.547 L 546.679 555 544.422 555 L 542.166 555 541.063 560.140" stroke="none" fill="#01173c" fill-rule="evenodd"/><path d="M 540.784 419.738 L 546.067 420.107 550.784 419.734 L 555.500 419.360 545.500 419.365 L 535.500 419.370 540.784 419.738 M 526.191 440.850 L 523.882 441.500 544.404 441.500 L 564.925 441.500 563.213 440.820 L 561.500 440.141 545 440.170 L 528.500 440.199 526.191 440.850 M 516 442.991 L 513.500 443.825 510.632 444.461 L 507.764 445.097 508.256 445.590 L 508.749 446.082 516.124 444.102 L 523.500 442.121 521 442.140 L 518.500 442.158 516 442.991 M 573 444.063 L 580.500 445.965 581.500 445.606 L 582.500 445.247 579.500 444.578 L 576.500 443.909 572.884 442.955 L 569.268 442 567.384 442.080 L 565.500 442.160 573 444.063 M 489 453.682 L 482.500 457.232 475.500 462.475 L 468.500 467.717 463.242 472.922 L 457.984 478.126 452.661 484.813 L 447.339 491.500 444.996 495.500 L 442.653 499.500 443.202 499 L 443.752 498.500 451.358 488.360 L 458.964 478.220 465.950 471.753 L 472.936 465.285 481.415 459.642 L 489.895 454 490.697 453.993 L 491.500 453.987 494.500 452 L 497.500 450.013 496.500 450.073 L 495.500 450.132 489 453.682 M 601 454.317 L 601 454.837 604.750 457.100 L 608.500 459.362 614.349 463.748 L 620.199 468.134 620.613 467.720 L 621.027 467.307 614.987 462.903 L 608.946 458.500 604.973 456.148 L 601 453.797 601 454.317 M 410.458 510 L 410.458 552.500 410.749 531.250 L 411.040 510 410.749 488.750 L 410.458 467.500 410.458 510 M 623.417 471.113 L 626.103 473.226 632.558 481.221 L 639.013 489.216 643.610 497.649 L 648.206 506.081 651.070 513.518 L 653.934 520.955 655.107 527.694 L 656.281 534.433 655.046 540.967 L 653.811 547.500 650.866 556.348 L 647.921 565.196 643.564 573.872 L 639.207 582.547 633.293 590.524 L 627.378 598.500 620.439 604.813 L 613.500 611.126 605.500 616.454 L 597.500 621.781 592.500 624.307 L 587.500 626.832 583 628.787 L 578.500 630.743 570.500 633.309 L 562.500 635.875 553 637.469 L 543.500 639.064 535.779 639.678 L 528.058 640.292 518.779 639.064 L 509.500 637.837 502 636.504 L 494.500 635.171 489 633.658 L 483.500 632.145 475.500 629.159 L 467.500 626.172 464 624.640 L 460.500 623.108 456.956 619.804 L 453.411 616.500 450.364 612.500 L 447.316 608.500 443.851 602.500 L 440.386 596.500 437.585 589.500 L 434.783 582.500 433.496 577.500 L 432.209 572.500 431.505 568.183 L 430.801 563.865 430.297 564.369 L 429.793 564.873 431.444 573.187 L 433.094 581.500 435.047 585.739 L 437 589.978 437 590.888 L 437 591.797 439.850 597.148 L 442.699 602.500 445.055 606.500 L 447.411 610.500 448.041 611 L 448.671 611.500 449.623 613.246 L 450.575 614.991 459.537 624.125 L 468.500 633.260 476.402 639.155 L 484.305 645.050 492.541 648.963 L 500.777 652.876 508.148 655.350 L 515.519 657.824 530.441 659.578 L 545.363 661.331 554.432 660.115 L 563.500 658.900 569 657.875 L 574.500 656.851 580 654.882 L 585.500 652.913 589 651.331 L 592.500 649.749 599.365 646.344 L 606.230 642.940 612.350 638.231 L 618.469 633.522 625.131 627.238 L 631.793 620.953 635.822 615.726 L 639.851 610.500 643.381 604.633 L 646.911 598.765 650.099 591.133 L 653.287 583.500 655.625 573.500 L 657.964 563.500 657.963 552 L 657.961 540.500 656.557 531 L 655.152 521.500 653.006 515.500 L 650.861 509.500 646.784 501.500 L 642.708 493.500 638.978 488 L 635.249 482.500 629.019 475.750 L 622.789 469 621.760 469 L 620.730 469 623.417 471.113 M 439.688 505.250 L 437.229 510.500 435.157 516 L 433.084 521.500 432.575 525.500 L 432.066 529.500 433.395 524.500 L 434.724 519.500 437.249 513.500 L 439.774 507.500 441.401 503.750 L 443.027 500 442.587 500 L 442.147 500 439.688 505.250 M 678.385 530 L 678.385 542.500 678.740 536.250 L 679.095 530 678.740 523.750 L 678.385 517.500 678.385 530 M 494.500 519.964 L 492.500 520.802 490.140 523.042 L 487.780 525.283 486.390 528.610 L 485 531.936 485 536.018 L 485 540.099 486.506 543.011 L 488.011 545.922 492.343 548.461 L 496.676 551 500.888 551 L 505.099 551 507.971 549.515 L 510.842 548.030 512.921 545.111 L 515 542.191 515 536.749 L 515 531.307 513.450 528.201 L 511.900 525.094 508.873 522.547 L 505.847 520 504.364 520 L 502.882 520 503.500 521 L 504.118 522 505.904 522 L 507.690 522 509.224 523.750 L 510.759 525.500 512.379 528.700 L 514 531.901 513.968 537.200 L 513.936 542.500 512.484 544.420 L 511.031 546.340 508.266 548.163 L 505.500 549.987 500.950 549.993 L 496.400 550 492.283 547.331 L 488.167 544.661 487.083 542.284 L 486 539.906 486.002 535.703 L 486.003 531.500 487.752 528.020 L 489.500 524.540 492.981 522.214 L 496.462 519.888 498.233 520.351 L 500.003 520.813 499.442 519.907 L 498.882 519 497.691 519.063 L 496.500 519.127 494.500 519.964 M 580.225 521.603 L 576.950 524.184 575.475 527.714 L 574 531.244 574 535.694 L 574 540.143 575.271 541.413 L 576.541 542.684 579.021 543.923 L 581.500 545.162 578.250 542.509 L 575 539.855 575 535.314 L 575 530.772 577.239 526.788 L 579.478 522.804 582.330 521.330 L 585.181 519.855 584.525 522.178 L 583.869 524.500 584.919 523 L 585.969 521.500 585.985 520.250 L 586 519 584.750 519.011 L 583.500 519.022 580.225 521.603 M 596.906 525.185 L 595.673 527.500 597.204 526.238 L 598.735 524.975 599.737 526.238 L 600.739 527.500 601.926 531.185 L 603.112 534.870 602.032 538.881 L 600.952 542.893 598.341 544.946 L 595.730 547 596.400 547 L 597.070 547 599.450 545.441 L 601.829 543.882 603.008 538.968 L 604.186 534.055 602.463 529.542 L 600.739 525.028 599.439 523.950 L 598.139 522.871 596.906 525.185 M 429.382 551.500 L 429.385 563.500 429.741 557.211 L 430.097 550.922 429.738 545.211 L 429.378 539.500 429.382 551.500 M 727.819 549.577 L 728.221 553.015 726.551 555.757 L 724.881 558.500 726.941 556.139 L 729 553.778 729 550.448 L 729 547.118 728.209 546.629 L 727.418 546.140 727.819 549.577 M 541.200 554.200 L 540 555.400 540.030 556.450 L 540.061 557.500 541.080 555.750 L 542.099 554 544.350 554 L 546.600 554 547.800 555.200 L 549 556.400 549 559.266 L 549 562.131 550.147 564.316 L 551.295 566.500 553.241 568 L 555.187 569.500 557.402 571.500 L 559.618 573.500 561.559 574.604 L 563.500 575.707 564.402 578.237 L 565.304 580.766 564.683 582.383 L 564.063 584 561.281 583.927 L 558.500 583.854 555.500 581.955 L 552.500 580.056 548.810 578.038 L 545.119 576.020 542.810 576.952 L 540.500 577.883 543.170 577.730 L 545.841 577.577 548.670 579.038 L 551.500 580.500 554.890 582.750 L 558.279 585 560.940 585 L 563.600 585 564.800 583.800 L 566 582.600 566 580.750 L 566 578.901 564.474 575.950 L 562.949 573 561.679 573 L 560.410 573 555.205 568.190 L 550 563.379 550 559.845 L 550 556.310 548.171 554.655 L 546.343 553 544.371 553 L 542.400 553 541.200 554.200 M 539.144 560 L 538.988 562.500 532.707 569.250 L 526.427 576 525.642 576 L 524.857 576 523.429 577.429 L 522 578.857 522 580.774 L 522 582.690 523.829 584.345 L 525.657 586 528.842 586 L 532.027 586 534.264 584.750 L 536.500 583.500 538.250 582.095 L 540 580.690 540 579.772 L 540 578.854 536.272 581.927 L 532.544 585 529.201 585 L 525.857 585 524.429 583.571 L 523 582.143 523 580.525 L 523 578.907 525.750 577.237 L 528.500 575.566 534.325 569.377 L 540.151 563.187 539.725 560.343 L 539.300 557.500 539.144 560 M 540.728 681.722 L 543.955 682.123 547.728 681.730 L 551.500 681.336 544.500 681.328 L 537.500 681.320 540.728 681.722" stroke="none" fill="#0d65b8" fill-rule="evenodd"/><path d="M 525 420.039 L 522.500 420.879 529 420.307 L 535.500 419.735 535.917 419.367 L 536.333 419 531.917 419.100 L 527.500 419.199 525 420.039 M 558.500 420.057 L 562.500 420.885 565 420.843 L 567.500 420.801 565 420 L 562.500 419.199 558.500 419.215 L 554.500 419.230 558.500 420.057 M 514.500 421.696 L 512.500 422.159 505 424.504 L 497.500 426.849 492.500 429.048 L 487.500 431.247 483.484 433.042 L 479.467 434.837 473.484 433.982 L 467.500 433.127 463 432.058 L 458.500 430.988 454 430.085 L 449.500 429.183 440.500 427.511 L 431.500 425.839 427.958 426.897 L 424.417 427.955 421.780 430.728 L 419.143 433.500 416.572 438.645 L 414 443.790 414.047 445.645 L 414.094 447.500 415.990 442.644 L 417.887 437.789 420.193 434.380 L 422.500 430.970 426.537 428.999 L 430.575 427.028 439.537 428.591 L 448.500 430.154 453.225 431.013 L 457.950 431.872 463.725 433.329 L 469.500 434.786 474.500 435.452 L 479.500 436.119 485.500 433.462 L 491.500 430.806 494.732 429.365 L 497.965 427.923 505.720 425.461 L 513.476 423 515.488 422.930 L 517.500 422.859 519.500 422 L 521.500 421.141 519 421.186 L 516.500 421.232 514.500 421.696 M 572 422.144 L 576.500 423.209 584.067 425.496 L 591.634 427.783 596.567 430.006 L 601.500 432.228 605.729 434.129 L 609.957 436.030 614.229 435.426 L 618.500 434.821 621.500 433.937 L 624.500 433.053 632.500 431.602 L 640.500 430.151 649.500 428.481 L 658.500 426.811 662.563 428.945 L 666.625 431.079 669.748 436.290 L 672.870 441.500 674.808 448 L 676.747 454.500 677.873 460.560 L 679 466.620 679 509.251 L 679 551.882 679.894 552.434 L 680.788 552.987 684.644 551.352 L 688.500 549.718 691.500 548.939 L 694.500 548.159 701 546.543 L 707.500 544.927 711.116 543.964 L 714.732 543 719.231 543 L 723.730 543 726.365 545.073 L 729 547.145 729 550.350 L 729 553.555 727.540 555.640 L 726.080 557.724 723.290 558.770 L 720.500 559.816 714 561.012 L 707.500 562.209 697.500 565.224 L 687.500 568.239 686.500 568.989 L 685.500 569.739 681.769 570.941 L 678.039 572.142 676.960 576.149 L 675.881 580.155 676.191 582.249 L 676.500 584.343 677.826 584.780 L 679.153 585.218 677.977 583.335 L 676.801 581.452 677.912 577.328 L 679.022 573.204 685.761 570.506 L 692.500 567.807 696.500 566.506 L 700.500 565.204 706 563.978 L 711.500 562.751 714.399 561.875 L 717.298 561 720.078 561 L 722.858 561 726.429 557.632 L 730 554.264 730 550.584 L 730 546.905 727.354 544.452 L 724.708 542 720.104 542.001 L 715.500 542.002 708.239 543.517 L 700.977 545.031 696.739 546.372 L 692.500 547.712 688 549.036 L 683.500 550.360 682.367 551.206 L 681.234 552.051 680.617 550.444 L 680 548.836 679.982 507.668 L 679.963 466.500 678.547 458.500 L 677.131 450.500 676.475 448.500 L 675.819 446.500 675.010 444.500 L 674.202 442.500 672.876 439 L 671.551 435.500 667.336 431.284 L 663.121 427.069 660.413 426.389 L 657.704 425.709 651.102 426.876 L 644.500 428.044 640 428.974 L 635.500 429.904 629.500 431.059 L 623.500 432.214 621 433.101 L 618.500 433.987 613.354 434.148 L 608.209 434.310 601.376 431.014 L 594.542 427.718 586.130 424.875 L 577.718 422.031 572.609 421.555 L 567.500 421.078 572 422.144 M 527 441.634 L 524.500 442.103 516.500 444.104 L 508.500 446.105 502.500 448.491 L 496.500 450.877 491.500 453.543 L 486.500 456.209 479.500 460.846 L 472.500 465.483 463.500 474.492 L 454.500 483.500 448.848 491.500 L 443.195 499.500 438.741 510 L 434.286 520.500 433.027 527.500 L 431.768 534.500 430.884 537.399 L 430 540.298 430 551.206 L 430 562.114 431.062 566.807 L 432.123 571.500 433.160 576 L 434.196 580.500 437.295 588.500 L 440.394 596.500 443.855 602.500 L 447.316 608.500 450.364 612.500 L 453.411 616.500 456.956 619.804 L 460.500 623.108 464 624.640 L 467.500 626.172 475.500 629.159 L 483.500 632.145 489 633.658 L 494.500 635.171 502 636.504 L 509.500 637.837 518.779 639.064 L 528.058 640.292 535.779 639.678 L 543.500 639.064 553 637.469 L 562.500 635.875 570.500 633.309 L 578.500 630.743 583 628.787 L 587.500 626.832 592.500 624.307 L 597.500 621.781 605.500 616.454 L 613.500 611.126 620.439 604.813 L 627.378 598.500 633.293 590.524 L 639.207 582.547 643.564 573.872 L 647.921 565.196 650.866 556.348 L 653.811 547.500 655.046 540.967 L 656.281 534.433 655.107 527.694 L 653.934 520.955 651.070 513.518 L 648.206 506.081 643.610 497.649 L 639.013 489.216 632.664 481.358 L 626.314 473.500 621.038 469 L 615.762 464.500 608.798 459.827 L 601.835 455.154 596.667 452.661 L 591.500 450.168 587.500 448.467 L 583.500 446.765 574 444.272 L 564.500 441.779 547 441.472 L 529.500 441.165 527 441.634 M 410.706 456.875 L 410 460.250 410.122 464.375 L 410.244 468.500 411.132 462.500 L 412.020 456.500 411.716 455 L 411.411 453.500 410.706 456.875 M 494.500 519.964 L 492.500 520.802 490.140 523.042 L 487.780 525.283 486.390 528.610 L 485 531.936 485 536.018 L 485 540.099 486.506 543.011 L 488.011 545.922 492.343 548.461 L 496.676 551 500.888 551 L 505.099 551 507.971 549.515 L 510.842 548.030 512.921 545.111 L 515 542.191 515 536.749 L 515 531.307 513.450 528.201 L 511.900 525.094 508.873 522.547 L 505.847 520 504.223 520 L 502.600 520 503.800 521.200 L 505 522.400 505 523.950 L 505 525.500 501.500 528.293 L 498 531.085 497.991 530.293 L 497.982 529.500 501.144 526.901 L 504.305 524.303 503.593 523.151 L 502.882 522 501.441 522 L 500 522 500 523 L 500 524 498.345 524 L 496.690 524 498.347 522.169 L 500.004 520.338 499.336 519.669 L 498.667 519 497.583 519.063 L 496.500 519.127 494.500 519.964 M 580.225 521.603 L 576.950 524.184 575.475 527.714 L 574 531.244 574 535.755 L 574 540.265 576.153 542.133 L 578.306 544 579.082 544 L 579.857 544 581.408 545.551 L 582.959 547.101 589.745 547.227 L 596.531 547.353 599.180 545.618 L 601.829 543.882 603.017 538.927 L 604.206 533.972 602.514 529.736 L 600.822 525.500 599.724 524.172 L 598.626 522.844 596.890 525.146 L 595.153 527.449 593.248 525.724 L 591.343 524 590.671 524 L 590 524 590 526.378 L 590 528.755 588.336 530.128 L 586.673 531.500 587.836 529.316 L 589 527.131 589 524.566 L 589 522 588.365 522 L 587.729 522 585.438 524.473 L 583.146 526.945 582.814 529.223 L 582.482 531.500 581.811 529.850 L 581.139 528.200 583.570 524.906 L 586 521.611 586 520.306 L 586 519 584.750 519.011 L 583.500 519.022 580.225 521.603 M 409.214 540.857 L 409 552.214 407.250 551.504 L 405.500 550.795 401 549.250 L 396.500 547.706 394.500 546.967 L 392.500 546.228 388.500 545.147 L 384.500 544.065 379.201 543.033 L 373.902 542 369.528 542 L 365.153 542 362.077 544.589 L 359 547.178 359 550.655 L 359 554.131 360.030 556.055 L 361.059 557.979 363.980 559.490 L 366.901 561 369.129 561 L 371.358 561 374.429 561.923 L 377.500 562.847 383 564.036 L 388.500 565.226 395 567.277 L 401.500 569.329 405.488 571.111 L 409.476 572.893 410.619 577.696 L 411.762 582.500 411.868 579.500 L 411.973 576.500 411.389 574.323 L 410.805 572.146 403.152 569.187 L 395.500 566.227 390 564.560 L 384.500 562.892 374.676 560.946 L 364.853 559 364.465 559 L 364.078 559 362.039 556.811 L 360 554.623 360 550.880 L 360 547.136 363.066 544.953 L 366.133 542.769 371.816 543.336 L 377.500 543.902 382.500 544.860 L 387.500 545.817 398.393 549.432 L 409.286 553.048 409.677 552.657 L 410.068 552.265 409.748 540.883 L 409.428 529.500 409.214 540.857 M 541.074 554.411 L 539.903 555.822 539.346 559.257 L 538.788 562.692 532.607 569.346 L 526.427 576 525.642 576 L 524.857 576 523.429 577.429 L 522 578.857 522 580.774 L 522 582.690 523.829 584.345 L 525.657 586 529.079 585.927 L 532.500 585.854 535.500 584.117 L 538.500 582.379 539.454 580.267 L 540.407 578.155 542.624 577.732 L 544.841 577.308 548.170 578.927 L 551.500 580.546 555 582.769 L 558.500 584.993 561.050 584.996 L 563.600 585 564.800 583.800 L 566 582.600 566 580.750 L 566 578.901 564.474 575.950 L 562.949 573 561.679 573 L 560.410 573 555.205 568.190 L 550 563.379 550 559.845 L 550 556.310 548.171 554.655 L 546.343 553 544.294 553 L 542.245 553 541.074 554.411 M 401.500 586.245 L 398.500 587.277 395 588.532 L 391.500 589.787 387.250 591.629 L 383 593.472 383 594.256 L 383 595.041 387.250 592.852 L 391.500 590.663 400 587.925 L 408.500 585.187 406.500 585.200 L 404.500 585.213 401.500 586.245 M 689.500 588.400 L 693.500 589.667 699.801 592.808 L 706.101 595.948 710.592 599.174 L 715.083 602.399 717.042 605.568 L 719 608.736 719 610.779 L 719 612.822 715.923 615.411 L 712.847 618 709.666 618 L 706.486 618 700.996 613.497 L 695.507 608.994 692.503 607.602 L 689.500 606.211 684.931 604.163 L 680.362 602.115 675.931 600.572 L 671.500 599.029 670.451 599.015 L 669.402 599 668.060 602.750 L 666.717 606.500 666.339 607.523 L 665.960 608.545 676.410 616.835 L 686.860 625.124 690.275 629.312 L 693.689 633.500 694.845 635.684 L 696 637.869 695.968 640.684 L 695.936 643.500 694.718 645.087 L 693.500 646.673 691.316 647.837 L 689.131 649 686.240 649 L 683.349 649 681.291 646.750 L 679.234 644.500 677.651 641.365 L 676.067 638.229 671.650 634.365 L 667.232 630.500 661.591 627.287 L 655.949 624.074 653.225 627.236 L 650.500 630.397 642.630 638.669 L 634.760 646.942 629.130 651.221 L 623.500 655.500 622.179 656.750 L 620.857 658 620 658 L 619.143 658 617.596 659.546 L 616.050 661.093 606.275 665.869 L 596.500 670.645 594 671.755 L 591.500 672.865 592.772 672.932 L 594.043 673 602.612 669.004 L 611.180 665.009 619.840 659.377 L 628.500 653.744 629 653.108 L 629.500 652.471 636.308 646.562 L 643.116 640.654 649.566 632.921 L 656.016 625.187 661.874 628.664 L 667.732 632.141 671.427 635.925 L 675.122 639.709 678.318 644.605 L 681.514 649.500 685.833 649.811 L 690.151 650.122 693.575 647.510 L 697 644.898 697 640.879 L 697 636.860 694.111 632.661 L 691.221 628.461 685.248 622.981 L 679.274 617.500 677.387 615.986 L 675.500 614.472 672 612.034 L 668.500 609.596 667.819 608.601 L 667.138 607.605 668.601 604.104 L 670.064 600.603 670.306 600.361 L 670.547 600.119 676.024 601.927 L 681.500 603.734 689 607.311 L 696.500 610.888 701 614.915 L 705.500 618.943 709.644 618.972 L 713.788 619 716.894 616.099 L 720 613.198 720 610.012 L 720 606.827 714.626 601.580 L 709.252 596.333 699.786 591.667 L 690.320 587 687.910 587.067 L 685.500 587.134 689.500 588.400 M 375.254 599.059 L 370.007 603.086 368.504 605.993 L 367 608.901 367 611.146 L 367 613.391 369.687 616.195 L 372.374 619 373.937 618.996 L 375.500 618.993 372.277 617.027 L 369.054 615.062 368.437 612.603 L 367.819 610.144 368.399 608.322 L 368.978 606.500 371.560 603.717 L 374.141 600.935 378.071 598.335 L 382 595.734 382 595.367 L 382 595 381.250 595.016 L 380.500 595.033 375.254 599.059 M 411 601.123 L 405.500 603.006 399 606.088 L 392.500 609.170 387.203 613.153 L 381.905 617.136 378.703 618.618 L 375.500 620.099 378.500 619.472 L 381.500 618.845 386.500 615.009 L 391.500 611.172 398.786 607.528 L 406.071 603.883 410.786 602.452 L 415.500 601.022 416.737 601.011 L 417.973 601 419.543 604.750 L 421.114 608.500 418.823 610 L 416.533 611.500 407.829 618.777 L 399.125 626.055 396.048 629.939 L 392.972 633.824 391.442 637.485 L 389.912 641.147 390.491 642.972 L 391.071 644.798 393.672 647.399 L 396.273 650 401.014 650 L 405.755 650 407.089 648.393 L 408.422 646.787 409.671 644.643 L 410.921 642.500 412.030 640.500 L 413.138 638.500 419.319 633.615 L 425.500 628.730 428.802 627.155 L 432.104 625.580 436.205 630.540 L 440.306 635.500 448.970 644 L 457.634 652.500 466.067 658.200 L 474.500 663.901 483.346 668.450 L 492.192 673 493.846 672.982 L 495.500 672.963 488.500 669.715 L 481.500 666.467 475 662.641 L 468.500 658.814 461.500 653.500 L 454.500 648.187 449.490 643.343 L 444.480 638.500 438.343 631.501 L 432.206 624.501 427.853 626.633 L 423.500 628.765 418.364 632.877 L 413.227 636.989 409.364 642.986 L 405.500 648.983 401.151 648.991 L 396.802 649 393.901 645.894 L 391 642.788 391 642.016 L 391 641.244 392.588 637.444 L 394.176 633.644 400.338 627.207 L 406.500 620.771 414.250 614.760 L 422 608.750 422 607.835 L 422 606.920 419.980 602.960 L 417.959 599 417.230 599.120 L 416.500 599.240 411 601.123 M 496 673.618 L 496 673.973 499.720 675.527 L 503.439 677.082 505.275 676.791 L 507.111 676.500 501.555 674.881 L 496 673.262 496 673.618 M 508.500 677.692 L 509.500 678.678 515 679.803 L 520.500 680.927 526.500 681.697 L 532.500 682.467 544 682.424 L 555.500 682.382 561.500 681.628 L 567.500 680.875 569.868 680.389 L 572.236 679.903 571.795 679.462 L 571.354 679.020 558.427 680.619 L 545.500 682.218 533.500 681.050 L 521.500 679.883 516.026 678.824 L 510.551 677.765 509.026 677.235 L 507.500 676.706 508.500 677.692" stroke="none" fill="#8ac2fd" fill-rule="evenodd"/><path d="M 643.500 450.026 L 639.500 450.834 636.750 451.892 L 634 452.950 634 453.586 L 634 454.221 641.319 462.001 L 648.638 469.782 652.569 475.882 L 656.500 481.983 657.389 481.991 L 658.279 482 657.724 470.750 L 657.168 459.500 655.545 454.250 L 653.923 449 650.711 449.110 L 647.500 449.219 643.500 450.026 M 434.080 453.256 L 433.006 456.512 431.473 468.893 L 429.940 481.274 430.404 481.737 L 430.867 482.200 431.938 481.538 L 433.010 480.876 437.207 474.696 L 441.404 468.515 448.179 461.535 L 454.955 454.555 454.126 453.726 L 453.297 452.897 447.899 451.461 L 442.500 450.024 438.828 450.012 L 435.155 450 434.080 453.256" stroke="none" fill="#e4b623" fill-rule="evenodd"/><path d="M 519.500 422.603 L 507.500 425.076 502 427.072 L 496.500 429.069 495.107 429.558 L 493.714 430.047 494.219 430.552 L 494.723 431.057 501.612 428.630 L 508.500 426.203 514 425.015 L 519.500 423.827 523 422.952 L 526.500 422.077 538.500 421.460 L 550.500 420.843 558 421.886 L 565.500 422.929 570.500 423.902 L 575.500 424.875 579.500 425.838 L 583.500 426.801 589.434 428.974 L 595.368 431.147 601.822 434.073 L 608.277 437 609.388 436.940 L 610.500 436.881 605 434.334 L 599.500 431.786 596.500 430.507 L 593.500 429.228 588 427.211 L 582.500 425.194 578 424.092 L 573.500 422.991 564.619 421.496 L 555.738 420 543.619 420.065 L 531.500 420.131 519.500 422.603 M 425.226 430.095 L 421.951 432.227 419.513 436.388 L 417.074 440.549 414.967 447.371 L 412.860 454.193 413.300 454.633 L 413.740 455.073 416.536 446.478 L 419.332 437.883 422.918 433.842 L 426.505 429.800 432.681 429.800 L 438.857 429.800 443.178 430.404 L 447.500 431.008 445.500 430.137 L 443.500 429.267 436 428.614 L 428.500 427.962 425.226 430.095 M 649.500 429.023 L 644.500 429.764 638.614 430.852 L 632.727 431.940 632.197 432.470 L 631.667 433 633.583 432.985 L 635.500 432.970 642 431.418 L 648.500 429.866 655 429.683 L 661.500 429.500 664.171 431.500 L 666.842 433.500 670.328 441 L 673.813 448.500 674.494 452.500 L 675.175 456.500 676.209 461 L 677.243 465.500 677.956 491.500 L 678.669 517.500 678.476 490.500 L 678.284 463.500 676.600 456 L 674.916 448.500 672.755 443 L 670.594 437.500 669.297 436.179 L 668 434.857 668 433.965 L 668 433.072 664.268 430.536 L 660.536 428 657.518 428.141 L 654.500 428.282 649.500 429.023 M 448.154 431.487 L 448.640 431.974 456.928 433.546 L 465.215 435.118 465.726 434.608 L 466.236 434.097 463.868 433.641 L 461.500 433.185 456.174 432.093 L 450.847 431 449.257 431 L 447.667 431 448.154 431.487 M 469 436 L 470.500 436.969 474 436.866 L 477.500 436.763 474.500 436 L 471.500 435.237 469.500 435.134 L 467.500 435.031 469 436 M 613 436 L 610.500 436.801 613.500 436.830 L 616.500 436.859 618.500 436 L 620.500 435.141 618 435.170 L 615.500 435.199 613 436 M 532 439 L 529.500 439.801 545.500 439.767 L 561.500 439.733 556.500 438.954 L 551.500 438.175 543 438.187 L 534.500 438.199 532 439 M 519.500 441 L 517.500 441.859 515.171 441.930 L 512.841 442 506.171 444.589 L 499.500 447.179 491.500 451.219 L 483.500 455.259 479 458.332 L 474.500 461.405 473.367 462.452 L 472.235 463.500 467.927 467 L 463.619 470.500 460.387 474 L 457.155 477.500 454.957 480 L 452.758 482.500 448.914 487.660 L 445.070 492.820 440.035 502.243 L 435 511.666 435.068 513.583 L 435.135 515.500 436.189 513 L 437.244 510.500 439.349 506 L 441.454 501.500 444.398 496.500 L 447.343 491.500 452.663 484.813 L 457.984 478.126 463.242 472.908 L 468.500 467.689 476.030 462.094 L 483.560 456.500 492.030 452.345 L 500.500 448.190 506 446.170 L 511.500 444.149 517 442.930 L 522.500 441.711 525.500 440.945 L 528.500 440.180 525 440.160 L 521.500 440.141 519.500 441 M 562.160 440.493 L 562.653 440.986 568.076 442.094 L 573.500 443.202 577.057 443.931 L 580.614 444.661 583.960 446.330 L 587.307 448 588.288 448 L 589.268 448 597.384 452.134 L 605.500 456.268 611.500 460.322 L 617.500 464.375 626.056 472.938 L 634.611 481.500 638.660 487.500 L 642.708 493.500 646.784 501.500 L 650.861 509.500 653.006 515.500 L 655.152 521.500 656.557 531 L 657.961 540.500 657.963 552 L 657.964 563.500 655.625 573.500 L 653.287 583.500 650.099 591.133 L 646.911 598.765 643.381 604.633 L 639.851 610.500 635.822 615.726 L 631.793 620.953 625.131 627.238 L 618.469 633.522 612.350 638.231 L 606.230 642.940 599.365 646.344 L 592.500 649.749 589 651.331 L 585.500 652.913 580 654.882 L 574.500 656.851 569 657.875 L 563.500 658.900 554.432 660.115 L 545.363 661.331 530.441 659.578 L 515.519 657.824 508.148 655.350 L 500.777 652.876 492.591 648.987 L 484.406 645.098 477.684 640.135 L 470.961 635.173 467.731 632.257 L 464.500 629.342 457 621.406 L 449.500 613.470 448.248 611.485 L 446.997 609.500 444.234 605 L 441.472 600.500 439.358 596 L 437.244 591.500 436.189 589 L 435.135 586.500 435.068 588.275 L 435 590.050 438.613 597.275 L 442.226 604.500 446.279 610.500 L 450.332 616.500 455.916 622.380 L 461.500 628.260 466 632.705 L 470.500 637.149 473.250 638.790 L 476 640.431 476 641.216 L 476 642 477.070 642 L 478.140 642 482.320 644.867 L 486.500 647.734 492.663 650.838 L 498.826 653.941 508.163 656.858 L 517.500 659.775 526.052 660.887 L 534.604 662 544.552 661.996 L 554.500 661.992 563.916 660.465 L 573.333 658.938 580.416 656.559 L 587.500 654.180 595.110 650.711 L 602.719 647.242 611.110 641.413 L 619.500 635.583 627.584 627.542 L 635.669 619.500 638.584 615.113 L 641.500 610.725 645.067 605.113 L 648.633 599.500 650.932 593.500 L 653.230 587.500 654.745 584 L 656.261 580.500 658.127 571 L 659.993 561.500 659.997 551.750 L 660 542.001 658.453 532.750 L 656.906 523.500 654.370 516 L 651.835 508.500 647.222 499.500 L 642.609 490.500 642.006 490 L 641.404 489.500 638.970 486 L 636.536 482.500 634.022 479.500 L 631.508 476.500 625.741 470.750 L 619.973 465 619.478 465 L 618.982 465 615.843 462 L 612.703 459 611.352 459 L 610 459 610 458.186 L 610 457.371 606.250 455.360 L 602.500 453.349 600.250 452.175 L 598 451 595.750 449.844 L 593.500 448.688 592 447.978 L 590.500 447.268 587 445.997 L 583.500 444.727 574.500 442.378 L 565.500 440.029 563.583 440.014 L 561.667 440 562.160 440.493 M 644 448.435 L 637.500 449.678 634.750 450.814 L 632 451.950 632 453.284 L 632 454.617 638.250 461.083 L 644.500 467.549 648.761 473.524 L 653.023 479.500 655.261 482.941 L 657.500 486.382 658.500 486.168 L 659.500 485.955 659.340 474.227 L 659.179 462.500 657.555 455.537 L 655.930 448.575 654.715 447.803 L 653.500 447.031 652 447.111 L 650.500 447.192 644 448.435 M 434.250 448.610 L 433 449.167 433 450.883 L 433 452.600 432.081 453.550 L 431.162 454.500 430.620 461 L 430.077 467.500 429.433 475.753 L 428.788 484.005 429.423 485.660 L 430.058 487.315 432.029 485.199 L 434 483.084 434 482.472 L 434 481.860 437.205 477.202 L 440.410 472.543 442.455 470.060 L 444.500 467.577 450.796 461.607 L 457.092 455.637 456.796 453.674 L 456.500 451.711 451.500 450.411 L 446.500 449.111 441 448.582 L 435.500 448.053 434.250 448.610 M 648.500 449.104 L 644.500 449.913 639.500 451.086 L 634.500 452.260 633.726 452.704 L 632.951 453.148 641.230 461.942 L 649.508 470.736 653.004 476.838 L 656.500 482.941 657.655 482.970 L 658.811 483 658.344 474.750 L 657.876 466.500 656.373 458.500 L 654.869 450.500 653.684 449.397 L 652.500 448.294 648.500 449.104 M 435.129 450.390 L 434.245 451.500 433.657 453.500 L 433.070 455.500 431.468 468.783 L 429.866 482.065 430.183 483.658 L 430.500 485.252 435.471 477.376 L 440.442 469.500 447.721 462.202 L 455 454.903 455 454.019 L 455 453.135 453.250 452.655 L 451.500 452.175 446.500 451.151 L 441.500 450.127 438.756 449.703 L 436.013 449.280 435.129 450.390 M 411.721 461.897 L 411 468.293 411.149 479.897 L 411.297 491.500 412.156 475.500 L 413.015 459.500 412.729 457.500 L 412.443 455.500 411.721 461.897 M 492.898 522.270 L 489.500 524.540 487.752 528.020 L 486.003 531.500 486.017 536 L 486.031 540.500 486.765 541.653 L 487.500 542.807 487.554 536.103 L 487.608 529.398 489.304 526.977 L 491 524.555 491 525.932 L 491 527.310 492.976 525.521 L 494.953 523.733 494.418 522.868 L 493.884 522.003 496.082 522.251 L 498.280 522.500 498.723 521.250 L 499.167 520 497.731 520 L 496.296 520 492.898 522.270 M 581.662 521.618 L 578.823 523.157 579.387 523.721 L 579.952 524.285 581.476 523.020 L 583 521.755 583 522.949 L 583 524.143 581.500 525.643 L 580 527.143 580 529.571 L 580 532 580.906 532 L 581.813 532 581.281 529.967 L 580.750 527.934 582.256 526.217 L 583.763 524.500 584.449 522.250 L 585.135 520 584.817 520.040 L 584.500 520.080 581.662 521.618 M 676.847 527.713 L 676.194 535.927 677.073 539.713 L 677.952 543.500 677.991 548 L 678.031 552.500 678.896 553.866 L 679.762 555.233 681.631 554.147 L 683.500 553.061 681.250 553.030 L 679 553 678.886 549.250 L 678.772 545.500 678.136 532.500 L 677.499 519.500 676.847 527.713 M 431.729 521.604 L 431 522.333 431.100 526.417 L 431.201 530.500 432.123 526.567 L 433.045 522.634 432.752 521.755 L 432.458 520.875 431.729 521.604 M 504.794 524.947 L 504.362 527.894 505.181 527.388 L 506 526.882 506.032 524.691 L 506.063 522.500 508.583 525.365 L 511.103 528.231 511.565 527.768 L 512.028 527.305 509.941 524.653 L 507.855 522 506.541 522 L 505.227 522 504.794 524.947 M 576.526 527.950 L 575 530.901 575 535.399 L 575 539.898 578.250 542.302 L 581.500 544.705 582.750 545.411 L 584 546.118 584 545.692 L 584 545.266 579.874 542.535 L 575.748 539.805 576.395 534.297 L 577.042 528.790 578.056 526.895 L 579.070 525 578.561 525 L 578.051 525 576.526 527.950 M 590.404 526.727 L 589.854 528.500 588.766 530.500 L 587.679 532.500 589.339 531.128 L 591 529.755 590.999 528.628 L 590.998 527.500 594.866 527.609 L 598.733 527.717 599.867 528.418 L 601 529.118 601 528.259 L 601 527.400 599.872 526.272 L 598.743 525.143 596.872 526.312 L 595 527.481 592.977 526.218 L 590.955 524.955 590.404 526.727 M 601.169 535.500 L 601.180 541.500 602.143 538.158 L 603.105 534.815 602.131 532.158 L 601.158 529.500 601.169 535.500 M 492.171 532.707 L 493.245 534 495.063 534 L 496.882 534 497.433 533.108 L 497.984 532.217 494.541 531.815 L 491.098 531.413 492.171 532.707 M 513.079 540.234 L 513 541.968 510.082 545.234 L 507.164 548.500 501.332 548.500 L 495.500 548.500 492.192 546.141 L 488.885 543.782 488.477 544.190 L 488.069 544.598 492.235 547.299 L 496.400 550 500.832 550 L 505.264 550 508.445 548.034 L 511.625 546.068 512.929 543.633 L 514.232 541.197 513.695 539.849 L 513.158 538.500 513.079 540.234 M 363.898 545.282 L 360.500 547.565 360.177 550.347 L 359.855 553.129 361.450 555.565 L 363.046 558 364.197 558 L 365.349 558 363.098 555.604 L 360.847 553.208 361.174 550.433 L 361.500 547.657 364.828 545.805 L 368.156 543.953 379.021 546.004 L 389.886 548.054 393.541 549.582 L 397.196 551.109 398.848 550.714 L 400.500 550.320 397.500 549.582 L 394.500 548.844 392.500 547.992 L 390.500 547.139 385.500 546.077 L 380.500 545.014 375.201 544.007 L 369.902 543 368.599 543 L 367.296 543 363.898 545.282 M 712.500 544.170 L 708.500 545.133 702.500 546.646 L 696.500 548.159 693.171 548.992 L 689.842 549.825 689.171 550.549 L 688.500 551.273 691 550.767 L 693.500 550.260 701 548.257 L 708.500 546.253 714.598 545.022 L 720.696 543.791 723.848 545.421 L 727 547.051 727.136 550.776 L 727.272 554.500 727.719 552.148 L 728.166 549.797 727.607 547.570 L 727.048 545.343 724.477 544.171 L 721.906 543 719.203 543.103 L 716.500 543.207 712.500 544.170 M 428.320 552 L 428.320 558.500 428.723 555.250 L 429.127 552 428.723 548.750 L 428.320 545.500 428.320 552 M 587.768 546.725 L 591.036 547.129 593.768 546.715 L 596.500 546.300 590.500 546.310 L 584.500 546.320 587.768 546.725 M 541.035 555.934 L 540 557.869 540.107 560.684 L 540.214 563.500 541.166 559.250 L 542.118 555 544.406 555 L 546.694 555 547.780 557.250 L 548.865 559.500 548.932 557.950 L 549 556.400 547.800 555.200 L 546.600 554 544.335 554 L 542.070 554 541.035 555.934 M 378 560.853 L 380.500 561.721 385.385 562.893 L 390.269 564.064 390.728 563.605 L 391.188 563.146 387.344 562.064 L 383.500 560.982 379.500 560.484 L 375.500 559.985 378 560.853 M 702.644 561.631 L 697.789 563.122 698.389 563.723 L 698.990 564.323 702.745 563.233 L 706.500 562.142 710 561.173 L 713.500 560.204 710.500 560.172 L 707.500 560.139 702.644 561.631 M 429.134 566 L 429.031 569.500 430 571 L 430.969 572.500 430.866 570.500 L 430.763 568.500 430 565.500 L 429.237 562.500 429.134 566 M 549.030 564.173 L 549 565.845 554.358 570.423 L 559.716 575 560.498 575 L 561.280 575 562.608 576.750 L 563.936 578.500 563.968 580.750 L 564 583 561.486 583 L 558.973 583 556.775 581.750 L 554.577 580.500 553.189 579.222 L 551.801 577.944 548.239 576.456 L 544.678 574.967 543.025 575.492 L 541.373 576.016 537.688 579.391 L 534.004 582.766 531.752 583.152 L 529.500 583.538 527.250 583.199 L 525 582.861 525 580.430 L 525 578 526.250 577.993 L 527.500 577.986 533.892 571.469 L 540.285 564.951 539.802 564.468 L 539.319 563.985 533.763 569.810 L 528.207 575.634 525.604 577.340 L 523 579.046 523 580.594 L 523 582.143 524.429 583.571 L 525.857 585 529.288 585 L 532.718 585 537.109 581.176 L 541.500 577.353 543.308 576.685 L 545.116 576.018 548.808 578.037 L 552.500 580.056 555.500 581.955 L 558.500 583.854 561.281 583.927 L 564.063 584 564.683 582.383 L 565.304 580.766 564.402 578.237 L 563.500 575.707 561.559 574.604 L 559.618 573.500 557.402 571.500 L 555.187 569.500 553.254 568 L 551.321 566.500 550.191 564.500 L 549.061 562.500 549.030 564.173 M 393.500 564.993 L 395.500 565.850 402.763 568.588 L 410.026 571.326 410.924 572.413 L 411.823 573.500 412.262 576.500 L 412.700 579.500 412.850 575.905 L 413 572.310 411.171 570.655 L 409.343 569 407.371 569 L 405.400 569 404.450 568.133 L 403.500 567.266 398.572 565.633 L 393.644 564 392.572 564.068 L 391.500 564.135 393.500 564.993 M 691 565.446 L 687.500 566.804 682.500 568.695 L 677.500 570.585 675.798 574.043 L 674.096 577.500 674.048 580.168 L 674 582.836 674.607 584.418 L 675.214 586 676.798 586 L 678.382 586 676.501 584.625 L 674.621 583.249 675.957 577.678 L 677.294 572.106 685.397 568.965 L 693.500 565.824 695.500 564.980 L 697.500 564.135 696 564.112 L 694.500 564.088 691 565.446 M 384 595.162 L 378.500 598.305 375.223 600.792 L 371.946 603.279 372.527 603.860 L 373.109 604.442 373.804 603.405 L 374.500 602.368 379 599.367 L 383.500 596.367 387.250 594.636 L 391 592.906 391 592.453 L 391 592 390.250 592.009 L 389.500 592.019 384 595.162 M 701 594.396 L 701 594.792 705.874 597.919 L 710.748 601.047 712.874 602.891 L 715 604.735 715 605.867 L 715 607 716 607 L 717 607 717 610.200 L 717 613.400 718.190 612.210 L 719.380 611.020 717.711 607.520 L 716.042 604.021 709.271 599.026 L 702.500 594.030 701.750 594.015 L 701 594 701 594.396 M 411.500 599.132 L 408.500 600.151 404.500 601.972 L 400.500 603.794 397.250 605.018 L 394 606.243 394 607.157 L 394 608.070 395.750 607.155 L 397.500 606.239 402.398 604.027 L 407.295 601.815 411.898 600.419 L 416.500 599.022 417.737 599.011 L 418.973 599 420.487 602.622 L 422 606.244 422 607.967 L 422 609.690 415.646 614.355 L 409.291 619.020 407.396 621.199 L 405.500 623.378 409 620.972 L 412.500 618.566 413.837 617.268 L 415.173 615.970 418.837 613.235 L 422.500 610.500 423.665 609.006 L 424.830 607.513 424.165 607.006 L 423.500 606.500 421.500 602.500 L 419.500 598.500 417 598.307 L 414.500 598.114 411.500 599.132 M 667.667 598.667 L 667 599.333 667.030 600.917 L 667.061 602.500 668.080 600.750 L 669.099 599 670.804 599 L 672.509 599 679.504 601.535 L 686.500 604.069 690.809 606.153 L 695.119 608.236 700.059 612.141 L 705 616.047 705 615.386 L 705 614.725 701.451 611.693 L 697.902 608.662 695.701 607.508 L 693.500 606.355 691.500 605.261 L 689.500 604.168 686 602.661 L 682.500 601.153 678 599.591 L 673.500 598.029 670.917 598.015 L 668.333 598 667.667 598.667 M 369.607 606.582 L 369 608.164 369 610.907 L 369 613.651 371.314 615.826 L 373.629 618 375.064 617.970 L 376.500 617.939 374.500 616.784 L 372.500 615.630 371.250 614.386 L 370 613.143 370 611.006 L 370 608.869 371.035 606.934 L 372.070 605 371.142 605 L 370.214 605 369.607 606.582 M 386.640 611.523 L 382.779 615 383.767 615 L 384.755 615 386.128 613.338 L 387.500 611.676 390.500 609.842 L 393.500 608.007 392 608.027 L 390.500 608.046 386.640 611.523 M 665.038 609.682 L 665.076 610.500 669.288 613.500 L 673.500 616.500 674.500 616.824 L 675.500 617.148 673 615.046 L 670.500 612.944 667.750 610.904 L 665 608.864 665.038 609.682 M 714.237 615.163 L 713.073 616.327 709.495 616.192 L 705.918 616.058 706.518 617.029 L 707.118 618 709.904 618 L 712.690 618 714.500 616 L 716.310 614 715.855 614 L 715.400 614 714.237 615.163 M 676 617.521 L 676 618.228 680.197 621.864 L 684.394 625.500 688.201 629.499 L 692.009 633.498 693.590 636.830 L 695.171 640.162 695.659 639.674 L 696.147 639.186 694.517 636.033 L 692.887 632.881 689.311 628.923 L 685.735 624.965 680.868 620.889 L 676 616.814 676 617.521 M 652.641 625.284 L 649.500 628.550 647.120 631.525 L 644.739 634.500 641.120 638.384 L 637.500 642.269 639.102 641.384 L 640.704 640.500 647.344 633 L 653.984 625.500 653.992 624.750 L 654 624 655.456 624 L 656.912 624 662.206 627.105 L 667.500 630.210 671.703 633.633 L 675.906 637.057 678.615 642.034 L 681.323 647.010 681.763 646.571 L 682.202 646.131 679.851 641.816 L 677.500 637.500 673.500 633.750 L 669.501 630 668.822 630 L 668.143 630 666.821 628.707 L 665.500 627.413 660.641 624.716 L 655.781 622.019 652.641 625.284 M 429.500 624 L 428.882 625 427.382 625 L 425.883 625 421.740 628.250 L 417.597 631.500 414.686 634 L 411.775 636.500 408.791 640.820 L 405.807 645.141 406.283 645.616 L 406.758 646.092 409.521 641.796 L 412.284 637.500 417.596 632.931 L 422.909 628.361 427.611 625.943 L 432.314 623.524 436.875 629.012 L 441.436 634.500 449.724 642.629 L 458.011 650.758 465.256 655.726 L 472.500 660.694 479.250 664.433 L 486 668.172 486 667.330 L 486 666.488 482.750 665.062 L 479.500 663.636 470 657.351 L 460.500 651.067 456.061 647.283 L 451.622 643.500 447.561 639.392 L 443.500 635.285 440.349 631.392 L 437.198 627.500 435.232 625.250 L 433.265 623 431.692 623 L 430.118 623 429.500 624 M 398.361 629.545 L 395.500 633.091 393.750 636.280 L 392 639.469 392 641.311 L 392 643.154 394.923 646.077 L 397.846 649 401.364 649 L 404.882 649 405.444 648.090 L 406.006 647.181 401.343 647.251 L 396.679 647.322 394.839 645.050 L 393 642.778 393.034 641.639 L 393.068 640.500 394.812 636.817 L 396.556 633.134 399.802 629.567 L 403.049 626 402.135 626 L 401.221 626 398.361 629.545 M 630 648.572 L 625.500 652.125 623.242 654.063 L 620.985 656 620.559 656 L 620.133 656 614.816 659.250 L 609.500 662.500 609.167 663.250 L 608.833 664 607.616 664 L 606.399 664 603.707 665.250 L 601.016 666.500 601.008 667.199 L 601 667.898 604.750 666.335 L 608.500 664.771 611.154 662.886 L 613.809 661 614.360 661 L 614.911 661 618.206 658.741 L 621.500 656.482 627.001 652.393 L 632.502 648.305 633.874 646.652 L 635.245 645 634.872 645.010 L 634.500 645.019 630 648.572 M 683.500 648 L 684.118 649 686.309 648.985 L 688.500 648.969 690 648 L 691.500 647.031 687.191 647.015 L 682.882 647 683.500 648 M 596 668.987 L 594.500 669.856 592.607 670.451 L 590.714 671.047 591.267 671.600 L 591.821 672.154 596.160 670.161 L 600.500 668.169 599 668.143 L 597.500 668.118 596 668.987 M 520 679 L 522.500 679.801 527.500 679.782 L 532.500 679.763 529.500 679 L 526.500 678.237 522 678.218 L 517.500 678.199 520 679 M 559 679 L 555.500 679.737 560.500 679.798 L 565.500 679.859 567.500 679 L 569.500 678.141 566 678.202 L 562.500 678.263 559 679 M 538.750 680.737 L 544 681.105 549.250 680.737 L 554.500 680.370 544 680.370 L 533.500 680.370 538.750 680.737" stroke="none" fill="#132c54" fill-rule="evenodd"/><path d="M 0 540.001 L 0 1080.002 540.250 1079.751 L 1080.500 1079.500 1080.751 539.750 L 1081.002 -0 540.501 -0 L 0 0 0 540.001 M 0.496 540.500 L 0.496 1080.500 0.750 810.168 L 1.004 539.836 0.750 270.168 L 0.496 0.500 0.496 540.500 M 533.500 419.027 L 525.500 419.785 519 420.942 L 512.500 422.098 505 424.474 L 497.500 426.849 492.500 429.048 L 487.500 431.247 483.484 433.042 L 479.467 434.837 473.484 433.982 L 467.500 433.127 463 432.058 L 458.500 430.988 454 430.085 L 449.500 429.183 440.500 427.511 L 431.500 425.839 427.958 426.897 L 424.417 427.955 421.798 430.728 L 419.179 433.500 416.981 437.765 L 414.783 442.029 413.961 445.265 L 413.139 448.500 411.561 454 L 409.984 459.500 409.960 485 L 409.936 510.500 409.339 531.307 L 408.741 552.115 407.121 551.455 L 405.500 550.795 401 549.250 L 396.500 547.706 394.500 546.967 L 392.500 546.228 388.500 545.147 L 384.500 544.065 379.201 543.033 L 373.902 542 369.528 542 L 365.153 542 362.077 544.589 L 359 547.178 359 550.655 L 359 554.131 360.030 556.055 L 361.059 557.979 363.980 559.490 L 366.901 561 369.129 561 L 371.358 561 374.429 561.923 L 377.500 562.847 383 564.036 L 388.500 565.226 395 567.277 L 401.500 569.329 405.466 571.101 L 409.433 572.873 410.591 578.015 L 411.749 583.157 409.625 583.974 L 407.500 584.792 403 586.016 L 398.500 587.240 395 588.513 L 391.500 589.787 387.250 591.629 L 383 593.472 383 594.236 L 383 595 381.841 595 L 380.682 595 375.356 599.021 L 370.029 603.043 368.515 605.972 L 367 608.901 367 611.263 L 367 613.626 369.937 616.439 L 372.874 619.253 376.797 619.356 L 380.721 619.459 386.110 615.316 L 391.500 611.172 398.786 607.528 L 406.071 603.883 410.786 602.452 L 415.500 601.022 416.737 601.011 L 417.973 601 419.543 604.750 L 421.114 608.500 418.823 610 L 416.533 611.500 407.829 618.777 L 399.125 626.055 396.048 629.939 L 392.972 633.824 391.442 637.485 L 389.912 641.147 390.491 642.972 L 391.071 644.798 393.672 647.399 L 396.273 650 401.014 650 L 405.755 650 407.089 648.393 L 408.422 646.787 409.671 644.643 L 410.921 642.500 412.030 640.500 L 413.138 638.500 419.319 633.615 L 425.500 628.730 428.802 627.155 L 432.104 625.580 436.205 630.540 L 440.306 635.500 448.970 644 L 457.634 652.500 466.067 658.200 L 474.500 663.901 483.346 668.450 L 492.192 673 493.408 673 L 494.624 673 498.764 675 L 502.903 677 505.252 677 L 507.600 677 508.550 677.839 L 509.500 678.678 515 679.803 L 520.500 680.927 526.500 681.697 L 532.500 682.467 544 682.419 L 555.500 682.371 563 681.213 L 570.500 680.056 574.259 679.417 L 578.019 678.779 578.568 677.890 L 579.118 677 581.573 677 L 584.027 677 586.014 676 L 588 675 589.986 674 L 591.973 673 593.008 673 L 594.043 673 602.612 669.004 L 611.180 665.009 619.840 659.377 L 628.500 653.744 629 653.108 L 629.500 652.471 636.308 646.562 L 643.116 640.654 649.566 632.921 L 656.016 625.187 661.874 628.664 L 667.732 632.141 671.427 635.925 L 675.122 639.709 678.318 644.605 L 681.514 649.500 685.833 649.811 L 690.151 650.122 693.575 647.510 L 697 644.898 697 640.879 L 697 636.860 694.111 632.661 L 691.221 628.461 685.248 622.981 L 679.274 617.500 677.387 615.986 L 675.500 614.472 672 612.034 L 668.500 609.596 667.819 608.601 L 667.138 607.605 668.601 604.104 L 670.064 600.603 670.306 600.361 L 670.547 600.119 676.024 601.927 L 681.500 603.734 689 607.311 L 696.500 610.888 701 614.915 L 705.500 618.943 709.644 618.972 L 713.788 619 716.894 616.099 L 720 613.198 720 610.012 L 720 606.827 714.626 601.580 L 709.252 596.333 699.786 591.667 L 690.320 587 687.860 587 L 685.400 587 684.450 586.085 L 683.500 585.169 681.102 584.835 L 678.704 584.500 677.752 582.979 L 676.799 581.459 677.911 577.331 L 679.022 573.204 685.761 570.506 L 692.500 567.807 696.500 566.506 L 700.500 565.204 706 563.978 L 711.500 562.751 714.399 561.875 L 717.298 561 720.078 561 L 722.858 561 726.429 557.632 L 730 554.264 730 550.584 L 730 546.905 727.354 544.452 L 724.708 542 720.104 542.001 L 715.500 542.002 708.239 543.517 L 700.977 545.031 696.739 546.372 L 692.500 547.712 688 549.036 L 683.500 550.360 682.367 551.206 L 681.234 552.051 680.617 550.444 L 680 548.836 679.982 507.668 L 679.963 466.500 678.547 458.500 L 677.131 450.500 676.475 448.500 L 675.819 446.500 675.010 444.500 L 674.202 442.500 672.876 439 L 671.551 435.500 667.336 431.284 L 663.121 427.069 660.413 426.389 L 657.704 425.709 651.102 426.876 L 644.500 428.044 640 428.974 L 635.500 429.904 629.500 431.059 L 623.500 432.214 621 433.101 L 618.500 433.987 613.354 434.148 L 608.209 434.310 601.376 431.014 L 594.542 427.718 586.416 424.972 L 578.290 422.225 573.895 421.566 L 569.500 420.907 565 420.014 L 560.500 419.121 551 418.695 L 541.500 418.269 533.500 419.027 M 500 523 L 500 524 498.174 524 L 496.349 524 494.070 526.426 L 491.790 528.852 492.454 529.926 L 493.118 531 494.933 531 L 496.749 531 500.483 527.580 L 504.217 524.160 503.549 523.080 L 502.882 522 501.441 522 L 500 522 500 523 M 585.250 524.603 L 583 527.170 583 529.085 L 583 531 584.965 531 L 586.930 531 587.965 529.066 L 589 527.131 589 524.566 L 589 522 588.250 522.018 L 587.500 522.036 585.250 524.603" stroke="transparent" fill="transparent" fill-rule="evenodd"/></svg>