<svg xmlns="http://www.w3.org/2000/svg" width="1080" height="1080" viewBox="0 0 1080 1080" version="1.1"><path d="M 524.500 422.941 C 523.400 423.407, 519.350 424.326, 515.500 424.983 C 511.650 425.640, 506.592 427.038, 504.261 428.089 C 501.929 429.140, 499.320 430, 498.461 430 C 497.603 430, 495.461 430.764, 493.700 431.697 C 491.940 432.631, 490.050 433.423, 489.500 433.459 C 488.950 433.494, 486.992 434.340, 485.149 435.339 C 480.247 437.996, 473.802 437.396, 447.500 431.830 C 444.750 431.248, 439.061 430.565, 434.859 430.313 C 427.521 429.873, 427.104 429.967, 424.359 432.697 C 421.061 435.976, 417 443.336, 417 446.035 C 417 447.051, 416.550 448.160, 416 448.500 C 415.450 448.840, 415 450.126, 415 451.359 C 415 452.592, 414.580 454.028, 414.068 454.550 C 413.540 455.087, 412.838 475.046, 412.450 500.500 C 412.073 525.250, 411.627 547.075, 411.459 549 C 411.291 550.925, 411.119 553.063, 411.077 553.750 C 410.965 555.563, 407.757 555.284, 403.345 553.078 C 395.792 549.301, 372.831 544.402, 367.566 545.443 C 363.935 546.161, 361 548.711, 361 551.147 C 361 554.373, 365.034 558, 368.621 558 C 370.415 558, 372.160 558.450, 372.500 559 C 372.840 559.550, 375.095 560, 377.512 560 C 379.929 560, 382.940 560.411, 384.203 560.913 C 385.466 561.416, 390.663 563.074, 395.750 564.598 C 400.837 566.121, 405 567.735, 405 568.184 C 405 568.633, 406.157 569, 407.571 569 C 411.456 569, 412.605 570.867, 413.300 578.306 C 413.848 584.180, 413.703 585.159, 412.217 585.617 C 411.272 585.908, 409.719 586.563, 408.764 587.073 C 407.809 587.583, 406.148 588, 405.073 588 C 403.998 588, 402.840 588.450, 402.500 589 C 402.160 589.550, 400.797 590, 399.471 590 C 398.146 590, 395.458 590.900, 393.500 592 C 391.542 593.100, 389.278 594, 388.470 594 C 387.661 594, 387 594.340, 387 594.756 C 387 595.172, 385.569 596.145, 383.821 596.919 C 380.227 598.510, 378.035 600.120, 373.296 604.650 C 367.510 610.180, 369.519 616.273, 377.127 616.273 C 380.216 616.273, 381.848 615.581, 384.312 613.228 C 389.067 608.688, 395.696 605.094, 410.297 599.141 C 411.835 598.513, 414.608 598, 416.458 598 C 419.509 598, 420.060 598.479, 422.395 603.166 C 425.342 609.079, 425.227 609.374, 418.058 614.301 C 415.551 616.023, 412.600 618.218, 411.500 619.177 C 410.400 620.136, 407.290 622.851, 404.588 625.210 C 392.204 636.026, 390.449 647.016, 401.110 646.989 C 405.190 646.978, 405.626 646.713, 407.291 643.239 C 411.291 634.890, 425.673 623, 431.770 623 C 432.798 623, 434.701 624.237, 435.999 625.750 C 437.297 627.263, 440.641 631.189, 443.430 634.476 C 449.941 642.150, 450.738 643, 451.426 643 C 451.739 643, 453.684 644.608, 455.748 646.572 C 459.801 650.431, 467.586 656, 468.928 656 C 469.383 656, 470.322 656.683, 471.015 657.518 C 471.708 658.354, 473.789 659.755, 475.638 660.632 C 477.487 661.510, 479 662.627, 479 663.114 C 479 663.601, 479.788 664.010, 480.750 664.022 C 481.712 664.034, 483.625 664.924, 485 666 C 486.375 667.076, 488.288 667.966, 489.250 667.978 C 490.212 667.990, 491 668.450, 491 669 C 491 669.550, 492.125 670, 493.500 670 C 494.875 670, 496 670.450, 496 671 C 496 671.550, 496.900 672, 498 672 C 499.100 672, 500 672.450, 500 673 C 500 673.550, 501.581 674, 503.514 674 C 505.446 674, 507.809 674.397, 508.764 674.883 C 513.455 677.270, 516.161 677.925, 524 678.572 C 541.823 680.043, 571.265 678.999, 572.593 676.849 C 572.882 676.382, 574.441 676, 576.059 676 C 577.677 676, 579 675.550, 579 675 C 579 674.450, 580.548 674, 582.441 674 C 584.334 674, 586.160 673.550, 586.500 673 C 586.840 672.450, 587.991 672, 589.059 672 C 590.127 672, 591 671.550, 591 671 C 591 670.450, 592.125 670, 593.500 670 C 594.875 670, 596 669.550, 596 669 C 596 668.450, 596.664 668, 597.476 668 C 598.288 668, 600.425 667.102, 602.226 666.004 C 604.027 664.906, 606.288 664.006, 607.250 664.004 C 608.212 664.002, 609 663.647, 609 663.216 C 609 662.784, 610.462 661.593, 612.250 660.570 C 618.159 657.185, 627.474 650.706, 629.117 648.838 C 630.007 647.827, 631.214 647, 631.800 647 C 632.386 647, 636.383 643.096, 640.683 638.325 C 657.017 620.197, 655.726 621.381, 657.700 622.722 C 658.690 623.395, 660.962 624.683, 662.750 625.586 C 664.538 626.489, 666 627.627, 666 628.114 C 666 628.601, 666.629 629, 667.399 629 C 669.617 629, 678.303 638.121, 680.500 642.757 C 682.417 646.802, 682.687 646.976, 687 646.957 C 690.636 646.941, 691.850 646.457, 693.322 644.435 C 695.180 641.883, 694.900 636, 692.921 636 C 692.414 636, 692 635.457, 692 634.793 C 692 633.652, 677.626 619, 676.507 619 C 676.219 619, 674.645 617.808, 673.010 616.352 C 671.376 614.895, 669.017 613.197, 667.769 612.579 C 664.777 611.096, 664.339 606.350, 666.734 601.352 C 668.210 598.273, 669.074 597.546, 671.040 597.729 C 674.295 598.033, 681.254 600.134, 682.450 601.174 C 682.973 601.628, 684.210 602, 685.200 602 C 686.190 602, 687 602.394, 687 602.875 C 687 603.356, 688.296 604.009, 689.879 604.326 C 691.463 604.643, 693.456 605.599, 694.308 606.451 C 695.160 607.303, 696.375 608, 697.007 608 C 697.639 608, 699.886 609.800, 702 612 C 705.075 615.201, 706.556 616, 709.410 616 C 717.053 616, 719.295 609.998, 713.643 604.667 C 708.695 599.999, 706.099 598, 704.989 598 C 704.445 598, 703.996 597.663, 703.992 597.250 C 703.983 596.352, 699.140 594, 697.301 594 C 696.585 594, 696 593.550, 696 593 C 696 592.450, 695.100 592, 694 592 C 692.900 592, 692 591.550, 692 591 C 692 590.450, 690.677 590, 689.059 590 C 687.441 590, 685.840 589.550, 685.500 589 C 685.160 588.450, 683.784 588, 682.441 588 C 681.098 588, 680 587.580, 680 587.066 C 680 586.553, 678.763 585.990, 677.250 585.816 C 674.844 585.540, 674.460 585.015, 674.182 581.621 C 673.658 575.226, 677.045 569.111, 681.155 569.032 C 682.066 569.014, 684.541 568.131, 686.655 567.070 C 691.396 564.690, 703.792 560.941, 710.500 559.860 C 721.693 558.055, 723 557.744, 723 556.891 C 723 556.401, 723.625 556, 724.389 556 C 725.952 556, 727.379 550.152, 726.424 547.661 C 725.218 544.520, 718.295 544.587, 703.500 547.883 C 694.275 549.939, 686.332 552.315, 683.861 553.758 C 682.410 554.606, 680.567 555.048, 679.764 554.740 C 677.500 553.871, 676.443 542.438, 676.969 524.500 C 677.787 496.609, 677.430 469.778, 676.151 463 C 675.476 459.425, 674.688 454.925, 674.400 453 C 674.112 451.075, 673.499 448.600, 673.038 447.500 C 669.674 439.475, 667.795 435.910, 665.481 433.160 C 663.010 430.223, 662.373 430, 656.462 430 C 652.963 430, 643.216 431.429, 634.801 433.177 C 618.157 436.632, 607.602 437.729, 605.708 436.200 C 605.043 435.664, 601.350 434.014, 597.500 432.533 C 593.650 431.052, 588.700 429.139, 586.500 428.281 C 582.585 426.756, 579.604 425.971, 569.500 423.801 C 563.304 422.471, 527.234 421.781, 524.500 422.941 M 534.600 438.733 C 534.197 439.136, 531.085 439.762, 527.684 440.124 C 519.753 440.968, 508.615 443.501, 503.500 445.624 C 494.200 449.483, 480.762 456.642, 478.017 459.199 C 476.954 460.189, 475.660 461, 475.142 461 C 473.570 461, 454.679 480.071, 449.516 486.870 C 443.776 494.429, 435 511.192, 435 514.596 C 435 515.918, 434.602 517, 434.117 517 C 432.789 517, 431.015 525.265, 428.966 541 C 427.907 549.127, 428.717 569.707, 430.130 570.580 C 430.609 570.876, 431 572.898, 431 575.073 C 431 578.867, 431.252 579.722, 433.844 584.736 C 434.480 585.966, 435 587.629, 435 588.431 C 435 589.772, 439.611 599.273, 443.772 606.504 C 446.647 611.501, 450.225 616.347, 453.191 619.259 C 454.736 620.776, 456 622.199, 456 622.420 C 456 623.323, 470.700 637.277, 473.250 638.795 C 474.762 639.695, 476 640.784, 476 641.216 C 476 641.647, 476.481 642, 477.070 642 C 477.658 642, 480.102 643.350, 482.500 645 C 484.898 646.650, 487.342 648, 487.930 648 C 488.519 648, 489 648.450, 489 649 C 489 649.550, 489.430 650, 489.955 650 C 490.480 650, 493.743 651.295, 497.205 652.877 C 523.318 664.810, 562.306 665.155, 588.197 653.680 C 601.935 647.592, 605.924 645.363, 614.166 639.172 C 623.596 632.088, 632.538 623.421, 637.044 617 C 638.395 615.075, 639.770 613.275, 640.101 613 C 642.415 611.073, 653 591.306, 653 588.911 C 653 588.398, 653.840 586.071, 654.866 583.739 C 659.923 572.250, 661.331 548.966, 658.055 531 C 655.554 517.284, 655.404 516.826, 648.917 503.265 C 646.488 498.185, 644.163 494.023, 643.750 494.015 C 643.337 494.007, 643 493.100, 643 492 C 643 490.900, 642.647 490, 642.216 490 C 641.784 490, 640.697 488.762, 639.800 487.250 C 637.087 482.677, 625.250 469, 624.005 469 C 623.586 469, 620.883 466.750, 618 464 C 615.117 461.250, 612.137 459, 611.379 459 C 610.620 459, 610 458.626, 610 458.169 C 610 457.712, 608.763 456.716, 607.250 455.955 C 605.737 455.194, 603.306 453.768, 601.846 452.786 C 600.386 451.804, 598.655 451, 598 451 C 597.345 451, 595.614 450.164, 594.154 449.142 C 592.694 448.120, 590.375 447.032, 589 446.724 C 587.625 446.416, 584.475 445.411, 582 444.491 C 570.627 440.263, 537.138 436.195, 534.600 438.733 M 644 448.435 C 635.861 449.992, 632 451.560, 632 453.309 C 632 454.056, 634.813 457.554, 638.250 461.083 C 645.969 469.008, 648.304 471.943, 652.779 479.348 C 655.875 484.473, 658.144 487.029, 659.080 486.451 C 661.961 484.670, 657.929 450.060, 654.574 447.765 C 653.210 446.832, 651.967 446.911, 644 448.435 M 434.250 449.137 C 433.563 449.832, 433 451.120, 433 452 C 433 452.880, 432.586 454.028, 432.081 454.550 C 431.575 455.072, 430.921 458.425, 430.626 462 C 430.332 465.575, 429.796 471.985, 429.436 476.245 C 429.076 480.504, 429.069 484.738, 429.420 485.652 C 429.989 487.136, 430.271 487.087, 432.029 485.199 C 433.113 484.036, 434 482.808, 434 482.472 C 434 481.741, 439.573 473.559, 442.455 470.061 C 443.580 468.695, 447.360 464.821, 450.855 461.451 C 458.530 454.051, 458.635 452.265, 451.500 450.439 C 443.059 448.279, 435.653 447.720, 434.250 449.137 M 589.147 522.670 C 590.053 522.910, 591.012 523.938, 591.278 524.954 C 592.032 527.838, 590.913 532, 589.383 532 C 588.623 532, 588 532.450, 588 533 C 588 534.407, 582.649 534.249, 581.200 532.800 C 580.540 532.140, 580 530.758, 580 529.729 C 580 528.065, 579.833 528.024, 578.500 529.357 C 576.644 531.213, 576.484 540.109, 578.250 543.253 C 582.355 550.562, 590.752 552.357, 596.885 547.237 C 601.267 543.579, 603.170 538.136, 601.602 533.750 C 600.963 531.962, 599.876 529.489, 599.187 528.253 C 597.894 525.937, 591.074 521.911, 588.790 522.116 C 588.080 522.180, 588.241 522.429, 589.147 522.670 M 502 526.876 C 502 531.586, 499.599 534, 494.915 534 C 492.012 534, 491.268 533.504, 490.044 530.750 L 488.600 527.500 487.900 530 C 484.618 541.716, 489.968 550.457, 500.324 550.301 C 504.576 550.237, 505.555 549.785, 508.574 546.489 C 511.508 543.286, 512 542.039, 512 537.809 C 512 531.240, 508.567 525.358, 503.750 523.674 C 502.282 523.161, 502 523.678, 502 526.876 M 537.552 553.365 C 534.330 556.351, 534.347 558.056, 537.649 563.046 C 540.807 567.818, 541.989 575.934, 539.792 577.758 C 538.906 578.493, 533.513 579.043, 525.471 579.219 L 512.572 579.500 511.601 582.891 C 509.491 590.260, 516.482 591.638, 551 590.655 C 574.861 589.976, 578.422 589.543, 577.607 587.420 C 577.286 586.583, 577.630 586.305, 578.551 586.658 C 580.775 587.511, 580.158 584.536, 577.171 580 C 576.990 579.725, 570.690 579.275, 563.171 579 L 549.500 578.500 549.206 571.250 C 549.045 567.263, 549.310 564, 549.796 564 C 551.061 564, 552.745 559.890, 552.546 557.287 C 552.068 551.041, 542.702 548.591, 537.552 553.365" stroke="none" fill="#00163b" fill-rule="evenodd"/><path d="M 644 450.022 C 638.856 450.921, 634 452.651, 634 453.586 C 634 453.935, 637.294 457.722, 641.319 462.001 C 645.345 466.280, 650.407 472.527, 652.569 475.882 C 654.731 479.237, 656.837 481.986, 657.250 481.991 C 659.386 482.016, 657.239 457.987, 654.458 450.750 C 653.732 448.858, 651.533 448.705, 644 450.022 M 435.245 451.250 C 434.695 451.938, 433.965 453.417, 433.622 454.537 C 433.100 456.247, 430.033 478.917, 430.008 481.250 C 429.985 483.445, 432.395 481.233, 437.093 474.750 C 439.982 470.762, 445.223 464.508, 448.740 460.850 C 452.882 456.543, 454.727 453.949, 453.978 453.487 C 451.972 452.247, 442.630 450.024, 439.372 450.012 C 437.652 450.005, 435.795 450.563, 435.245 451.250" stroke="none" fill="#ebb61f" fill-rule="evenodd"/><path d="M 526.191 440.850 C 524.921 441.207, 533.117 441.500, 544.404 441.500 C 555.691 441.500, 564.155 441.194, 563.213 440.820 C 561.036 439.956, 529.273 439.982, 526.191 440.850 M 515.500 442.996 C 514.400 443.470, 512.209 444.136, 510.632 444.477 C 509.055 444.818, 507.986 445.319, 508.256 445.590 C 508.527 445.861, 512.068 445.191, 516.124 444.102 C 520.658 442.884, 522.344 442.124, 520.500 442.128 C 518.850 442.132, 516.600 442.523, 515.500 442.996 M 573 444.063 C 577.125 445.109, 580.950 445.804, 581.500 445.606 C 582.050 445.408, 581.150 444.946, 579.500 444.578 C 577.850 444.210, 574.873 443.480, 572.884 442.955 C 570.895 442.430, 568.420 442.036, 567.384 442.080 C 566.348 442.124, 568.875 443.016, 573 444.063 M 489 453.682 C 475.439 461.088, 462.754 472.048, 451.830 485.795 C 446.536 492.457, 442.325 499, 443.333 499 C 443.544 499, 445.384 496.489, 447.421 493.421 C 454.353 482.980, 464.958 471.719, 474.978 464.158 C 482.280 458.648, 484.287 457.361, 490.500 454.202 C 494.549 452.143, 497.666 449.985, 496.473 450.066 C 495.938 450.102, 492.575 451.730, 489 453.682 M 601 454.383 C 601 454.633, 602.688 455.855, 604.750 457.100 C 606.813 458.344, 611.093 461.306, 614.261 463.681 C 620.813 468.593, 622.673 469.380, 617.785 465.173 C 612.387 460.527, 601 453.207, 601 454.383 M 623.417 471.113 C 631.812 477.717, 645.174 498.207, 651.070 513.518 C 657.168 529.354, 657.129 537.532, 650.866 556.348 C 634.806 604.601, 593.356 634.759, 536.361 639.661 C 525.767 640.572, 501.321 637.279, 488 633.146 C 466.391 626.442, 461.298 623.995, 454.093 616.857 C 451.119 613.911, 449.111 612.286, 449.630 613.246 C 450.150 614.206, 454.608 619.102, 459.537 624.125 C 480.592 645.582, 500.685 655.897, 528.226 659.387 C 546.129 661.656, 549.296 661.537, 569 657.854 C 582.043 655.416, 601.179 646.755, 612.338 638.239 C 641.338 616.109, 656.319 589.038, 657.719 556.233 C 658.400 540.281, 655.842 518.990, 652.831 515.550 C 652.374 515.028, 652 513.935, 652 513.122 C 652 511.013, 643.618 494.798, 639.083 488.134 C 634.585 481.525, 623.246 469, 621.760 469 C 621.194 469, 621.939 469.951, 623.417 471.113 M 678.392 511 C 678.392 518.425, 678.549 521.462, 678.742 517.750 C 678.934 514.038, 678.934 507.962, 678.742 504.250 C 678.549 500.538, 678.392 503.575, 678.392 511 M 439.688 505.250 C 435.802 513.547, 433.127 521.163, 432.575 525.500 C 432.119 529.082, 432.205 528.978, 433.395 524.500 C 434.593 519.995, 436.503 515.044, 441.401 503.750 C 443.868 498.061, 442.490 499.267, 439.688 505.250 M 493.405 521.904 C 486.609 524.990, 482.911 533.241, 484.942 540.786 C 487.758 551.242, 497.775 555.900, 506.686 550.896 C 510.859 548.552, 512.941 546.252, 512.928 544 C 512.924 543.175, 512.250 543.735, 511.431 545.244 C 509.747 548.348, 503.338 552, 499.574 552 C 495.693 552, 490.649 549.160, 488.212 545.604 C 485.112 541.080, 485.131 532.310, 488.250 527.508 C 490.472 524.087, 493 522.205, 493 523.972 C 493 524.473, 492.550 525.160, 492 525.500 C 491.450 525.840, 491 526.642, 491 527.282 C 491 527.921, 491.784 527.332, 492.742 525.973 C 493.700 524.613, 494.408 523.259, 494.314 522.964 C 493.971 521.890, 503.257 522.067, 505.328 523.175 C 510.198 525.782, 513.281 531.596, 513.157 537.938 C 513.093 541.183, 513.342 542.067, 514.018 541 C 517.180 536.014, 511.843 525.195, 504.599 521.905 C 499.503 519.591, 498.497 519.591, 493.405 521.904 M 584.106 521.552 C 577.226 524.538, 573.832 531.961, 575.437 540.515 C 576.194 544.553, 581.405 551.020, 583.854 550.960 C 584.960 550.933, 584.645 550.455, 582.893 549.503 C 579.327 547.565, 577.071 543.830, 576.402 538.758 C 575.771 533.978, 577.735 526.904, 579.889 526.197 C 580.839 525.885, 581.025 526.177, 580.478 527.120 C 580.038 527.879, 580.852 527.431, 582.288 526.124 C 584.130 524.447, 585.671 523.895, 587.525 524.249 C 588.970 524.526, 589.780 524.396, 589.326 523.960 C 588.872 523.525, 587.375 522.968, 586 522.721 C 584.625 522.474, 585.708 522.211, 588.406 522.136 C 596.738 521.905, 603.004 528.374, 602.996 537.200 C 602.989 545.234, 597.112 550.953, 588.782 551.030 C 586.199 551.054, 585.851 551.266, 587.147 552.022 C 589.094 553.159, 596.359 550.890, 599.303 548.226 C 608.089 540.274, 603.858 524.277, 592.105 521.013 C 587.720 519.795, 588.233 519.760, 584.106 521.552 M 410.385 541 C 410.385 547.875, 410.545 550.688, 410.740 547.250 C 410.936 543.813, 410.936 538.188, 410.740 534.750 C 410.545 531.313, 410.385 534.125, 410.385 541 M 430.633 533.500 C 430.204 535.700, 429.625 542.728, 429.346 549.118 C 428.935 558.536, 429.244 562.703, 430.980 571.118 C 432.157 576.828, 433.994 583.408, 435.060 585.739 C 436.127 588.071, 437 590.387, 437 590.888 C 437 591.746, 439.773 597.155, 445.130 606.742 C 446.434 609.075, 447.816 610.987, 448.201 610.992 C 448.587 610.996, 446.985 607.737, 444.642 603.750 C 440.086 595.996, 434.852 583.349, 433.160 576 C 432.590 573.525, 431.646 569.388, 431.062 566.807 C 429.682 560.707, 429.692 541.182, 431.077 537.208 C 431.670 535.509, 431.988 533.079, 431.784 531.809 C 431.503 530.062, 431.223 530.474, 430.633 533.500 M 713.500 543.990 C 712.255 544.519, 713.577 544.628, 717 544.280 C 720.025 543.972, 722.688 543.558, 722.917 543.360 C 723.778 542.616, 715.416 543.176, 713.500 543.990 M 539 549.709 C 536.851 550.500, 534 553.134, 534 554.329 C 534 554.890, 535.161 554.258, 536.581 552.924 C 538.667 550.964, 540.216 550.500, 544.669 550.500 C 549.251 550.500, 550.498 550.897, 552.088 552.861 C 554.518 555.862, 554.505 558.588, 552.037 563.192 C 550.957 565.207, 549.945 569.250, 549.787 572.177 L 549.500 577.500 562.751 577.545 L 576.003 577.591 562.971 577.266 L 549.939 576.942 550.594 571.721 C 550.954 568.849, 552.093 565.097, 553.124 563.382 C 557.481 556.140, 553.213 548.917, 544.673 549.079 C 542.378 549.122, 539.825 549.406, 539 549.709 M 533.476 558.759 C 533.739 560.552, 534.838 563.252, 535.919 564.759 C 536.999 566.267, 538.184 569.624, 538.551 572.220 L 539.218 576.940 525.859 577.267 L 512.500 577.594 526 577.547 L 539.500 577.500 539.814 573.696 C 540.039 570.966, 539.369 568.599, 537.440 565.307 C 535.962 562.785, 534.358 559.547, 533.875 558.111 C 533.086 555.761, 533.046 555.826, 533.476 558.759 M 412.180 579.167 C 412.071 582.615, 411.511 585.031, 410.750 585.338 C 409.771 585.733, 409.778 585.859, 410.781 585.921 C 412.625 586.035, 413.172 583.925, 412.740 578.373 L 412.360 573.500 412.180 579.167 M 510.162 580.543 C 508.368 584.482, 508.762 586.875, 511.646 589.548 L 514.292 592 544.492 592 C 578.811 592, 581.019 591.617, 580.978 585.677 C 580.966 583.930, 580.084 581.375, 579.018 580 C 577.147 577.587, 577.100 577.578, 577.657 579.750 C 577.974 580.987, 578.631 582, 579.117 582 C 579.602 582, 579.996 583.462, 579.992 585.250 C 579.979 590.732, 578.323 591, 544.489 591 C 515.568 591, 514.291 590.919, 512.189 588.961 C 509.739 586.679, 509.535 585.353, 511.028 581.426 C 512.361 577.920, 511.676 577.221, 510.162 580.543 M 702 594.362 C 702 594.623, 703.688 595.878, 705.750 597.151 C 707.813 598.424, 711.300 600.988, 713.500 602.848 C 716.532 605.412, 716.384 605.175, 712.885 601.865 C 708.610 597.821, 702 593.265, 702 594.362 M 538.250 680.739 C 541.413 680.937, 546.587 680.937, 549.750 680.739 C 552.913 680.541, 550.325 680.378, 544 680.378 C 537.675 680.378, 535.087 680.541, 538.250 680.739" stroke="none" fill="#1266b7" fill-rule="evenodd"/><path d="M 528 419.984 C 526.625 420.415, 529.550 420.533, 534.500 420.246 C 539.450 419.958, 543.688 419.560, 543.917 419.362 C 544.731 418.655, 530.457 419.213, 528 419.984 M 545.083 419.361 C 545.313 419.559, 549.775 419.966, 555 420.264 C 560.344 420.570, 563.406 420.455, 562 420.003 C 559.569 419.222, 544.250 418.640, 545.083 419.361 M 568 422 C 569.375 422.440, 571.850 422.792, 573.500 422.782 L 576.500 422.763 573.500 422 C 571.850 421.580, 569.375 421.228, 568 421.218 L 565.500 421.199 568 422 M 502.500 425.858 C 498.100 427.393, 492.925 429.349, 491 430.205 C 489.075 431.062, 485.776 432.530, 483.669 433.467 C 481.562 434.404, 480.037 435.371, 480.282 435.615 C 480.526 435.859, 484.050 434.526, 488.113 432.652 C 492.176 430.778, 498.650 428.234, 502.500 426.999 C 511.638 424.069, 513.892 423.144, 512 423.102 C 511.175 423.084, 506.900 424.324, 502.500 425.858 M 578 424 C 578.825 424.533, 580.227 424.976, 581.117 424.985 C 583.113 425.004, 592.235 428.529, 604.347 433.964 C 607.013 435.160, 609.368 435.966, 609.579 435.754 C 609.791 435.542, 608.060 434.541, 605.732 433.529 C 603.404 432.517, 599.250 430.691, 596.500 429.471 C 586.644 425.098, 573.840 421.312, 578 424 M 427 427.655 C 424.853 428.506, 420.007 433.149, 418.810 435.500 C 418.251 436.600, 419.195 435.846, 420.909 433.824 C 426.711 426.977, 431.806 426.875, 460.500 433.035 C 472.622 435.637, 475.255 436.078, 476.324 435.690 C 476.971 435.455, 475.250 434.937, 472.500 434.540 C 469.750 434.142, 466.150 433.435, 464.500 432.969 C 462.850 432.502, 458.800 431.616, 455.500 431 C 452.200 430.384, 448.150 429.488, 446.500 429.009 C 442.506 427.851, 428.891 426.905, 427 427.655 M 648.500 428.033 C 642.576 429.043, 634.426 430.599, 627.500 432.041 C 624.750 432.613, 620.096 433.480, 617.157 433.967 C 614.218 434.454, 611.518 435.153, 611.157 435.520 C 610.357 436.332, 619.520 435.179, 623 434.029 C 624.375 433.575, 628.875 432.662, 633 432 C 637.125 431.338, 641.625 430.415, 643 429.948 C 644.375 429.482, 648.875 428.814, 653 428.465 C 660.204 427.854, 660.661 427.946, 664.587 430.803 C 668.175 433.413, 673 440.942, 673 443.930 C 673 444.454, 673.435 445.151, 673.966 445.479 C 676.339 446.946, 671.095 436.229, 667.475 432.214 C 663.860 428.204, 662.943 427.721, 658.475 427.465 C 655.739 427.308, 651.250 427.564, 648.500 428.033 M 527 441.634 C 525.625 441.892, 520.900 443.003, 516.500 444.104 C 504.965 446.989, 498.818 449.542, 484.488 457.397 C 476.642 461.698, 463.424 473.451, 453.931 484.568 C 444.871 495.178, 435.308 514.817, 433.027 527.500 C 432.335 531.350, 431.370 535.805, 430.884 537.399 C 429.656 541.425, 429.775 561.121, 431.062 566.807 C 431.646 569.388, 432.590 573.525, 433.160 576 C 436.309 589.672, 446.564 609.405, 454.703 617.453 C 461.287 623.963, 466.848 626.584, 488 633.146 C 501.321 637.279, 525.767 640.572, 536.361 639.661 C 563.787 637.302, 584.771 630.259, 605.500 616.454 C 627.300 601.935, 642.314 582.043, 650.866 556.348 C 657.129 537.532, 657.168 529.354, 651.070 513.518 C 637.450 478.148, 610.371 453.818, 574 444.272 C 565.968 442.164, 561.795 441.731, 547 441.472 C 537.375 441.303, 528.375 441.376, 527 441.634 M 677.070 459.083 C 677.109 460.962, 677.550 463.400, 678.051 464.500 C 678.664 465.846, 678.762 464.866, 678.352 461.500 C 677.628 455.546, 676.972 454.311, 677.070 459.083 M 410.632 461.090 C 410.284 462.828, 410.091 478.931, 410.203 496.875 L 410.406 529.500 410.953 494 C 411.254 474.475, 411.447 458.372, 411.382 458.215 C 411.317 458.059, 410.980 459.352, 410.632 461.090 M 679.425 490 C 679.425 501.825, 679.569 506.663, 679.746 500.750 C 679.923 494.837, 679.923 485.163, 679.746 479.250 C 679.569 473.337, 679.425 478.175, 679.425 490 M 493.405 521.904 C 486.609 524.990, 482.911 533.241, 484.942 540.786 C 487.758 551.242, 497.775 555.900, 506.686 550.896 C 511.289 548.310, 512.262 547.022, 513.963 541.259 C 515.063 537.535, 515.072 536.078, 514.015 533.112 C 511.994 527.438, 509.040 523.922, 504.599 521.905 C 499.503 519.591, 498.497 519.591, 493.405 521.904 M 584.106 521.552 C 579.352 523.615, 576.167 527.707, 575.416 532.715 C 574.052 541.804, 577.830 548.924, 585.395 551.525 C 591.605 553.660, 599.288 550.211, 602.602 543.802 C 606.903 535.485, 601.430 523.603, 592.105 521.013 C 587.720 519.795, 588.233 519.760, 584.106 521.552 M 582.237 526.254 C 580.650 527.948, 580.374 528.930, 581.116 530.250 C 582.247 532.263, 586.997 532.603, 588.800 530.800 C 590.328 529.272, 590.356 525.338, 588.845 524.405 C 588.111 523.950, 587.963 524.132, 588.440 524.902 C 588.851 525.569, 588.912 527.213, 588.575 528.557 C 588.103 530.439, 587.302 531, 585.088 531 C 581.422 531, 580.395 528.537, 583.232 526.550 C 584.413 525.723, 585.146 524.812, 584.860 524.527 C 584.575 524.241, 583.394 525.019, 582.237 526.254 M 678.349 532 C 678.349 536.675, 678.522 538.587, 678.732 536.250 C 678.943 533.913, 678.943 530.087, 678.732 527.750 C 678.522 525.413, 678.349 527.325, 678.349 532 M 491.268 529.393 C 491.626 532.310, 494.388 533.611, 497.165 532.170 L 499.500 530.958 496.992 531.438 C 494.200 531.971, 492.614 531.245, 491.668 529 C 491.218 527.935, 491.103 528.048, 491.268 529.393 M 367.500 542.466 C 368.050 542.636, 371.200 543.297, 374.500 543.935 C 389.096 546.759, 397.428 548.991, 404.500 551.975 C 408.450 553.641, 410 553.921, 410 552.969 C 410 552.436, 409.094 552, 407.986 552 C 406.879 552, 405.191 551.571, 404.236 551.047 C 401.677 549.643, 391.237 546.341, 385.500 545.120 C 382.750 544.536, 378.388 543.594, 375.807 543.029 C 371.666 542.121, 364.895 541.663, 367.500 542.466 M 704 545.112 C 693.041 547.982, 690.979 548.583, 686 550.363 C 683.525 551.247, 681.188 551.977, 680.807 551.985 C 680.427 551.993, 679.943 550.087, 679.732 547.750 L 679.349 543.500 679.175 548.250 C 678.972 553.753, 679.040 553.775, 687.433 550.978 C 695.817 548.184, 698.654 547.374, 705 545.964 C 708.025 545.292, 711.625 544.385, 713 543.950 C 718.290 542.274, 711.473 543.154, 704 545.112 M 724.679 544.189 C 727.826 545.710, 729.351 549.945, 728.017 553.455 C 727.427 555.007, 727.130 556.463, 727.356 556.690 C 727.835 557.169, 730 551.279, 730 549.497 C 730 547.798, 725.358 542.986, 723.798 543.068 C 723.084 543.105, 723.480 543.609, 724.679 544.189 M 359.102 551.115 C 358.997 553.809, 362.342 559, 364.183 559 C 364.754 559, 364.236 558.202, 363.031 557.226 C 361.826 556.250, 360.472 553.888, 360.022 551.976 C 359.321 548.996, 359.190 548.873, 359.102 551.115 M 538.020 550.284 C 532.827 552.912, 531.918 559.178, 535.919 564.759 C 536.999 566.267, 538.186 569.638, 538.555 572.250 L 539.227 577 526.364 577.015 C 519.289 577.024, 513.005 577.361, 512.400 577.765 C 510.754 578.864, 509 582.588, 509 584.982 C 509 586.144, 510.191 588.199, 511.646 589.548 L 514.292 592 544.492 592 C 578.926 592, 581 591.635, 581 585.573 C 581 583.476, 580.115 581.337, 578.548 579.646 C 576.137 577.044, 575.876 577, 563.013 577 L 549.931 577 550.590 571.750 C 550.952 568.862, 552.093 565.097, 553.124 563.382 C 555.974 558.645, 555.568 554.655, 551.923 551.589 C 548.471 548.684, 542.323 548.107, 538.020 550.284 M 377 561.948 C 377.825 562.510, 379.593 562.976, 380.929 562.985 C 383.454 563.001, 389.229 564.603, 392.236 566.123 C 393.191 566.605, 394.530 567, 395.212 567 C 395.893 567, 399.505 568.199, 403.239 569.663 C 408.983 571.917, 410.173 572.802, 410.970 575.413 L 411.912 578.500 411.706 575.500 C 411.535 573.014, 410.729 572.127, 407 570.325 C 398.203 566.073, 372.533 558.905, 377 561.948 M 708.500 561.641 C 703.201 562.726, 690.882 566.541, 686.500 568.455 C 684.850 569.176, 682.103 570.296, 680.395 570.944 C 677.755 571.946, 677.099 572.919, 676.013 577.444 C 674.775 582.605, 675.109 585, 677.067 585 C 677.628 585, 677.587 584.284, 676.966 583.250 C 676.216 582, 676.285 580.271, 677.208 577.195 C 678.392 573.250, 679.002 572.678, 684.500 570.367 C 687.800 568.979, 691.400 567.616, 692.500 567.338 C 693.600 567.060, 695.400 566.472, 696.500 566.031 C 697.600 565.589, 700.300 564.759, 702.500 564.185 C 710.986 561.973, 713.446 561.205, 712 561.218 C 711.175 561.226, 709.600 561.416, 708.500 561.641 M 383.774 594.160 C 376.069 598.341, 370.044 603.652, 368.317 607.784 C 367.045 610.829, 367.077 611.471, 368.622 613.845 C 372.964 620.518, 377.926 620.793, 385.908 614.803 C 393.303 609.253, 393.587 609, 392.443 609 C 391.917 609, 389.017 611.025, 386 613.500 C 379.756 618.622, 375.891 619.275, 371.635 615.927 C 369.664 614.377, 369 612.951, 369 610.273 C 369 605.712, 373.978 600.744, 384.265 595.039 C 388.244 592.832, 391.050 591.032, 390.500 591.040 C 389.950 591.047, 386.923 592.451, 383.774 594.160 M 707 596.688 C 708.375 597.648, 711.413 600.302, 713.750 602.585 C 716.087 604.869, 718 606.440, 718 606.077 C 718 604.912, 709.588 597.274, 707 596.088 L 704.500 594.942 707 596.688 M 414 600.046 C 412.880 600.804, 413.178 600.904, 415.178 600.440 C 417.442 599.915, 418.098 600.289, 419.428 602.860 C 421.870 607.584, 421.333 609.237, 416.224 612.725 C 410.609 616.559, 406 620.471, 406 621.403 C 406 621.771, 408.712 619.816, 412.027 617.057 C 415.342 614.299, 418.942 611.566, 420.027 610.986 C 422.393 609.720, 422.516 607.479, 420.487 602.622 C 418.941 598.923, 416.873 598.102, 414 600.046 M 667.323 603.478 C 666.190 605.940, 665.661 607.710, 666.147 607.409 C 666.633 607.109, 667.676 605.319, 668.464 603.432 C 669.253 601.544, 670.300 600, 670.792 600 C 671.575 600, 678.523 602.303, 684.500 604.544 C 685.865 605.056, 686.182 604.967, 685.500 604.264 C 684.330 603.058, 673.055 599, 670.875 599 C 670.054 599, 668.456 601.015, 667.323 603.478 M 405.134 602.632 C 399.971 604.884, 401.967 605.206, 407.559 603.023 C 410.277 601.962, 411.600 601.109, 410.500 601.128 C 409.400 601.147, 406.985 601.824, 405.134 602.632 M 692 607.262 C 692.656 607.940, 702.070 614.992, 704 616.251 C 704.825 616.790, 703.700 615.585, 701.500 613.573 C 698.367 610.708, 689.875 605.067, 692 607.262 M 666 609.288 C 666 609.573, 668.362 611.377, 671.250 613.297 C 678.789 618.311, 689.892 628.766, 693.179 633.946 C 696.587 639.316, 696.740 642.528, 693.750 645.936 L 691.500 648.500 694.250 646.076 C 696.059 644.481, 697 642.660, 697 640.756 C 697 635.445, 688.748 625.524, 676.500 616.108 C 670.520 611.511, 666 608.575, 666 609.288 M 712.661 617.130 C 711.649 617.718, 709.737 617.992, 708.411 617.738 C 707.085 617.485, 706 617.665, 706 618.139 C 706 619.555, 712.349 619.051, 714.441 617.468 C 716.673 615.780, 715.400 615.538, 712.661 617.130 M 428.500 625.368 C 422.378 628.957, 418.057 632.267, 414.427 636.147 C 409.774 641.120, 406.523 646, 407.863 646 C 408.363 646, 409.470 644.538, 410.323 642.750 C 411.176 640.962, 413.590 637.859, 415.687 635.853 C 419.605 632.106, 430.176 625, 431.833 625 C 432.344 625, 434.031 626.688, 435.581 628.750 C 442.217 637.581, 461.759 655.971, 467 658.317 C 467.825 658.686, 471.376 660.802, 474.892 663.019 C 478.407 665.236, 481.468 666.866, 481.693 666.640 C 482.157 666.176, 467.178 657, 465.957 657 C 465.522 657, 465.017 656.663, 464.833 656.250 C 464.650 655.837, 462.700 654.169, 460.500 652.542 C 454.155 647.849, 445.254 639.111, 438.812 631.250 C 432.710 623.803, 431.930 623.358, 428.500 625.368 M 650.327 629.750 C 647.672 632.913, 644.824 636.175, 643.998 637 C 643.172 637.825, 641.872 639.400, 641.109 640.500 C 639.372 643.003, 646.064 636.150, 651.807 629.544 C 655.834 624.911, 656.256 624.680, 658.307 625.979 C 659.513 626.743, 661.678 627.963, 663.117 628.691 C 667.268 630.789, 674.669 637.718, 677.098 641.779 C 680.881 648.105, 683.076 650, 686.615 650 C 688.412 650, 690.156 649.557, 690.491 649.015 C 690.868 648.405, 689.944 648.261, 688.061 648.638 C 684.165 649.417, 681.105 647.409, 678.509 642.367 C 676.349 638.172, 669.043 630.842, 665.013 628.828 C 663.631 628.137, 661.306 626.768, 659.846 625.786 C 658.386 624.804, 656.733 624, 656.173 624 C 655.613 624, 652.982 626.587, 650.327 629.750 M 392.625 635.979 C 390.353 641.659, 390.561 643.171, 394.119 646.810 C 396.531 649.278, 398.088 650, 400.996 650 C 403.285 650, 405.292 649.349, 406.128 648.336 C 407.368 646.832, 407.290 646.784, 405.316 647.836 C 401.617 649.807, 398.049 649.203, 394.923 646.077 C 391.568 642.722, 391.360 641.152, 393.631 636.365 C 394.528 634.475, 395.034 632.701, 394.756 632.423 C 394.478 632.145, 393.519 633.745, 392.625 635.979 M 630.321 649.790 C 625.823 653.523, 619.186 658.307, 615.571 660.421 C 608.699 664.440, 606.659 666.256, 612.250 663.379 C 617.843 660.500, 629.286 652.384, 634.500 647.598 C 641.801 640.897, 639.727 641.985, 630.321 649.790 M 519.500 680.020 C 521.409 680.821, 533.784 681.392, 532.917 680.638 C 532.688 680.439, 529.125 680.030, 525 679.728 C 520.568 679.405, 518.318 679.524, 519.500 680.020 M 560 680 L 554.500 680.674 560 680.767 C 563.025 680.818, 566.400 680.473, 567.500 680 L 569.500 679.141 567.500 679.233 C 566.400 679.284, 563.025 679.629, 560 680 M 538.750 681.737 C 541.638 681.939, 546.362 681.939, 549.250 681.737 C 552.138 681.535, 549.775 681.370, 544 681.370 C 538.225 681.370, 535.862 681.535, 538.750 681.737" stroke="none" fill="#89c4fe" fill-rule="evenodd"/><path d="M 532 421 C 528.664 421.409, 533.779 421.680, 545 421.690 C 557.737 421.701, 561.631 421.474, 557.500 420.962 C 550.273 420.065, 539.498 420.081, 532 421 M 515 423.867 C 510.875 424.769, 507.050 425.764, 506.500 426.077 C 505.950 426.390, 503.475 427.254, 501 427.997 C 498.525 428.740, 496.107 429.685, 495.628 430.096 C 494.316 431.222, 501.037 429.539, 505.015 427.746 C 506.932 426.882, 511.650 425.638, 515.500 424.982 C 519.350 424.326, 523.400 423.417, 524.500 422.962 L 526.500 422.135 524.500 422.181 C 523.400 422.206, 519.125 422.965, 515 423.867 M 564.264 422.592 C 564.685 423.016, 567.160 423.703, 569.764 424.118 C 578.725 425.549, 585.727 427.681, 597.250 432.484 C 598.212 432.886, 599 432.974, 599 432.680 C 599 431.909, 592.940 429, 591.333 429 C 590.585 429, 589.191 428.603, 588.236 428.117 C 584.763 426.350, 581.398 425.223, 576.500 424.189 C 567.885 422.369, 563.472 421.793, 564.264 422.592 M 423.362 432.188 C 420.056 435.677, 416.513 441.847, 417.341 442.674 C 417.609 442.943, 418.645 441.438, 419.643 439.331 C 420.640 437.224, 422.719 434.262, 424.263 432.750 C 426.787 430.277, 427.777 430, 434.100 430 C 437.967 430, 441.889 430.388, 442.816 430.861 C 444.907 431.931, 454.588 433.255, 453.681 432.347 C 452.531 431.198, 443.809 429.786, 435 429.323 L 426.500 428.877 423.362 432.188 M 645.272 429.811 C 644.597 430.240, 648.227 430.408, 653.340 430.184 L 662.635 429.777 665.388 433.049 C 666.902 434.848, 669.045 438.386, 670.152 440.910 C 671.258 443.435, 672.577 446.281, 673.082 447.236 C 673.587 448.191, 674.007 450.441, 674.015 452.236 C 674.024 454.031, 674.492 456.175, 675.057 457 C 676.816 459.573, 674.946 448.920, 672.873 444.562 C 671.843 442.396, 671 440.097, 671 439.453 C 671 438.809, 669.162 436.193, 666.915 433.641 L 662.830 429 654.665 429.015 C 650.174 429.024, 645.948 429.382, 645.272 429.811 M 534 439 C 532.995 439.649, 536.957 439.933, 546 439.860 C 556.109 439.777, 558.370 439.549, 555 438.949 C 548.636 437.817, 535.783 437.848, 534 439 M 510 443.519 C 499.712 446.584, 482.501 455.021, 478.017 459.199 C 476.954 460.189, 475.660 461, 475.142 461 C 473.603 461, 454.722 480.011, 449.817 486.500 C 444.658 493.325, 438.513 503.846, 439.253 504.586 C 439.525 504.858, 440.975 502.700, 442.475 499.791 C 448.677 487.760, 462.852 471.827, 476.030 462.073 C 485.776 454.860, 507.836 444.032, 512.883 443.985 C 513.773 443.976, 515.175 443.533, 516 443 C 517.333 442.138, 517.333 442.039, 516 442.105 C 515.175 442.145, 512.475 442.782, 510 443.519 M 583.429 445.944 C 585.589 447.075, 587.787 448, 588.313 448 C 591.752 448, 613.477 460.964, 619.250 466.462 C 620.763 467.902, 622 468.730, 622 468.302 C 622 467.062, 612.719 459, 611.292 459 C 610.581 459, 610 458.633, 610 458.186 C 610 457.284, 604.874 454.381, 592.250 448.134 C 590.084 447.062, 584.180 444.988, 581.500 444.358 C 580.400 444.099, 581.268 444.813, 583.429 445.944 M 644 448.435 C 635.861 449.992, 632 451.560, 632 453.309 C 632 454.056, 634.813 457.554, 638.250 461.083 C 645.969 469.008, 648.304 471.943, 652.779 479.348 C 655.875 484.473, 658.144 487.029, 659.080 486.451 C 661.961 484.670, 657.929 450.060, 654.574 447.765 C 653.210 446.832, 651.967 446.911, 644 448.435 M 434.250 449.137 C 433.563 449.832, 433 451.183, 433 452.141 C 433 453.099, 432.550 454.160, 432 454.500 C 431.450 454.840, 431 457.724, 431 460.910 C 431 464.095, 430.523 468.069, 429.941 469.740 C 429.358 471.412, 429.021 474.966, 429.191 477.639 C 429.448 481.677, 429.722 480.721, 430.813 472 C 432.623 457.526, 433.900 451.324, 435.305 450.184 C 436.022 449.602, 438.300 449.537, 441 450.020 C 443.475 450.463, 447.300 451.152, 449.500 451.551 C 456.689 452.856, 456.601 453.540, 448.167 461.894 C 443.893 466.129, 438.215 473.092, 435.550 477.367 C 432.127 482.859, 430.459 484.753, 429.868 483.820 C 429.227 482.810, 429.027 482.897, 429.015 484.191 C 428.992 486.781, 430.459 487.112, 432.322 484.937 C 433.245 483.859, 434 482.726, 434 482.419 C 434 481.730, 439.673 473.439, 442.455 470.061 C 443.580 468.695, 447.360 464.821, 450.855 461.451 C 458.530 454.051, 458.635 452.265, 451.500 450.439 C 443.059 448.279, 435.653 447.720, 434.250 449.137 M 648.500 448.981 C 646.850 449.422, 642.688 450.374, 639.250 451.097 C 635.813 451.821, 633.006 452.657, 633.012 452.956 C 633.019 453.255, 636.732 457.364, 641.262 462.086 C 645.793 466.808, 651.075 473.427, 653 476.794 C 654.925 480.162, 657.056 483.144, 657.736 483.422 C 660.310 484.473, 656.710 452.765, 653.866 449.339 C 652.634 447.853, 652.706 447.858, 648.500 448.981 M 676.185 462.500 C 676.161 464.700, 676.527 467.400, 677 468.500 L 677.859 470.500 677.872 468.500 C 677.879 467.400, 677.512 464.700, 677.057 462.500 L 676.230 458.500 676.185 462.500 M 411.648 466.250 C 410.907 472.417, 410.767 547.567, 411.497 546.836 C 412.099 546.235, 413.289 461, 412.696 461 C 412.466 461, 411.995 463.363, 411.648 466.250 M 626.634 473.250 C 633.908 480.883, 636.026 483.429, 639.236 488.399 C 640.976 491.094, 642.590 492.730, 642.822 492.034 C 643.054 491.338, 642.830 490.483, 642.324 490.134 C 641.818 489.785, 640.308 487.925, 638.970 486 C 634.272 479.244, 625.056 469, 623.675 469 C 623.075 469, 624.406 470.913, 626.634 473.250 M 678.389 485.500 C 678.390 492.650, 678.550 495.444, 678.742 491.708 C 678.935 487.973, 678.934 482.123, 678.739 478.708 C 678.545 475.294, 678.387 478.350, 678.389 485.500 M 647.517 502.822 C 649.983 507.675, 652 512.310, 652 513.122 C 652 513.935, 652.374 515.027, 652.831 515.550 C 655.842 518.990, 658.400 540.281, 657.719 556.233 C 656.319 589.038, 641.338 616.109, 612.338 638.239 C 601.179 646.755, 582.043 655.416, 569 657.854 C 549.296 661.537, 546.129 661.656, 528.226 659.387 C 500.685 655.897, 480.592 645.582, 459.537 624.125 C 454.608 619.102, 450.146 614.206, 449.623 613.246 C 449.099 612.286, 448.386 611.275, 448.037 611 C 447.207 610.344, 441.719 601.037, 440.729 598.605 C 440.304 597.562, 439.671 596.995, 439.322 597.344 C 438.973 597.693, 440.108 600.263, 441.844 603.056 C 443.580 605.848, 445 608.358, 445 608.633 C 445 609.497, 450.325 616.376, 453.225 619.259 C 454.751 620.776, 456 622.199, 456 622.420 C 456 623.323, 470.700 637.277, 473.250 638.795 C 474.762 639.695, 476 640.784, 476 641.216 C 476 641.647, 476.481 642, 477.070 642 C 477.658 642, 480.102 643.350, 482.500 645 C 484.898 646.650, 487.342 648, 487.930 648 C 488.519 648, 489 648.450, 489 649 C 489 649.550, 489.430 650, 489.955 650 C 490.480 650, 493.743 651.295, 497.205 652.877 C 523.318 664.810, 562.306 665.155, 588.197 653.680 C 601.935 647.592, 605.924 645.363, 614.166 639.172 C 623.596 632.088, 632.538 623.421, 637.044 617 C 638.395 615.075, 639.770 613.275, 640.101 613 C 642.415 611.073, 653 591.306, 653 588.911 C 653 588.398, 653.840 586.071, 654.866 583.739 C 659.923 572.250, 661.331 548.966, 658.055 531 C 655.554 517.284, 655.404 516.826, 648.917 503.265 C 646.488 498.185, 644.170 494.023, 643.767 494.015 C 643.365 494.007, 645.052 497.970, 647.517 502.822 M 676.477 521.591 C 676.077 529.066, 676.143 537.504, 676.625 540.341 C 677.309 544.373, 677.559 541.404, 677.769 526.750 C 677.917 516.438, 677.851 508, 677.622 508 C 677.392 508, 676.877 514.116, 676.477 521.591 M 431.684 522.382 C 431.308 523.362, 431.045 525.589, 431.100 527.332 C 431.198 530.418, 431.225 530.398, 432.123 526.567 C 433.113 522.342, 432.809 519.448, 431.684 522.382 M 499.730 523.555 C 500.703 524.273, 501.642 524.467, 501.815 523.986 C 502.587 521.842, 508.436 526.209, 510.862 530.741 C 511.488 531.911, 512 535.101, 512 537.829 C 512 541.959, 511.498 543.325, 509 546 C 505.491 549.756, 505.251 550.471, 507.990 549.006 C 512.844 546.408, 514.720 536.226, 511.493 529.987 C 508.637 524.465, 505.518 522.219, 500.730 522.238 C 498.213 522.249, 498.122 522.369, 499.730 523.555 M 580.520 525.546 C 578.451 527.497, 577.011 529.344, 577.318 529.651 C 577.625 529.959, 579.276 528.616, 580.986 526.668 C 582.697 524.720, 585.087 522.934, 586.298 522.699 C 588.433 522.285, 588.436 522.268, 586.390 522.136 C 585.209 522.060, 582.623 523.562, 580.520 525.546 M 590.335 522.772 C 589.466 523.325, 589.532 524.148, 590.593 526.007 L 592.016 528.500 591.400 525.750 C 590.676 522.522, 591.431 522.354, 595.500 524.841 C 598.323 526.566, 599.249 527.909, 601.812 534 C 602.596 535.863, 602.882 536.041, 602.932 534.700 C 603.041 531.800, 600.258 527.299, 596.657 524.552 C 593.107 521.844, 592.196 521.588, 590.335 522.772 M 490.142 525.078 C 488.453 526.891, 488.286 527.665, 489.209 529.391 C 490.357 531.535, 491.580 530.228, 490.746 527.750 C 490.514 527.063, 491.038 525.974, 491.911 525.332 C 492.783 524.689, 493.205 523.872, 492.849 523.516 C 492.493 523.159, 491.275 523.862, 490.142 525.078 M 486.667 529.667 C 486.300 530.033, 486 533.043, 486 536.355 C 486 540.929, 486.532 543.152, 488.212 545.604 C 491.736 550.748, 499.905 553.613, 503.875 551.098 C 504.756 550.540, 503.470 550.254, 500.294 550.302 C 491.081 550.441, 486.250 544.556, 487.292 534.464 C 487.869 528.871, 487.822 528.511, 486.667 529.667 M 499.431 531.076 C 498.056 532.595, 496.648 533.061, 494.270 532.783 C 492.472 532.573, 491 532.761, 491 533.201 C 491 534.964, 498.703 533.985, 500.506 531.994 C 501.504 530.890, 502.096 529.763, 501.821 529.488 C 501.546 529.213, 500.470 529.928, 499.431 531.076 M 601.461 540.786 C 601.023 542.772, 599.312 545.246, 597.140 547.036 C 593.196 550.287, 594.198 551.205, 598.230 548.034 C 601.027 545.833, 603.467 540.786, 602.694 538.801 C 602.415 538.085, 601.860 538.979, 601.461 540.786 M 363.750 545.694 C 362.238 546.667, 361 547.879, 361 548.387 C 361 548.894, 361.948 548.453, 363.107 547.405 C 366.610 544.239, 378.763 545.163, 392.883 549.668 C 395.294 550.437, 397.474 550.860, 397.727 550.606 C 398.774 549.559, 381.298 545.267, 372.874 544.503 C 367.781 544.040, 365.947 544.280, 363.750 545.694 M 713 544.660 C 705.668 545.796, 690.663 549.996, 691.379 550.713 C 691.649 550.983, 694.037 550.534, 696.685 549.716 C 710.573 545.423, 724.200 544.163, 726.045 547 C 726.582 547.825, 726.807 550.300, 726.546 552.500 C 726.176 555.615, 726.262 555.947, 726.936 554 C 728.336 549.953, 728.122 548.122, 726 546 C 724.041 544.041, 719.810 543.605, 713 544.660 M 428.328 551.500 C 428.333 555.350, 428.513 556.802, 428.730 554.728 C 428.946 552.653, 428.943 549.503, 428.722 547.728 C 428.501 545.952, 428.324 547.650, 428.328 551.500 M 678.304 551.491 C 678.517 554.739, 681.303 556.126, 683.356 554.007 C 684.227 553.109, 683.917 552.907, 682.055 553.164 C 680.168 553.423, 679.439 552.930, 678.859 551 C 678.156 548.659, 678.120 548.691, 678.304 551.491 M 536.174 553.314 C 533.280 556.395, 533.426 558.254, 537.062 564.608 C 539.310 568.537, 540.040 570.961, 539.812 573.729 L 539.500 577.500 525.838 577.778 L 512.176 578.055 511.088 581.177 C 509.554 585.577, 509.706 586.648, 512.189 588.961 C 513.616 590.291, 515.615 590.960, 517.939 590.885 L 521.500 590.770 517.682 590.031 C 512.165 588.964, 510.448 586.916, 511.626 582.804 L 512.572 579.500 525.471 579.219 C 533.513 579.043, 538.906 578.493, 539.792 577.758 C 541.989 575.934, 540.807 567.818, 537.649 563.046 C 534.347 558.056, 534.330 556.351, 537.552 553.365 C 538.955 552.064, 539.708 551, 539.226 551 C 538.743 551, 537.370 552.042, 536.174 553.314 M 550.533 553.037 C 551.547 554.157, 552.453 556.069, 552.546 557.287 C 552.741 559.849, 551.068 564, 549.839 564 C 549.378 564, 549.052 565.913, 549.115 568.250 L 549.230 572.500 549.974 569 C 550.383 567.075, 551.454 564.150, 552.353 562.500 C 553.252 560.850, 553.990 558.588, 553.994 557.473 C 554.001 555.075, 551.354 551, 549.788 551 C 549.184 551, 549.519 551.917, 550.533 553.037 M 691.598 564.719 C 690.551 564.986, 688.175 566.059, 686.317 567.103 C 684.459 568.146, 682.165 569.014, 681.220 569.032 C 678.861 569.075, 676.711 570.968, 675.238 574.297 C 673.857 577.417, 673.567 584.614, 674.791 585.371 C 675.226 585.640, 675.406 584.348, 675.190 582.501 C 674.598 577.434, 676.740 572.053, 679.850 570.792 C 681.307 570.200, 684.408 568.880, 686.739 567.858 C 689.071 566.836, 691.546 565.993, 692.239 565.985 C 692.933 565.976, 694.175 565.533, 695 565 C 696.333 564.138, 696.333 564.042, 695 564.131 C 694.175 564.187, 692.644 564.451, 691.598 564.719 M 400 566.359 C 400 567.206, 406.214 570, 408.097 570 C 409.081 570, 410.587 571, 411.443 572.223 C 412.299 573.445, 413 573.863, 413 573.151 C 413 571.065, 410.341 569, 407.655 569 C 406.286 569, 405.017 568.609, 404.833 568.132 C 404.471 567.190, 400 565.550, 400 566.359 M 549.797 578.179 C 550.183 578.552, 556.666 579.002, 564.203 579.179 C 571.739 579.355, 577.589 579.187, 577.203 578.805 C 576.816 578.423, 570.333 577.973, 562.797 577.805 C 555.260 577.637, 549.410 577.805, 549.797 578.179 M 435.068 588.300 C 434.989 590.389, 437.909 596.424, 438.643 595.690 C 438.916 595.418, 438.704 594.363, 438.172 593.347 C 437.641 592.331, 436.740 590.375, 436.171 589 C 435.403 587.146, 435.118 586.965, 435.068 588.300 M 567.500 590 L 559.500 590.633 567.691 590.817 C 572.283 590.919, 576.154 590.561, 576.500 590 C 576.840 589.450, 576.754 589.083, 576.309 589.183 C 575.864 589.284, 571.900 589.652, 567.500 590 M 668.203 598.197 C 667.541 598.859, 667 599.792, 667 600.271 C 667 600.751, 667.672 600.471, 668.493 599.650 C 670.141 598.002, 673.252 598.556, 682.250 602.100 C 684.862 603.129, 687 603.527, 687 602.985 C 687 602.443, 686.190 602, 685.200 602 C 684.210 602, 682.972 601.628, 682.450 601.174 C 681.612 600.445, 678.057 599.268, 671.453 597.532 C 670.327 597.236, 668.865 597.535, 668.203 598.197 M 374.655 602.073 C 372.095 604.326, 370 606.537, 370 606.985 C 370 607.433, 371.462 606.348, 373.250 604.574 C 375.038 602.800, 377.396 600.853, 378.492 600.249 C 379.587 599.645, 380.219 598.886, 379.896 598.563 C 379.573 598.240, 377.215 599.819, 374.655 602.073 M 410 599.205 C 408.625 599.793, 405.592 601.112, 403.261 602.137 C 400.929 603.162, 398.679 604.010, 398.261 604.022 C 397.842 604.034, 396.375 604.960, 395 606.079 C 392.627 608.010, 392.724 608.003, 396.933 605.943 C 404.255 602.358, 413.868 599, 416.807 599 C 419.168 599, 419.812 599.656, 421.245 603.522 C 422.795 607.706, 422.734 611, 421.105 611 C 420.731 611, 418.866 612.380, 416.962 614.067 L 413.500 617.134 418.058 614.151 C 425.199 609.478, 425.350 609.095, 422.395 603.166 C 419.982 598.323, 419.592 598.004, 416.161 598.068 C 414.147 598.105, 411.375 598.617, 410 599.205 M 707 598.932 C 707 599.519, 707.411 600, 707.914 600 C 708.417 600, 710.450 601.575, 712.432 603.500 C 716.609 607.556, 718.510 608.244, 714.924 604.402 C 711.556 600.793, 707 597.648, 707 598.932 M 385.879 612.085 L 381.500 616.170 386.500 612.370 C 389.250 610.280, 391.688 608.442, 391.917 608.285 C 392.146 608.128, 391.866 608, 391.295 608 C 390.724 608, 388.287 609.838, 385.879 612.085 M 699.038 610.902 C 700.942 612.499, 702.660 613.651, 702.856 613.463 C 703.488 612.857, 698.134 608, 696.833 608 C 696.142 608, 697.134 609.306, 699.038 610.902 M 373.584 617.136 C 373.878 617.611, 375.415 618, 377 618 C 378.585 618, 380.122 617.611, 380.416 617.136 C 380.709 616.661, 379.172 616.273, 377 616.273 C 374.828 616.273, 373.291 616.661, 373.584 617.136 M 404.150 624.541 C 399.700 628.739, 395.371 633.554, 394.530 635.241 C 392.584 639.141, 392.571 643.714, 394.500 645.643 C 395.325 646.468, 396 646.687, 396 646.130 C 396 645.574, 395.550 644.840, 395 644.500 C 393.131 643.345, 393.991 638.406, 396.838 633.946 C 399.432 629.882, 405.155 624.171, 411.047 619.766 C 412.323 618.813, 413.113 617.780, 412.803 617.470 C 412.494 617.161, 408.600 620.342, 404.150 624.541 M 680 621.369 C 680 621.982, 687.951 629.937, 690.861 632.236 C 691.741 632.931, 691.353 632.150, 689.998 630.500 C 687.122 626.996, 680 620.492, 680 621.369 M 648.918 629.250 C 645.459 633.237, 640.350 638.974, 637.565 641.997 L 632.500 647.495 637.346 642.997 C 640.012 640.524, 644.878 635.237, 648.160 631.250 C 651.708 626.941, 654.890 624, 656.007 624 C 657.040 624, 659.506 624.956, 661.486 626.124 C 663.465 627.292, 665.307 628.026, 665.578 627.755 C 665.850 627.484, 664.500 626.516, 662.578 625.604 C 660.657 624.692, 658.814 623.509, 658.483 622.973 C 657.169 620.846, 654.937 622.310, 648.918 629.250 M 426.500 624.669 C 420.308 627.949, 411.182 636.114, 408.806 640.500 C 408.211 641.600, 409.634 640.351, 411.970 637.724 C 415.970 633.225, 422.540 628.069, 427.864 625.251 C 430.703 623.749, 434 623.614, 434 625 C 434 625.550, 434.505 626, 435.122 626 C 435.898 626, 435.860 625.536, 435 624.500 C 433.413 622.587, 430.314 622.649, 426.500 624.669 M 437.615 629.250 C 444.484 637.119, 448 640.877, 448 640.347 C 448 639.286, 437.541 627.121, 436.576 627.059 C 436.067 627.027, 436.535 628.013, 437.615 629.250 M 667.500 629.968 C 670.454 631.211, 677.483 638.914, 679.849 643.500 C 680.983 645.700, 681.931 646.963, 681.956 646.307 C 682.098 642.468, 670.428 628.930, 667.091 629.063 C 665.921 629.110, 666.029 629.349, 667.500 629.968 M 452.028 644.533 C 455.789 649.065, 479 665.068, 479 663.129 C 479 662.634, 477.487 661.510, 475.638 660.632 C 473.789 659.755, 471.708 658.354, 471.015 657.518 C 470.322 656.683, 469.383 656, 468.928 656 C 467.586 656, 459.801 650.431, 455.748 646.572 C 451.949 642.956, 449.692 641.719, 452.028 644.533 M 622.500 653.956 C 620.300 655.538, 616.250 658.212, 613.500 659.897 C 610.750 661.583, 609.005 662.971, 609.622 662.981 C 610.999 663.004, 625.497 653.622, 626.439 652.098 C 627.408 650.531, 626.984 650.731, 622.500 653.956 M 523 679 C 524.375 679.440, 527.300 679.801, 529.500 679.801 C 532.918 679.801, 533.136 679.684, 531 679 C 529.625 678.560, 526.700 678.199, 524.500 678.199 C 521.082 678.199, 520.864 678.316, 523 679 M 557 679 L 553.500 679.737 557.500 679.769 C 559.700 679.786, 562.625 679.440, 564 679 C 566.423 678.224, 566.407 678.200, 563.500 678.231 C 561.850 678.249, 558.925 678.595, 557 679" stroke="none" fill="#112a54" fill-rule="evenodd"/><path d="M 0 540.001 L 0 1080.002 540.250 1079.751 L 1080.500 1079.500 1080.751 539.750 L 1081.002 -0 540.501 -0 L 0 0 0 540.001 M 0.496 540.500 C 0.496 837.500, 0.610 958.851, 0.750 810.168 C 0.890 661.485, 0.890 418.485, 0.750 270.168 C 0.610 121.851, 0.496 243.500, 0.496 540.500 M 529.987 419.346 C 529.707 419.626, 525.255 420.588, 520.093 421.484 C 507.644 423.644, 495.431 427.753, 482.707 434.064 C 478.794 436.005, 477.015 435.897, 465 432.995 C 463.075 432.530, 458.800 431.632, 455.500 431 C 452.200 430.368, 447.924 429.399, 445.997 428.847 C 444.070 428.295, 438.816 427.766, 434.322 427.671 C 426.507 427.507, 426.012 427.631, 422.982 430.500 C 417.778 435.427, 414.062 444.277, 411.089 458.826 C 410.401 462.190, 410 480.338, 410 508.076 C 410 551.432, 409.974 552, 407.986 552 C 406.879 552, 405.191 551.571, 404.236 551.047 C 397.475 547.337, 371.888 541.409, 367.233 542.474 C 360.665 543.976, 357.207 550.614, 360.430 555.533 C 362.320 558.418, 365.443 559.920, 372 561.099 C 374.475 561.544, 378.750 562.399, 381.500 562.999 C 384.250 563.599, 387.743 564.346, 389.262 564.660 C 390.781 564.974, 392.271 565.629, 392.571 566.115 C 392.872 566.602, 393.868 567, 394.784 567 C 395.701 567, 399.497 568.195, 403.221 569.656 C 409.330 572.053, 410.090 572.664, 410.991 575.906 C 412.345 580.782, 412.254 583.991, 410.750 584.413 C 410.063 584.606, 407.475 585.328, 405 586.017 C 396.080 588.501, 393.382 589.520, 385.952 593.212 C 376.825 597.747, 370.236 603.192, 368.317 607.784 C 367.045 610.829, 367.077 611.471, 368.622 613.845 C 373.055 620.658, 377.822 620.807, 386.348 614.398 C 389.715 611.866, 394.502 608.772, 396.985 607.522 C 401.668 605.163, 415.431 600, 417.034 600 C 418.239 600, 421.007 605.409, 420.974 607.700 C 420.959 608.733, 418.746 610.991, 415.778 613 C 408.036 618.241, 394.285 631.977, 392.535 636.218 C 390.345 641.522, 390.597 643.209, 394.119 646.810 C 398.684 651.480, 403.390 651.293, 407.750 646.267 C 409.538 644.207, 411 642.048, 411 641.469 C 411 638.895, 428.577 625, 431.833 625 C 432.344 625, 434.031 626.688, 435.581 628.750 C 442.192 637.549, 461.650 655.871, 467 658.337 C 467.825 658.717, 470.975 660.594, 474 662.509 C 480.793 666.808, 493.431 673, 495.413 673 C 496.221 673, 497.160 673.450, 497.500 674 C 497.840 674.550, 499.190 675, 500.500 675 C 501.810 675, 503.160 675.450, 503.500 676 C 503.840 676.550, 505.415 677, 507 677 C 508.585 677, 510.131 677.402, 510.435 677.894 C 511.098 678.967, 515.483 679.631, 531.844 681.134 C 541.050 681.980, 547.151 681.980, 555.844 681.134 C 571.826 679.578, 575.920 678.938, 576.565 677.894 C 576.869 677.402, 578.415 677, 580 677 C 581.585 677, 583.160 676.550, 583.500 676 C 583.840 675.450, 584.998 675, 586.073 675 C 587.148 675, 588.809 674.603, 589.764 674.117 C 590.719 673.631, 592.625 672.794, 594 672.257 C 600.157 669.852, 616.135 661.282, 622.666 656.881 C 629.818 652.062, 643.853 638.927, 651.876 629.545 C 655.840 624.909, 656.255 624.679, 658.307 625.979 C 659.513 626.743, 661.678 627.963, 663.117 628.691 C 667.268 630.789, 674.669 637.718, 677.098 641.779 C 680.819 648.001, 683.093 650, 686.446 650 C 690.966 650, 697 644.773, 697 640.857 C 697 634.301, 684.354 620.763, 668.175 610 L 665.920 608.500 667.983 604.250 C 669.118 601.913, 670.488 600, 671.027 600 C 671.566 600, 676.487 601.657, 681.964 603.682 C 688.547 606.117, 694.222 609.075, 698.711 612.413 C 702.445 615.190, 705.650 617.808, 705.833 618.231 C 706.017 618.654, 707.659 619, 709.483 619 C 711.958 619, 713.714 618.086, 716.400 615.400 C 720.506 611.294, 720.501 611.311, 718.550 607.404 C 715.212 600.718, 701.522 591.469, 690 588.115 C 687.525 587.394, 684.719 586.399, 683.764 585.903 C 682.809 585.406, 681.176 585, 680.136 585 C 676.648 585, 675.707 582.617, 677.176 577.500 C 678.417 573.173, 678.875 572.727, 684.500 570.364 C 687.800 568.978, 691.400 567.616, 692.500 567.338 C 693.600 567.060, 695.400 566.472, 696.500 566.031 C 697.600 565.589, 700.300 564.762, 702.500 564.193 C 704.700 563.624, 708.352 562.673, 710.616 562.079 C 712.880 561.486, 716.116 561, 717.807 561 C 719.498 561, 721.160 560.550, 721.500 560 C 721.840 559.450, 722.826 559, 723.692 559 C 725.817 559, 728.737 555.474, 729.504 551.982 C 730.365 548.061, 727.686 544.286, 723.058 542.899 C 717.999 541.383, 705.113 543.974, 686.675 550.212 C 683.471 551.297, 680.546 551.878, 680.175 551.504 C 679.804 551.130, 679.626 532.976, 679.781 511.162 C 680.035 475.343, 679.870 470.386, 678.078 460 C 676.987 453.675, 674.995 445.800, 673.653 442.500 C 670.479 434.701, 664.932 428.263, 660.714 427.483 C 656.756 426.752, 645.467 428.301, 627.500 432.041 C 621.571 433.275, 611.912 435.077, 610.500 435.212 C 609.950 435.265, 607.362 434.339, 604.750 433.154 C 588.920 425.975, 582.117 423.619, 570.758 421.382 C 562.952 419.844, 531.081 418.253, 529.987 419.346 M 493.655 525.829 C 490.482 529.335, 492.288 532.522, 496.782 531.347 C 499.369 530.670, 501.263 526.663, 499.723 525.123 C 498.062 523.462, 495.530 523.757, 493.655 525.829 M 583.372 526.310 C 580.666 529.096, 581.353 531, 585.064 531 C 587.303 531, 588.101 530.445, 588.575 528.557 C 589.765 523.818, 586.968 522.610, 583.372 526.310" stroke="none" fill="transparent" fill-rule="evenodd"/></svg>