<?xml version="1.0" standalone="no"?>
<!DOCTYPE svg PUBLIC "-//W3C//DTD SVG 20010904//EN"
 "http://www.w3.org/TR/2001/REC-SVG-20010904/DTD/svg10.dtd">
<svg version="1.0" xmlns="http://www.w3.org/2000/svg"
 width="282.000000pt" height="245.000000pt" viewBox="0 0 282.000000 245.000000"
 preserveAspectRatio="xMidYMid meet">
<metadata>
Created by potrace 1.16, written by Peter Selinger 2001-2019
</metadata>
<g transform="translate(0.000000,245.000000) scale(0.100000,-0.100000)"
fill="#000000" stroke="none">
<path d="M1302 1834 c-34 -7 -95 -27 -136 -43 l-73 -29 -124 24 c-142 29 -158
26 -187 -33 -34 -67 -42 -137 -42 -370 0 -210 -1 -225 -17 -220 -69 22 -171
47 -193 47 -32 0 -50 -17 -50 -47 0 -28 16 -36 120 -58 109 -23 144 -43 148
-81 3 -29 0 -32 -30 -38 -49 -9 -139 -53 -170 -84 -30 -28 -35 -51 -16 -70 19
-19 46 -14 94 19 25 17 69 39 97 50 48 17 53 17 65 2 14 -20 16 -43 3 -43 -17
0 -133 -113 -142 -138 -7 -19 -5 -29 7 -43 27 -30 56 -23 86 21 15 22 45 51
68 66 l40 27 66 -71 c278 -302 738 -303 1027 -3 68 70 69 70 96 56 30 -15 77
-59 102 -95 12 -18 21 -22 41 -17 63 16 38 83 -59 161 -56 45 -60 51 -51 72 9
18 17 23 32 18 45 -13 107 -44 139 -68 41 -31 58 -32 82 -6 18 20 18 21 -2 48
-24 32 -102 78 -161 93 -50 13 -52 16 -45 51 4 21 16 30 62 47 31 11 84 27
119 35 69 16 92 30 92 55 0 25 -20 41 -50 41 -24 0 -155 -31 -194 -46 -15 -6
-16 14 -16 219 0 231 -8 303 -40 367 -31 61 -48 64 -190 37 l-124 -24 -67 28
c-133 57 -276 72 -407 43z m282 -114 c171 -44 304 -151 378 -306 37 -77 43
-98 43 -154 0 -119 -61 -251 -165 -356 -200 -202 -530 -250 -816 -119 -93 43
-184 227 -184 371 0 217 133 424 338 528 107 54 276 69 406 36z"/>
<path d="M1170 1317 c-54 -27 -61 -99 -13 -137 54 -43 118 -11 118 59 0 64
-54 104 -105 78z"/>
<path d="M1628 1310 c-50 -39 -44 -117 11 -140 75 -31 134 62 79 124 -33 35
-60 40 -90 16z"/>
<path d="M1397 1169 c-16 -9 -18 -19 -13 -54 8 -49 -5 -60 -60 -49 -29 5 -34
3 -34 -14 0 -11 7 -25 15 -32 20 -17 81 -15 108 3 20 13 26 13 42 1 26 -19 90
-18 110 2 24 25 13 39 -33 39 -53 0 -67 13 -51 48 22 48 -34 85 -84 56z"/>
</g>
</svg>
