<svg xmlns="http://www.w3.org/2000/svg" width="1080" height="1080" viewBox="0 0 1080 1080" version="1.1"><path d="M 525.582 422.867 C 525.287 423.344, 523.123 424.012, 520.773 424.351 C 511.549 425.683, 507.354 426.677, 504.092 428.304 C 502.222 429.237, 499.904 430, 498.941 430 C 497.977 430, 495.459 430.843, 493.345 431.873 C 480.329 438.212, 476.824 438.683, 465.356 435.634 C 461.976 434.735, 457.390 434, 455.165 434 C 452.939 434, 450.840 433.550, 450.500 433 C 450.160 432.450, 448.360 432, 446.500 432 C 444.640 432, 442.840 431.550, 442.500 431 C 442.160 430.450, 438.646 430.013, 434.691 430.029 C 428.144 430.056, 427.209 430.323, 424.250 433.015 C 422.462 434.641, 421 436.653, 421 437.486 C 421 438.319, 420.550 439, 420 439 C 419.450 439, 419 439.873, 419 440.941 C 419 442.009, 418.550 443.160, 418 443.500 C 417.450 443.840, 417 445.190, 417 446.500 C 417 447.810, 416.550 449.160, 416 449.500 C 415.450 449.840, 415 451.126, 415 452.359 C 415 453.592, 414.581 455.028, 414.069 455.550 C 413.531 456.099, 412.985 476.559, 412.777 504 C 412.579 530.125, 412.050 552.288, 411.601 553.250 C 410.756 555.064, 406.532 555.669, 405.571 554.114 C 405.269 553.627, 401.980 552.431, 398.262 551.456 C 394.543 550.481, 391.072 549.305, 390.550 548.842 C 390.028 548.379, 388.085 548, 386.234 548 C 384.383 548, 381.996 547.533, 380.929 546.962 C 379.863 546.391, 375.803 545.829, 371.907 545.712 C 365.535 545.521, 364.632 545.737, 362.912 547.861 C 357.998 553.928, 362.794 557.529, 379 559.942 C 385.774 560.951, 398.155 564.584, 403.438 567.114 C 405.604 568.151, 407.998 569, 408.759 569 C 411.345 569, 413 571.820, 413 576.229 C 413 578.633, 413.465 581.065, 414.033 581.633 C 415.669 583.269, 414.019 586, 411.393 586 C 410.077 586, 409 586.450, 409 587 C 409 587.550, 407.650 588, 406 588 C 404.350 588, 403 588.450, 403 589 C 403 589.550, 401.664 590, 400.030 590 C 398.397 590, 395.458 590.900, 393.500 592 C 391.542 593.100, 389.278 594, 388.470 594 C 387.661 594, 387 594.340, 387 594.756 C 387 595.172, 385.538 596.148, 383.750 596.926 C 381.962 597.703, 380.275 598.623, 380 598.968 C 379.725 599.314, 378.031 600.623, 376.235 601.877 C 371.475 605.202, 369.520 609.428, 371.043 613.103 C 372.232 615.973, 373.551 616.467, 378.854 616.025 C 380.906 615.855, 383.935 613.742, 388.568 609.250 C 389.277 608.563, 390.527 608, 391.345 608 C 392.164 608, 392.983 607.641, 393.167 607.203 C 393.549 606.288, 402.469 602, 403.989 602 C 404.545 602, 405 601.550, 405 601 C 405 600.450, 406.098 600, 407.441 600 C 408.784 600, 410.160 599.550, 410.500 599 C 410.840 598.450, 413.016 598, 415.337 598 C 419.842 598, 423 600.395, 423 603.811 C 423 604.795, 423.563 606.176, 424.250 606.880 C 425.256 607.910, 424.525 609.017, 420.500 612.559 C 417.750 614.979, 415.178 616.968, 414.784 616.979 C 413.840 617.007, 406.599 623.381, 401.265 628.880 C 391.689 638.752, 391.547 647, 400.954 647 C 404.346 647, 405.291 646.603, 405.710 645 C 405.998 643.900, 406.576 643, 406.995 643 C 407.414 643, 408.302 641.686, 408.967 640.081 C 410.853 635.526, 421.771 626.449, 428.607 623.751 L 432.713 622.131 439.607 629.780 C 451.363 642.826, 453.843 645.215, 454.927 644.545 C 455.563 644.152, 455.742 644.509, 455.382 645.448 C 455.054 646.302, 455.176 647, 455.653 647 C 456.130 647, 457.657 648.013, 459.046 649.250 C 463.150 652.905, 467.823 656, 469.239 656 C 469.965 656, 471.207 656.900, 472 658 C 472.793 659.100, 474.036 660, 474.763 660 C 475.489 660, 477.050 660.900, 478.230 662 C 479.411 663.100, 481.192 664, 482.189 664 C 483.185 664, 484 664.450, 484 665 C 484 665.550, 484.675 666, 485.500 666 C 486.325 666, 487 666.502, 487 667.117 C 487 667.731, 487.871 668.006, 488.935 667.727 C 490.054 667.435, 491.096 667.807, 491.404 668.611 C 491.697 669.375, 492.851 670, 493.969 670 C 495.086 670, 496 670.450, 496 671 C 496 671.550, 496.900 672, 498 672 C 499.100 672, 500 672.450, 500 673 C 500 673.550, 502.025 674, 504.500 674 C 506.975 674, 509 674.450, 509 675 C 509 675.550, 510.035 676, 511.300 676 C 512.565 676, 514.027 676.401, 514.550 676.891 C 515.072 677.381, 519.550 678.056, 524.500 678.390 C 529.450 678.724, 536.425 679.199, 540 679.445 C 543.575 679.690, 550.325 679.385, 555 678.765 C 559.675 678.146, 565.385 677.723, 567.688 677.825 C 569.991 677.926, 572.155 677.558, 572.497 677.005 C 572.839 676.452, 574.190 676, 575.500 676 C 576.810 676, 578.160 675.550, 578.500 675 C 578.840 674.450, 580.640 674, 582.500 674 C 584.360 674, 586.160 673.550, 586.500 673 C 586.840 672.450, 587.991 672, 589.059 672 C 590.127 672, 591 671.550, 591 671 C 591 670.450, 591.629 670, 592.398 670 C 593.168 670, 596.363 668.650, 599.500 667 C 602.637 665.350, 605.958 664, 606.881 664 C 607.804 664, 609.207 663.100, 610 662 C 610.793 660.900, 611.807 660, 612.253 660 C 613.626 660, 626.274 651.355, 630.806 647.318 C 639.129 639.905, 642.561 636.424, 648.374 629.498 C 651.604 625.649, 654.798 622.178, 655.472 621.785 C 656.150 621.389, 657.641 621.948, 658.807 623.035 C 659.967 624.116, 661.606 625, 662.450 625 C 663.293 625, 664.545 625.900, 665.232 627 C 665.919 628.100, 667.040 629, 667.723 629 C 669.726 629, 677.569 637.116, 680.287 642 C 682.556 646.078, 683.180 646.529, 686.937 646.810 C 690.272 647.058, 691.460 646.667, 693.008 644.810 C 694.067 643.539, 694.948 642.118, 694.967 641.651 C 695.065 639.150, 690.893 632.848, 685.930 628 C 677.686 619.949, 675.192 617.916, 667.805 613.234 C 666.322 612.295, 664.886 610.672, 664.613 609.627 C 663.581 605.683, 669.555 593.164, 670.753 596.759 C 670.981 597.442, 672.036 598, 673.099 598 C 675.850 598, 683 600.342, 683 601.243 C 683 601.660, 683.531 602, 684.180 602 C 686.090 602, 695 606.280, 695 607.197 C 695 607.660, 696.192 607.739, 697.649 607.373 C 699.483 606.913, 700.085 607.053, 699.605 607.829 C 699.221 608.452, 700.462 610.455, 702.395 612.333 C 705.029 614.890, 706.685 615.685, 709.189 615.595 C 713.479 615.440, 717 613.086, 717 610.373 C 717 608.110, 711.387 602.001, 706.750 599.219 C 705.237 598.311, 704 597.216, 704 596.784 C 704 596.353, 703.100 596, 702 596 C 700.900 596, 700 595.550, 700 595 C 700 594.450, 699.100 594, 698 594 C 696.900 594, 696 593.550, 696 593 C 696 592.450, 695.100 592, 694 592 C 692.900 592, 692 591.501, 692 590.891 C 692 590.212, 690.642 589.940, 688.500 590.190 C 686.086 590.472, 685 590.195, 685 589.299 C 685 588.580, 683.884 588, 682.500 588 C 681.125 588, 680 587.550, 680 587 C 680 586.450, 678.650 586, 677 586 C 674.063 586, 674 585.894, 674 580.950 C 674 574.338, 676.208 570.108, 680.064 569.337 C 681.702 569.010, 683.284 568.350, 683.580 567.871 C 683.876 567.392, 684.954 567, 685.976 567 C 686.997 567, 687.983 566.661, 688.167 566.248 C 688.654 565.148, 702.606 560.953, 709 559.984 C 722.906 557.877, 725.712 556.595, 726.235 552.114 C 726.883 546.565, 724.462 544.898, 716.764 545.593 C 713.319 545.904, 709.600 546.544, 708.500 547.017 C 707.400 547.489, 704.925 548.090, 703 548.351 C 699.773 548.789, 687.498 552.183, 684 553.605 C 682.781 554.100, 682.875 554.386, 684.500 555.128 C 686.215 555.911, 686.143 555.969, 684 555.534 C 682.625 555.255, 680.777 555.021, 679.892 555.014 C 677.411 554.993, 676.435 545.069, 676.942 525 C 677.723 494.030, 677.417 470.720, 676.141 464 C 675.461 460.425, 674.675 455.700, 674.394 453.500 C 673.631 447.538, 668.155 435.887, 664.406 432.250 C 661.401 429.335, 652.975 429.214, 641 431.914 C 616.794 437.373, 606.391 438.381, 604 435.500 C 603.315 434.675, 601.924 434, 600.908 434 C 599.892 434, 597.458 433.100, 595.500 432 C 593.542 430.900, 591.272 430, 590.456 430 C 589.640 430, 588.079 429.550, 586.986 429 C 585.894 428.450, 584.106 427.550, 583.014 427 C 581.921 426.450, 579.698 426, 578.073 426 C 576.448 426, 574.840 425.550, 574.500 425 C 574.160 424.450, 571.910 424, 569.500 424 C 567.090 424, 564.840 423.550, 564.500 423 C 563.732 421.757, 526.347 421.630, 525.582 422.867 M 532.709 438.625 C 532.365 438.968, 529.252 439.617, 525.792 440.067 C 515.102 441.455, 509.284 442.781, 504.393 444.944 C 501.807 446.088, 499.480 446.813, 499.222 446.555 C 498.964 446.297, 497.304 447.192, 495.532 448.543 C 493.761 449.894, 491.759 451, 491.084 451 C 490.409 451, 489.183 451.674, 488.359 452.498 C 487.534 453.323, 485.654 454.295, 484.180 454.658 C 482.706 455.022, 480.772 456.148, 479.883 457.160 C 478.993 458.172, 477.793 459, 477.216 459 C 476.639 459, 476.017 459.337, 475.833 459.750 C 474.917 461.811, 464.910 469.062, 463.869 468.419 C 463.135 467.965, 462.957 468.122, 463.397 468.834 C 463.801 469.487, 462.473 471.609, 460.302 473.782 C 455.802 478.285, 448.670 486.819, 448.093 488.391 C 447.870 489.001, 446.857 490.228, 445.843 491.117 C 444.830 492.007, 444 493.321, 444 494.039 C 444 494.756, 443.390 496.053, 442.646 496.921 C 441.901 497.790, 439.992 500.975, 438.403 504 C 436.815 507.025, 435.159 509.761, 434.724 510.080 C 434.288 510.399, 434.232 511.442, 434.599 512.397 C 435.199 513.962, 434.613 515.870, 431.883 521.236 C 431.397 522.191, 431 524.689, 431 526.786 C 431 528.884, 430.590 531.028, 430.088 531.550 C 428.450 533.257, 426.665 557.675, 428.113 558.570 C 428.601 558.871, 429 561.765, 429 565 C 429 568.235, 429.450 571.160, 430 571.500 C 430.550 571.840, 431 574.090, 431 576.500 C 431 578.910, 431.450 581.160, 432 581.500 C 432.550 581.840, 433 582.991, 433 584.059 C 433 585.127, 433.482 586, 434.072 586 C 434.661 586, 435.010 587.018, 434.847 588.263 C 434.516 590.785, 439.408 600.756, 444.603 608.146 C 446.471 610.804, 448.005 613.322, 448.011 613.740 C 448.017 614.158, 449.592 616.026, 451.511 617.890 C 453.430 619.755, 455 621.893, 455 622.640 C 455 623.388, 455.380 624, 455.845 624 C 456.309 624, 460.011 627.377, 464.070 631.504 C 468.130 635.632, 472.250 639.262, 473.226 639.572 C 474.202 639.881, 475 640.779, 475 641.567 C 475 642.355, 475.873 643, 476.941 643 C 478.009 643, 479.142 643.422, 479.461 643.937 C 479.779 644.452, 481.268 645.518, 482.770 646.307 C 498.340 654.482, 501.506 656, 502.985 656 C 503.924 656, 506.154 656.729, 507.940 657.620 C 512.869 660.079, 521.656 661.126, 542 661.679 C 554.069 662.007, 562.412 661.781, 566 661.027 C 574.159 659.314, 586.052 655.725, 586.621 654.805 C 586.894 654.362, 587.991 654, 589.059 654 C 590.127 654, 591 653.550, 591 653 C 591 652.450, 591.810 652, 592.801 652 C 595.035 652, 599.982 649.765, 599.992 648.750 C 599.996 648.337, 600.873 648, 601.941 648 C 603.009 648, 604.184 647.511, 604.554 646.913 C 604.923 646.315, 606.041 646.039, 607.038 646.300 C 608.176 646.597, 608.678 646.325, 608.387 645.566 C 608.129 644.893, 609.706 643.505, 611.950 642.429 C 614.165 641.368, 615.982 640.037, 615.989 639.471 C 615.995 638.905, 617.013 637.780, 618.250 636.971 C 621.224 635.026, 635 621.481, 635 620.501 C 635 620.079, 635.788 619.007, 636.752 618.117 C 639.089 615.960, 647 604.443, 647 603.198 C 647 602.657, 647.609 601.980, 648.352 601.695 C 649.593 601.219, 652.828 593.642, 653.372 589.939 C 653.498 589.080, 654.539 586.578, 655.686 584.378 C 658.326 579.312, 660.867 562.505, 660.945 549.590 C 661.003 539.998, 657.772 521.945, 654.754 515 C 654.157 513.625, 653.550 511.882, 653.405 511.127 C 652.866 508.320, 650.728 504, 649.879 504 C 649.395 504, 649 502.800, 649 501.333 C 649 499.867, 648.692 498.975, 648.316 499.351 C 647.939 499.727, 646.594 497.777, 645.326 495.018 C 644.057 492.258, 642.565 490, 642.010 490 C 641.454 490, 641 489.310, 641 488.466 C 641 487.623, 639.650 485.613, 638 484 C 636.350 482.387, 635 480.763, 635 480.392 C 635 479.098, 625.837 469, 624.663 469 C 624.013 469, 622.919 468.100, 622.232 467 C 621.545 465.900, 620.312 465, 619.492 465 C 618.671 465, 618 464.510, 618 463.910 C 618 462.426, 613.857 459.074, 611.971 459.033 C 611.130 459.015, 609.793 458.100, 609 457 C 608.207 455.900, 606.758 455, 605.779 455 C 604.801 455, 604 454.626, 604 454.169 C 604 453.712, 602.763 452.749, 601.250 452.029 C 593.496 448.337, 592 447.476, 592 446.705 C 592 446.243, 591.189 446.123, 590.198 446.437 C 589.206 446.752, 586.566 446.126, 584.330 445.045 C 577.125 441.564, 556.993 438, 544.536 438 C 538.375 438, 533.052 438.281, 532.709 438.625 M 434.584 448.562 C 433.713 449.199, 433 450.432, 433 451.301 C 433 452.171, 432.550 453.160, 432 453.500 C 431.450 453.840, 431 457.215, 431 461 C 431 464.785, 430.550 468.160, 430 468.500 C 429.450 468.840, 429 472.151, 429 475.859 C 429 479.567, 428.531 483.069, 427.958 483.642 C 427.234 484.366, 427.393 485.082, 428.476 485.980 C 429.774 487.058, 430.371 486.974, 432.019 485.483 C 433.108 484.497, 434 483.278, 434 482.775 C 434 480.227, 442.313 469.760, 450.750 461.685 C 458.073 454.676, 458.930 451.536, 453.750 450.685 C 451.962 450.392, 447.275 449.534, 443.334 448.778 C 437.868 447.730, 435.792 447.679, 434.584 448.562 M 641 448.564 C 639.075 449.293, 637.050 449.755, 636.500 449.590 C 635.950 449.425, 634.475 450.265, 633.223 451.456 L 630.945 453.621 637.723 460.648 C 645.996 469.226, 648.088 471.734, 649.919 475.264 C 650.699 476.769, 651.712 478, 652.169 478 C 652.626 478, 653 478.520, 653 479.156 C 653 480.706, 657.855 487, 659.051 487 C 661.403 487, 658.391 451.515, 655.762 448.250 C 654.461 446.635, 645.597 446.823, 641 448.564 M 502.179 527.108 C 502.112 532, 500.064 533.923, 494.875 533.968 C 491.781 533.995, 491.025 533.537, 489.717 530.836 L 488.185 527.672 487.478 533.334 C 486.259 543.087, 491.575 550.032, 500.210 549.968 C 504.462 549.937, 510 546.588, 510 544.048 C 510 543.472, 510.450 543, 511 543 C 512.420 543, 512.241 534.918, 510.750 531.707 C 510.063 530.227, 509.163 529.012, 508.750 529.008 C 508.337 529.004, 508 528.422, 508 527.716 C 508 527.009, 506.703 525.665, 505.118 524.729 L 502.235 523.026 502.179 527.108 M 591 523.972 C 591 524.473, 591.433 525.150, 591.962 525.477 C 593.133 526.200, 591.193 530.961, 589.012 532.718 C 586.709 534.574, 582.519 534.231, 580.521 532.024 C 578.060 529.303, 577 530.339, 577 535.465 C 577 540.812, 580.177 547.064, 583.752 548.751 C 591.065 552.202, 600.599 547.319, 601.124 539.852 C 601.617 532.833, 601.064 530.155, 598.985 529.495 C 597.877 529.144, 597.192 528.499, 597.462 528.062 C 598.034 527.137, 595.284 524.582, 592.750 523.683 C 591.788 523.342, 591 523.472, 591 523.972 M 538.500 553 C 538.160 553.550, 538.160 554.450, 538.500 555 C 538.840 555.550, 538.443 556, 537.618 556 C 535.174 556, 535.092 557.256, 537.240 561.803 C 539.770 567.161, 538.790 569.923, 533.462 572.451 C 529.516 574.324, 523.265 574.047, 521.965 571.943 C 521.459 571.124, 520.684 571.180, 519.134 572.148 C 515.873 574.185, 516.577 575.692, 522.280 578.884 C 526.150 581.050, 534 581.797, 534 580 C 534 579.450, 534.489 579, 535.087 579 C 535.684 579, 538.077 577.633, 540.404 575.961 C 544.659 572.906, 548 572.750, 548 575.607 C 548 576.373, 548.900 577, 550 577 C 551.100 577, 552 577.450, 552 578 C 552 578.550, 552.873 579, 553.941 579 C 555.009 579, 556.160 579.450, 556.500 580 C 556.840 580.550, 558.441 581, 560.059 581 C 561.677 581, 563 580.550, 563 580 C 563 579.450, 563.900 579, 565 579 C 566.111 579, 567 578.333, 567 577.500 C 567 576.675, 567.675 576, 568.500 576 C 570.355 576, 570.463 573.629, 568.676 572.146 C 567.754 571.381, 567.035 571.365, 566.305 572.095 C 565.729 572.671, 562.702 573.143, 559.579 573.143 C 554.573 573.143, 553.640 572.815, 551.700 570.377 C 548.723 566.633, 547.650 562.928, 549.779 563.746 C 550.928 564.186, 551.179 563.908, 550.717 562.706 C 550.371 561.803, 550.495 560.812, 550.993 560.505 C 552.276 559.711, 551.364 553.847, 549.803 552.857 C 547.960 551.688, 539.242 551.799, 538.500 553" stroke="none" fill="#021434" fill-rule="evenodd"/><path d="M 526.191 440.850 C 524.921 441.207, 533.117 441.500, 544.404 441.500 C 555.691 441.500, 564.155 441.194, 563.213 440.820 C 561.036 439.956, 529.273 439.982, 526.191 440.850 M 516 442.991 C 514.625 443.450, 512.209 444.111, 510.632 444.461 C 509.055 444.811, 507.986 445.319, 508.256 445.590 C 508.527 445.861, 512.068 445.191, 516.124 444.102 C 520.181 443.013, 522.375 442.130, 521 442.140 C 519.625 442.150, 517.375 442.533, 516 442.991 M 573 444.063 C 577.125 445.109, 580.950 445.804, 581.500 445.606 C 582.050 445.408, 581.150 444.946, 579.500 444.578 C 577.850 444.210, 574.873 443.480, 572.884 442.955 C 570.895 442.430, 568.420 442.036, 567.384 442.080 C 566.348 442.124, 568.875 443.016, 573 444.063 M 489 453.682 C 480.730 458.199, 470.022 466.211, 463.103 473.058 C 456.658 479.437, 446.588 491.942, 444.349 496.345 C 442.240 500.494, 442.667 500.021, 450.070 490 C 458.308 478.850, 465.777 471.101, 474.978 464.158 C 482.280 458.648, 484.287 457.361, 490.500 454.202 C 494.549 452.143, 497.666 449.985, 496.473 450.066 C 495.938 450.102, 492.575 451.730, 489 453.682 M 601 454.383 C 601 454.633, 602.688 455.855, 604.750 457.100 C 606.813 458.344, 611.093 461.306, 614.261 463.681 C 620.813 468.593, 622.673 469.380, 617.785 465.173 C 612.387 460.527, 601 453.207, 601 454.383 M 623.417 471.113 C 631.812 477.717, 645.174 498.207, 651.070 513.518 C 657.114 529.214, 657.064 537.711, 650.816 556.500 C 638.391 593.872, 610.145 620.860, 570.500 633.241 C 561.629 636.011, 555.045 637.340, 541.190 639.156 C 528.405 640.832, 505.464 638.328, 489 633.460 C 482.615 631.572, 465.425 625.273, 462.500 623.749 C 454.320 619.487, 443.839 605.076, 437.591 589.500 C 434.692 582.273, 433.155 576.866, 431.043 566.464 C 429.886 560.766, 430.064 543.567, 431.383 533.500 L 431.908 529.500 430.852 533.500 C 430.271 535.700, 429.580 542.728, 429.317 549.118 C 428.793 561.845, 431.226 577.359, 435.060 585.739 C 436.127 588.071, 437 590.387, 437 590.888 C 437 592.389, 446.580 609.841, 448.041 611 C 448.387 611.275, 449.099 612.286, 449.623 613.246 C 451.557 616.793, 468.743 633.441, 476.260 639.049 C 490.446 649.632, 508.521 657.010, 525.035 658.957 C 542.674 661.038, 548.749 661.274, 555.382 660.135 C 559.022 659.511, 565.038 658.491, 568.750 657.868 C 572.462 657.246, 575.950 656.425, 576.500 656.043 C 577.050 655.662, 579.525 654.770, 582 654.060 C 589.986 651.771, 606.096 643.091, 614.407 636.600 C 641.818 615.189, 656.354 588.217, 657.719 556.233 C 658.400 540.281, 655.842 518.990, 652.831 515.550 C 652.374 515.028, 652 513.935, 652 513.122 C 652 511.013, 643.618 494.798, 639.083 488.134 C 634.585 481.525, 623.246 469, 621.760 469 C 621.194 469, 621.939 469.951, 623.417 471.113 M 678.402 510 C 678.402 518.525, 678.556 522.013, 678.743 517.750 C 678.931 513.487, 678.931 506.512, 678.743 502.250 C 678.556 497.988, 678.402 501.475, 678.402 510 M 439.688 505.250 C 435.802 513.547, 433.127 521.163, 432.575 525.500 C 432.119 529.082, 432.205 528.978, 433.395 524.500 C 434.593 519.995, 436.503 515.044, 441.401 503.750 C 443.868 498.061, 442.490 499.267, 439.688 505.250 M 493.405 521.904 C 486.609 524.990, 482.911 533.241, 484.942 540.786 C 486.954 548.255, 492.772 553.004, 499.904 552.996 C 505.427 552.991, 512.949 547.795, 512.928 544 C 512.924 543.175, 512.250 543.735, 511.431 545.244 C 509.747 548.348, 503.338 552, 499.574 552 C 495.693 552, 490.649 549.160, 488.212 545.604 C 485.112 541.080, 485.131 532.310, 488.250 527.508 C 490.472 524.087, 493 522.205, 493 523.972 C 493 524.473, 492.550 525.160, 492 525.500 C 491.450 525.840, 491 526.642, 491 527.282 C 491 527.921, 491.784 527.332, 492.742 525.973 C 493.700 524.613, 494.408 523.259, 494.314 522.964 C 493.971 521.890, 503.257 522.067, 505.328 523.175 C 510.198 525.782, 513.281 531.596, 513.157 537.938 C 513.093 541.183, 513.342 542.067, 514.018 541 C 517.180 536.014, 511.843 525.195, 504.599 521.905 C 499.503 519.591, 498.497 519.591, 493.405 521.904 M 584.106 521.552 C 577.226 524.538, 573.832 531.961, 575.437 540.515 C 576.309 545.165, 580.977 550.351, 585.557 551.756 C 591.169 553.479, 598.887 550.324, 601.818 545.110 C 607.028 535.841, 602.179 523.811, 592.105 521.013 C 587.720 519.795, 588.233 519.760, 584.106 521.552 M 582.573 523.521 C 581.513 524.323, 580.887 525.220, 581.181 525.514 C 581.474 525.808, 582.284 525.362, 582.980 524.524 C 584.339 522.887, 588.542 522.450, 589.411 523.856 C 589.702 524.326, 588.805 524.494, 587.419 524.229 C 585.687 523.898, 584.081 524.491, 582.288 526.124 C 580.852 527.431, 580.038 527.879, 580.478 527.120 C 581.025 526.177, 580.839 525.885, 579.889 526.197 C 575.985 527.479, 575.155 540.254, 578.630 545.559 C 583.509 553.004, 596.239 552.578, 600.974 544.810 C 606.810 535.238, 599.771 521.953, 588.906 522.032 C 586.483 522.049, 583.633 522.720, 582.573 523.521 M 410.385 541 C 410.385 547.875, 410.545 550.688, 410.740 547.250 C 410.936 543.813, 410.936 538.188, 410.740 534.750 C 410.545 531.313, 410.385 534.125, 410.385 541 M 713.500 543.990 C 712.255 544.519, 713.577 544.628, 717 544.280 C 720.025 543.972, 722.688 543.558, 722.917 543.360 C 723.778 542.616, 715.416 543.176, 713.500 543.990 M 539 549.709 C 536.851 550.500, 534 553.134, 534 554.329 C 534 554.890, 535.161 554.258, 536.581 552.924 C 538.667 550.964, 540.216 550.500, 544.669 550.500 C 549.251 550.500, 550.498 550.897, 552.088 552.861 C 554.383 555.695, 554.503 558.512, 552.494 562.364 C 551.672 563.940, 551 565.774, 551 566.440 C 551 568.512, 555.507 572.004, 558.064 571.914 C 560.439 571.830, 560.432 571.808, 557.771 571.006 C 552.410 569.392, 550.796 566.175, 553.532 562.559 C 557.878 556.812, 552.696 548.927, 544.673 549.079 C 542.378 549.122, 539.825 549.406, 539 549.709 M 533.050 557.500 C 533.029 558.600, 533.685 560.789, 534.506 562.364 C 536.675 566.523, 536.383 567.796, 532.750 570.011 C 530.962 571.101, 530.175 571.984, 531 571.974 C 531.825 571.964, 533.577 571.128, 534.893 570.116 C 537.484 568.124, 537.452 566.853, 534.625 559.500 C 533.711 557.122, 533.072 556.311, 533.050 557.500 M 517.750 570.080 C 516.629 570.733, 516 572.315, 516 574.482 C 516 578.956, 519.814 581.697, 527.073 582.439 L 532.500 582.995 526.787 581.686 C 523.644 580.966, 520.157 579.547, 519.037 578.533 C 516.253 576.014, 516.366 571.612, 519.250 570.220 C 520.487 569.624, 521.050 569.119, 520.500 569.098 C 519.950 569.078, 518.712 569.519, 517.750 570.080 M 568.777 570.557 C 571.739 572.631, 571.584 575.555, 568.354 578.548 C 566.246 580.501, 564.644 581, 560.476 581 C 554.892 581, 549.161 579.104, 547.048 576.558 C 545.379 574.546, 543.592 574.581, 541.872 576.658 C 541.118 577.571, 538.700 579.136, 536.500 580.137 C 534.300 581.137, 533.220 581.966, 534.100 581.978 C 534.979 581.990, 537.632 580.702, 539.995 579.115 L 544.292 576.229 548.842 579.115 C 552.632 581.518, 554.457 582, 559.773 582 C 565.492 582, 566.457 581.697, 569.077 579.077 C 572.481 575.673, 572.930 571.568, 570.066 570.035 C 567.119 568.458, 566.271 568.801, 568.777 570.557 M 412.180 579.167 C 412.071 582.615, 411.511 585.031, 410.750 585.338 C 409.771 585.733, 409.778 585.859, 410.781 585.921 C 412.625 586.035, 413.172 583.925, 412.740 578.373 L 412.360 573.500 412.180 579.167 M 702 594.362 C 702 594.623, 703.688 595.878, 705.750 597.151 C 707.813 598.424, 711.300 600.988, 713.500 602.848 C 716.532 605.412, 716.384 605.175, 712.885 601.865 C 708.610 597.821, 702 593.265, 702 594.362 M 693.194 645.250 C 691.543 646.902, 689.774 647.500, 686.543 647.500 C 683.619 647.500, 682.649 647.784, 683.653 648.346 C 686.054 649.689, 691.469 648.194, 694.014 645.485 C 696.926 642.385, 696.252 642.192, 693.194 645.250 M 538.250 680.739 C 541.413 680.937, 546.587 680.937, 549.750 680.739 C 552.913 680.541, 550.325 680.378, 544 680.378 C 537.675 680.378, 535.087 680.541, 538.250 680.739" stroke="none" fill="#1467b9" fill-rule="evenodd"/><path d="M 539.324 356.250 C 534.421 360.749, 530 369.092, 530 373.847 C 530 379.388, 533.091 387.177, 536.824 391.041 C 542.028 396.427, 543.915 396.701, 548.794 392.774 C 555.884 387.069, 558.918 375.927, 555.841 366.899 C 553.844 361.040, 547.186 352.133, 544.728 352.032 C 544.303 352.014, 541.871 353.913, 539.324 356.250 M 595.400 382.871 C 588.103 388.243, 584.109 393.953, 584.883 397.904 C 585.244 399.744, 588.372 402.276, 594.348 405.564 C 600.102 408.730, 602.872 408.050, 605.635 402.793 C 607.957 398.378, 607.969 387.645, 605.658 383.250 C 603.490 379.128, 600.628 379.022, 595.400 382.871 M 480.882 386.381 C 476.140 388.075, 470.330 391.699, 469.693 393.358 C 468.215 397.208, 477.525 407.445, 483.527 408.571 C 485.880 409.013, 488.154 408.452, 492.114 406.455 C 498.591 403.188, 505 398.293, 505 396.612 C 505 394.612, 498.824 389.260, 494 387.079 C 488.803 384.729, 485.932 384.576, 480.882 386.381 M 644.500 450.026 C 638.695 451.198, 635 452.784, 635 454.104 C 635 454.738, 637.886 458.316, 641.412 462.054 C 644.939 465.793, 649.689 471.597, 651.967 474.951 C 654.355 478.467, 656.568 480.767, 657.193 480.381 C 659.439 478.993, 656.552 453.853, 653.733 450.250 C 652.652 448.869, 650.496 448.816, 644.500 450.026 M 435.238 451.250 C 433.039 453.980, 429.647 479.070, 431.328 480.167 C 431.891 480.535, 434.583 477.835, 437.311 474.167 C 440.040 470.500, 445.009 464.689, 448.354 461.253 C 455.376 454.041, 455.178 453.128, 446.174 451.163 C 439.339 449.671, 436.492 449.694, 435.238 451.250" stroke="none" fill="#fdbb03" fill-rule="evenodd"/><path d="M 540.750 421.723 C 542.538 421.945, 545.462 421.945, 547.250 421.723 C 549.038 421.502, 547.575 421.320, 544 421.320 C 540.425 421.320, 538.962 421.502, 540.750 421.723 M 554 439.051 C 556.475 439.491, 559.625 439.832, 561 439.808 C 563.266 439.768, 563.219 439.692, 560.500 439 C 558.850 438.580, 555.700 438.240, 553.500 438.243 L 549.500 438.250 554 439.051 M 643.068 447.937 C 642.173 448.503, 644.050 448.634, 648.068 448.286 C 651.605 447.980, 654.688 447.565, 654.917 447.365 C 655.852 446.546, 644.391 447.100, 643.068 447.937 M 412.237 502.096 C 412.107 520.024, 411.794 538.924, 411.543 544.096 C 411.087 553.470, 411.089 553.478, 412.055 546.594 C 412.589 542.796, 412.901 523.896, 412.749 504.594 L 412.474 469.500 412.237 502.096 M 437.937 505.005 C 436.597 507.735, 435.163 509.976, 434.750 509.984 C 433.587 510.009, 433.865 512, 435.031 512 C 435.599 512, 436.313 511.212, 436.619 510.250 C 436.926 509.288, 438.082 506.783, 439.189 504.684 C 440.296 502.586, 441.015 500.682, 440.788 500.454 C 440.560 500.227, 439.277 502.274, 437.937 505.005 M 658.628 534.500 C 658.996 537.250, 659.609 542.425, 659.991 546 L 660.685 552.500 660.827 545.500 C 660.908 541.538, 660.316 536.547, 659.465 534 L 657.959 529.500 658.628 534.500 M 487 541.537 C 487 543.373, 490.472 547.670, 492.825 548.745 C 495.270 549.862, 495.220 549.732, 492.241 547.233 C 490.449 545.730, 488.986 543.964, 488.991 543.309 C 488.996 542.654, 488.550 541.840, 488 541.500 C 487.450 541.160, 487 541.177, 487 541.537 M 427.739 544.250 C 426.995 546.204, 427.234 558.027, 428.027 558.517 C 428.417 558.758, 428.737 555.365, 428.737 550.978 C 428.737 542.913, 428.599 541.987, 427.739 544.250 M 537.174 553.314 C 534.507 556.154, 534.427 556.963, 536.875 556.322 C 537.906 556.053, 538.694 555.082, 538.625 554.166 C 538.526 552.842, 539.575 552.438, 543.739 552.198 C 548.402 551.929, 548.913 552.094, 548.394 553.698 C 547.924 555.152, 548.010 555.219, 548.840 554.048 C 550.453 551.769, 549.260 551, 544.115 551 C 540.426 551, 538.857 551.523, 537.174 553.314 M 551.430 556 C 551.638 557.925, 551.289 560.136, 550.654 560.913 C 549.744 562.027, 549.817 562.222, 551 561.836 C 552.844 561.234, 553.499 556.685, 552.089 554.276 C 551.262 552.861, 551.127 553.211, 551.430 556 M 658.740 564.814 C 657.773 571.037, 656.118 578.682, 655.064 581.805 C 654.010 584.927, 653.284 587.617, 653.450 587.784 C 653.617 587.950, 654.664 586.339, 655.777 584.203 C 657.868 580.191, 661.447 560.208, 660.842 555.924 C 660.654 554.591, 659.708 558.591, 658.740 564.814 M 548.835 565.298 C 549.558 567.813, 553.362 573, 554.483 573 C 554.865 573, 554.013 571.615, 552.589 569.923 C 551.165 568.231, 550 566.233, 550 565.482 C 550 564.732, 549.588 563.863, 549.085 563.552 C 548.564 563.231, 548.457 563.984, 548.835 565.298 M 651.990 590.250 C 651.985 590.938, 650.864 593.899, 649.499 596.830 C 648.050 599.942, 647.526 601.991, 648.239 601.754 C 648.910 601.530, 650.200 599.356, 651.103 596.923 C 652.007 594.491, 653.077 591.712, 653.480 590.750 C 653.922 589.695, 653.774 589, 653.107 589 C 652.498 589, 651.996 589.563, 651.990 590.250 M 623.500 631.612 C 620.750 634.106, 619.400 635.701, 620.500 635.156 C 622.360 634.234, 629.935 626.953, 628.946 627.038 C 628.701 627.060, 626.250 629.118, 623.500 631.612 M 466.462 633.854 C 469.192 636.684, 472.229 639.255, 473.212 639.567 C 474.196 639.879, 475 640.779, 475 641.567 C 475 642.355, 475.752 643, 476.671 643 C 477.590 643, 479.168 643.747, 480.177 644.661 C 481.187 645.574, 482.244 646.090, 482.526 645.807 C 482.809 645.524, 481.225 644.091, 479.006 642.622 C 476.786 641.154, 471.940 637.422, 468.235 634.330 L 461.500 628.708 466.462 633.854 M 616.088 637.394 C 615.430 638.187, 611.977 640.734, 608.416 643.055 C 604.854 645.375, 602.168 647.501, 602.446 647.779 C 602.724 648.057, 603.632 647.721, 604.463 647.031 C 605.294 646.341, 606.632 646.029, 607.436 646.337 C 608.349 646.687, 608.715 646.421, 608.411 645.629 C 608.123 644.878, 609.570 643.570, 611.950 642.429 C 614.165 641.368, 615.982 639.975, 615.989 639.333 C 615.995 638.692, 616.563 637.966, 617.250 637.720 C 617.938 637.475, 618.227 636.976, 617.893 636.613 C 617.558 636.249, 616.746 636.601, 616.088 637.394 M 582.134 655.632 C 580.283 656.439, 576.458 657.723, 573.634 658.484 C 570.810 659.246, 569.425 659.898, 570.556 659.934 C 572.940 660.011, 585.047 656.152, 586.450 654.869 C 587.836 653.601, 586.074 653.912, 582.134 655.632 M 524 660.981 C 526.469 661.791, 534.723 662.338, 533.917 661.639 C 533.688 661.440, 530.800 661.027, 527.500 660.720 C 523.773 660.373, 522.447 660.472, 524 660.981 M 559.500 661 L 555.500 661.716 559.500 661.788 C 561.700 661.827, 564.400 661.473, 565.500 661 L 567.500 660.141 565.500 660.212 C 564.400 660.252, 561.700 660.606, 559.500 661" stroke="none" fill="#092243" fill-rule="evenodd"/><path d="M 528 419.984 C 526.625 420.415, 529.550 420.533, 534.500 420.246 C 539.450 419.958, 543.688 419.560, 543.917 419.362 C 544.731 418.655, 530.457 419.213, 528 419.984 M 545.083 419.362 C 545.313 419.561, 550 419.967, 555.500 420.263 C 561.053 420.562, 564.166 420.453, 562.500 420.019 C 559.522 419.242, 544.285 418.668, 545.083 419.362 M 568 422 C 569.375 422.440, 571.850 422.792, 573.500 422.782 L 576.500 422.763 573.500 422 C 571.850 421.580, 569.375 421.228, 568 421.218 L 565.500 421.199 568 422 M 502.500 425.858 C 498.100 427.393, 492.925 429.349, 491 430.205 C 489.075 431.062, 485.776 432.530, 483.669 433.467 C 481.562 434.404, 480.037 435.371, 480.282 435.615 C 480.526 435.859, 484.050 434.526, 488.113 432.652 C 492.176 430.778, 498.650 428.234, 502.500 426.999 C 511.638 424.069, 513.892 423.144, 512 423.102 C 511.175 423.084, 506.900 424.324, 502.500 425.858 M 578 424 C 578.825 424.533, 580.227 424.976, 581.117 424.985 C 583.113 425.004, 592.235 428.529, 604.347 433.964 C 607.013 435.160, 609.368 435.966, 609.579 435.754 C 609.791 435.542, 608.060 434.541, 605.732 433.529 C 603.404 432.517, 599.250 430.691, 596.500 429.471 C 586.644 425.098, 573.840 421.312, 578 424 M 427 427.655 C 424.853 428.506, 420.007 433.149, 418.810 435.500 C 418.251 436.600, 419.195 435.846, 420.909 433.824 C 426.711 426.977, 431.806 426.875, 460.500 433.035 C 472.622 435.637, 475.255 436.078, 476.324 435.690 C 476.971 435.455, 475.250 434.937, 472.500 434.540 C 469.750 434.142, 466.150 433.435, 464.500 432.969 C 462.850 432.502, 458.800 431.616, 455.500 431 C 452.200 430.384, 448.150 429.488, 446.500 429.009 C 442.506 427.851, 428.891 426.905, 427 427.655 M 648 428.033 C 645.525 428.510, 641.025 429.373, 638 429.950 C 634.975 430.528, 630.250 431.468, 627.500 432.041 C 624.750 432.613, 620.096 433.480, 617.157 433.967 C 614.218 434.454, 611.518 435.153, 611.157 435.520 C 610.357 436.332, 619.520 435.179, 623 434.029 C 624.375 433.575, 628.875 432.662, 633 432 C 637.125 431.338, 641.625 430.415, 643 429.948 C 644.375 429.482, 648.875 428.814, 653 428.465 C 660.204 427.854, 660.661 427.946, 664.587 430.803 C 668.175 433.413, 673 440.942, 673 443.930 C 673 444.454, 673.435 445.151, 673.966 445.479 C 676.348 446.951, 671.089 436.222, 667.452 432.188 C 663.698 428.025, 663.006 427.679, 657.952 427.431 C 654.953 427.285, 650.475 427.555, 648 428.033 M 527 441.634 C 525.625 441.892, 520.900 443.003, 516.500 444.104 C 504.965 446.989, 498.818 449.542, 484.488 457.397 C 479.207 460.292, 466.433 470.816, 460.788 476.922 C 446.483 492.396, 435.860 511.751, 433.027 527.500 C 432.335 531.350, 431.370 535.805, 430.884 537.399 C 429.656 541.425, 429.775 561.121, 431.062 566.807 C 431.646 569.388, 432.590 573.525, 433.160 576 C 437.532 594.984, 451.773 618.160, 462.500 623.749 C 465.425 625.273, 482.615 631.572, 489 633.460 C 505.464 638.328, 528.405 640.832, 541.190 639.156 C 555.045 637.340, 561.629 636.011, 570.500 633.241 C 610.145 620.860, 638.391 593.872, 650.816 556.500 C 657.064 537.711, 657.114 529.214, 651.070 513.518 C 637.450 478.148, 610.371 453.818, 574 444.272 C 565.968 442.164, 561.795 441.731, 547 441.472 C 537.375 441.303, 528.375 441.376, 527 441.634 M 675.416 449.500 C 676.203 455.571, 678.131 465.464, 678.623 465.957 C 679.444 466.777, 677.804 455.986, 676.358 451.044 C 675.575 448.371, 675.188 447.735, 675.416 449.500 M 410.632 461.090 C 410.284 462.828, 410.091 478.931, 410.203 496.875 L 410.406 529.500 410.953 494 C 411.254 474.475, 411.447 458.372, 411.382 458.215 C 411.317 458.059, 410.980 459.352, 410.632 461.090 M 679.430 492 C 679.430 504.925, 679.573 510.212, 679.747 503.750 C 679.921 497.288, 679.921 486.712, 679.747 480.250 C 679.573 473.788, 679.430 479.075, 679.430 492 M 493.405 521.904 C 486.609 524.990, 482.911 533.241, 484.942 540.786 C 487.772 551.296, 497.969 555.956, 507.013 550.872 C 510.911 548.682, 511.957 547.195, 514.135 540.750 C 516.357 534.174, 511.805 525.178, 504.599 521.905 C 499.503 519.591, 498.497 519.591, 493.405 521.904 M 584.106 521.552 C 577.226 524.538, 573.832 531.961, 575.437 540.515 C 576.309 545.165, 580.977 550.351, 585.557 551.756 C 591.169 553.479, 598.887 550.324, 601.818 545.110 C 607.028 535.841, 602.179 523.811, 592.105 521.013 C 587.720 519.795, 588.233 519.760, 584.106 521.552 M 582.237 526.254 C 580.650 527.948, 580.374 528.930, 581.116 530.250 C 582.247 532.263, 586.997 532.603, 588.800 530.800 C 590.328 529.272, 590.356 525.338, 588.845 524.405 C 588.111 523.950, 587.963 524.132, 588.440 524.902 C 588.851 525.569, 588.912 527.213, 588.575 528.557 C 588.103 530.439, 587.302 531, 585.088 531 C 581.422 531, 580.395 528.537, 583.232 526.550 C 584.413 525.723, 585.146 524.812, 584.860 524.527 C 584.575 524.241, 583.394 525.019, 582.237 526.254 M 678.343 532.500 C 678.346 536.900, 678.522 538.576, 678.733 536.224 C 678.945 533.872, 678.942 530.272, 678.727 528.224 C 678.512 526.176, 678.339 528.100, 678.343 532.500 M 491.268 529.393 C 491.626 532.310, 494.388 533.611, 497.165 532.170 L 499.500 530.958 496.992 531.438 C 494.200 531.971, 492.614 531.245, 491.668 529 C 491.218 527.935, 491.103 528.048, 491.268 529.393 M 367.500 542.466 C 368.050 542.636, 371.200 543.297, 374.500 543.935 C 389.096 546.759, 397.428 548.991, 404.500 551.975 C 408.450 553.641, 410 553.921, 410 552.969 C 410 552.436, 409.094 552, 407.986 552 C 406.879 552, 405.191 551.571, 404.236 551.047 C 401.677 549.643, 391.237 546.341, 385.500 545.120 C 382.750 544.536, 378.388 543.594, 375.807 543.029 C 371.666 542.121, 364.895 541.663, 367.500 542.466 M 718.500 542.690 C 726.430 543.723, 730.138 547.876, 728.045 553.381 C 726.589 557.212, 726.802 557.971, 728.500 555 C 730.407 551.665, 730.321 548.951, 728.228 546.367 C 725.803 543.374, 722.682 541.975, 718.816 542.150 L 715.500 542.300 718.500 542.690 M 704 545.112 C 699.875 546.192, 694.925 547.546, 693 548.120 C 691.075 548.695, 688.257 549.404, 686.738 549.698 C 685.219 549.991, 683.729 550.629, 683.429 551.115 C 681.974 553.469, 680.093 551.756, 679.732 547.750 L 679.349 543.500 679.175 548.250 C 678.972 553.753, 679.040 553.775, 687.433 550.978 C 695.817 548.184, 698.654 547.374, 705 545.964 C 708.025 545.292, 711.625 544.385, 713 543.950 C 718.290 542.274, 711.473 543.154, 704 545.112 M 359.102 551.115 C 358.997 553.809, 362.342 559, 364.183 559 C 364.754 559, 364.236 558.202, 363.031 557.226 C 361.826 556.250, 360.472 553.888, 360.022 551.976 C 359.321 548.996, 359.190 548.873, 359.102 551.115 M 539 549.709 C 533.990 551.552, 531.930 557.148, 534.422 562.145 C 536.663 566.637, 536.422 567.772, 532.750 570.011 C 528.827 572.403, 527.258 572.474, 523.190 570.445 C 518.834 568.272, 516 569.857, 516 574.467 C 516 583.039, 531.382 585.596, 540.865 578.600 L 544.177 576.156 548.784 579.078 C 552.636 581.521, 554.438 582, 559.773 582 C 565.492 582, 566.457 581.697, 569.077 579.077 C 574.752 573.402, 571.642 567.451, 564.549 570.415 C 560.712 572.018, 556.142 571.285, 553.498 568.641 C 551.632 566.775, 551.642 565.058, 553.532 562.559 C 557.878 556.812, 552.696 548.927, 544.673 549.079 C 542.378 549.122, 539.825 549.406, 539 549.709 M 377 561.948 C 377.825 562.510, 379.593 562.976, 380.929 562.985 C 383.454 563.001, 389.229 564.603, 392.236 566.123 C 393.191 566.605, 394.530 567, 395.212 567 C 395.893 567, 399.505 568.199, 403.239 569.663 C 408.983 571.917, 410.173 572.802, 410.970 575.413 L 411.912 578.500 411.706 575.500 C 411.535 573.014, 410.729 572.127, 407 570.325 C 398.203 566.073, 372.533 558.905, 377 561.948 M 708.500 561.641 C 700.250 563.330, 687.636 567.624, 680.046 571.328 C 675.889 573.356, 673.373 585, 677.091 585 C 677.959 585, 677.957 584.653, 677.083 583.600 C 676.206 582.543, 676.200 581.090, 677.060 577.676 C 678.132 573.418, 678.532 573.020, 683.850 570.920 C 686.957 569.692, 689.928 568.308, 690.450 567.844 C 690.972 567.380, 692.216 567, 693.214 567 C 694.211 567, 695.809 566.594, 696.764 566.097 C 697.719 565.601, 700.300 564.733, 702.500 564.169 C 710.649 562.078, 713.461 561.205, 712 561.218 C 711.175 561.226, 709.600 561.416, 708.500 561.641 M 384.001 594.067 C 380.977 595.733, 378.052 597.585, 377.501 598.182 C 376.708 599.043, 389.308 592.607, 390.917 591.331 C 392.672 589.938, 388.493 591.591, 384.001 594.067 M 707 596.688 C 708.375 597.648, 711.413 600.302, 713.750 602.585 C 716.087 604.869, 718 606.440, 718 606.077 C 718 604.912, 709.588 597.274, 707 596.088 L 704.500 594.942 707 596.688 M 372.302 602.265 C 367.568 607.266, 366.617 609.660, 368.017 613.042 C 370.974 620.179, 377.844 620.855, 385.908 614.803 C 393.303 609.253, 393.587 609, 392.443 609 C 391.917 609, 389.017 611.025, 386 613.500 C 379.756 618.622, 375.891 619.275, 371.635 615.927 C 367.636 612.782, 367.989 607.811, 372.533 603.267 C 374.477 601.323, 375.908 599.575, 375.715 599.382 C 375.522 599.188, 373.986 600.486, 372.302 602.265 M 414 600.046 C 412.880 600.804, 413.178 600.904, 415.178 600.440 C 417.442 599.915, 418.098 600.289, 419.428 602.860 C 421.857 607.558, 421.372 609.256, 416.748 612.255 C 411.790 615.469, 408 618.571, 408 619.414 C 408 619.740, 411.145 617.643, 414.988 614.753 C 418.831 611.864, 421.981 608.767, 421.988 607.872 C 421.995 606.977, 421.319 604.614, 420.487 602.622 C 418.941 598.923, 416.873 598.102, 414 600.046 M 667.323 603.478 C 666.190 605.940, 665.661 607.710, 666.147 607.409 C 666.633 607.109, 667.676 605.319, 668.464 603.432 C 669.253 601.544, 670.300 600, 670.792 600 C 671.575 600, 678.523 602.303, 684.500 604.544 C 685.865 605.056, 686.182 604.967, 685.500 604.264 C 684.330 603.058, 673.055 599, 670.875 599 C 670.054 599, 668.456 601.015, 667.323 603.478 M 405.134 602.632 C 399.971 604.884, 401.967 605.206, 407.559 603.023 C 410.277 601.962, 411.600 601.109, 410.500 601.128 C 409.400 601.147, 406.985 601.824, 405.134 602.632 M 692 607.262 C 692.656 607.940, 702.070 614.992, 704 616.251 C 704.825 616.790, 703.700 615.585, 701.500 613.573 C 698.367 610.708, 689.875 605.067, 692 607.262 M 666 609.288 C 666 609.573, 668.362 611.377, 671.250 613.297 C 678.789 618.311, 689.892 628.766, 693.179 633.946 C 696.587 639.316, 696.740 642.528, 693.750 645.936 L 691.500 648.500 694.250 646.076 C 696.059 644.481, 697 642.660, 697 640.756 C 697 635.445, 688.748 625.524, 676.500 616.108 C 670.520 611.511, 666 608.575, 666 609.288 M 712.661 617.130 C 711.649 617.718, 709.737 617.992, 708.411 617.738 C 707.085 617.485, 706 617.665, 706 618.139 C 706 619.555, 712.349 619.051, 714.441 617.468 C 716.673 615.780, 715.400 615.538, 712.661 617.130 M 428.500 625.368 C 422.378 628.957, 418.057 632.267, 414.427 636.147 C 409.774 641.120, 406.523 646, 407.863 646 C 408.363 646, 409.470 644.538, 410.323 642.750 C 411.176 640.962, 413.590 637.859, 415.687 635.853 C 419.605 632.106, 430.176 625, 431.833 625 C 432.344 625, 434.031 626.688, 435.581 628.750 C 442.261 637.641, 459.483 653.793, 467.522 658.710 C 474.302 662.856, 478 664.764, 478 664.115 C 478 663.705, 476.538 662.631, 474.750 661.727 C 470.996 659.828, 465.729 656.731, 465 655.994 C 464.725 655.716, 462.700 654.160, 460.500 652.536 C 454.169 647.864, 445.262 639.122, 438.812 631.250 C 432.710 623.803, 431.930 623.358, 428.500 625.368 M 650.327 629.750 C 647.672 632.913, 644.825 636.191, 644 637.035 C 643.175 637.880, 641.150 640.150, 639.500 642.079 C 637.850 644.009, 638.985 643.093, 642.021 640.044 C 645.058 636.995, 649.471 632.270, 651.828 629.545 C 655.836 624.911, 656.255 624.680, 658.307 625.979 C 659.513 626.743, 661.678 627.963, 663.117 628.691 C 667.268 630.789, 674.669 637.718, 677.098 641.779 C 680.881 648.105, 683.076 650, 686.615 650 C 688.412 650, 690.156 649.557, 690.491 649.015 C 690.868 648.405, 689.944 648.261, 688.061 648.638 C 684.165 649.417, 681.105 647.409, 678.509 642.367 C 676.349 638.172, 669.043 630.842, 665.013 628.828 C 663.631 628.137, 661.306 626.768, 659.846 625.786 C 658.386 624.804, 656.733 624, 656.173 624 C 655.613 624, 652.982 626.587, 650.327 629.750 M 392.625 635.979 C 390.353 641.659, 390.561 643.171, 394.119 646.810 C 396.531 649.278, 398.088 650, 400.996 650 C 403.285 650, 405.292 649.349, 406.128 648.336 C 407.368 646.832, 407.290 646.784, 405.316 647.836 C 401.617 649.807, 398.049 649.203, 394.923 646.077 C 391.568 642.722, 391.360 641.152, 393.631 636.365 C 394.528 634.475, 395.034 632.701, 394.756 632.423 C 394.478 632.145, 393.519 633.745, 392.625 635.979 M 630.500 649.733 C 628.300 651.677, 623.298 655.344, 619.384 657.883 C 608.612 664.873, 608.228 665.157, 612 663.367 C 618.971 660.058, 635.972 647.612, 634.912 646.595 C 634.685 646.378, 632.700 647.790, 630.500 649.733 M 519.500 680.020 C 521.409 680.821, 533.784 681.392, 532.917 680.638 C 532.688 680.439, 529.125 680.030, 525 679.728 C 520.568 679.405, 518.318 679.524, 519.500 680.020 M 560 680 L 554.500 680.674 560.500 680.822 C 563.800 680.903, 567.175 680.533, 568 680 C 569.721 678.888, 569.074 678.888, 560 680 M 538.750 681.737 C 541.638 681.939, 546.362 681.939, 549.250 681.737 C 552.138 681.535, 549.775 681.370, 544 681.370 C 538.225 681.370, 535.862 681.535, 538.750 681.737" stroke="none" fill="#8bc3fe" fill-rule="evenodd"/><path d="M 532 420.913 C 528.975 421.236, 534.825 421.515, 545 421.533 C 556.465 421.553, 561.218 421.309, 557.500 420.891 C 550.371 420.090, 539.624 420.099, 532 420.913 M 576 425.013 C 576.825 425.539, 578.711 425.976, 580.191 425.985 C 581.671 425.993, 583.127 426.396, 583.426 426.881 C 583.726 427.365, 585.088 427.975, 586.455 428.236 C 587.821 428.497, 588.702 428.326, 588.411 427.856 C 588.120 427.385, 587.099 427, 586.141 427 C 585.183 427, 583.972 426.609, 583.450 426.130 C 582.928 425.652, 580.700 424.990, 578.500 424.659 C 575.771 424.248, 574.977 424.361, 576 425.013 M 423.308 432.250 C 420.178 435.548, 416.508 441.841, 417.270 442.603 C 417.499 442.833, 418.486 441.249, 419.462 439.083 C 420.439 436.918, 422.495 433.942, 424.031 432.470 C 426.706 429.907, 427.203 429.809, 435.819 430.147 C 440.766 430.341, 444.293 430.169, 443.657 429.765 C 443.021 429.361, 438.876 429.024, 434.446 429.015 C 426.651 429, 426.293 429.104, 423.308 432.250 M 645.115 429.908 C 644.262 430.448, 645.606 430.602, 648.615 430.310 C 655.388 429.651, 656.332 429.170, 651 429.094 C 648.525 429.059, 645.877 429.425, 645.115 429.908 M 659.500 429.730 C 663.078 430.243, 666.506 433.211, 669.051 438 C 670.074 439.925, 670.931 440.776, 670.956 439.891 C 670.980 439.006, 669.162 436.193, 666.915 433.641 C 663.558 429.827, 662.266 429.027, 659.665 429.150 L 656.500 429.300 659.500 429.730 M 536.500 439 C 534.635 439.475, 538.040 439.761, 545.500 439.757 C 554.605 439.751, 556.414 439.557, 553 438.949 C 547.462 437.963, 540.489 437.985, 536.500 439 M 509 444.096 C 505.975 445.213, 502.375 446.387, 501 446.706 C 499.625 447.024, 497.306 448.120, 495.846 449.142 C 494.386 450.164, 492.689 451, 492.074 451 C 490.983 451, 483 455.932, 483 456.606 C 483 456.793, 486.938 454.971, 491.750 452.557 C 500.215 448.312, 507.725 445.292, 515 443.207 C 516.998 442.635, 517.642 442.174, 516.500 442.135 C 515.400 442.097, 512.025 442.979, 509 444.096 M 585.475 446.960 C 585.829 447.532, 586.827 448, 587.693 448 C 591.668 448, 612.918 460.432, 619.250 466.462 C 620.763 467.902, 622 468.671, 622 468.171 C 622 467.033, 615.597 461.775, 609.283 457.727 C 598.598 450.877, 583.744 444.159, 585.475 446.960 M 434.250 449.496 C 433.563 450.277, 433.007 451.722, 433.015 452.708 C 433.026 454.069, 433.336 453.899, 434.303 452 C 435.424 449.801, 436.111 449.543, 440.006 449.857 C 442.441 450.054, 445.490 450.616, 446.782 451.107 C 448.073 451.598, 450.113 451.948, 451.315 451.885 C 453.750 451.757, 440.657 448.188, 437.500 448.120 C 436.400 448.096, 434.938 448.715, 434.250 449.496 M 640.054 449.596 C 634.280 451.148, 631.418 452.750, 636.500 451.586 C 638.150 451.208, 641.959 450.450, 644.964 449.902 C 647.969 449.354, 650.632 448.701, 650.881 448.453 C 651.832 447.501, 645.265 448.195, 640.054 449.596 M 454.799 453.199 C 455.731 454.131, 454.577 455.745, 449.612 460.449 C 443.296 466.434, 436.931 474.193, 434.925 478.352 C 433.905 480.469, 433.913 480.471, 435.487 478.500 C 436.366 477.400, 438.060 475.150, 439.252 473.500 C 440.444 471.850, 444.925 466.971, 449.210 462.658 C 456.931 454.886, 458.580 452, 455.300 452 C 453.978 452, 453.867 452.267, 454.799 453.199 M 632.030 452.848 C 632.014 453.590, 634.949 457.175, 638.554 460.815 C 642.158 464.455, 647.671 471.267, 650.804 475.953 C 658.023 486.752, 658.627 487.415, 659.403 485.393 C 660.271 483.130, 659.948 472.917, 658.916 470 C 658.336 468.359, 658.205 470.327, 658.537 475.727 C 659.115 485.133, 658.038 485.883, 654.216 478.735 C 651.317 473.315, 648.037 469.184, 640.175 461.046 C 636.696 457.446, 633.447 453.825, 632.955 453 C 632.276 451.860, 632.054 451.824, 632.030 452.848 M 431.624 456.539 C 431.281 457.432, 431.057 460.489, 431.127 463.332 L 431.254 468.500 432.089 462.045 C 432.932 455.524, 432.766 453.561, 431.624 456.539 M 477 460 C 475.075 461.647, 473.163 462.996, 472.750 462.998 C 472.337 462.999, 472 463.488, 472 464.084 C 472 464.680, 473.913 463.700, 476.250 461.906 C 482.173 457.360, 482.555 457, 481.450 457.002 C 480.928 457.004, 478.925 458.353, 477 460 M 411.651 466.226 C 411.302 469.126, 411.101 487.250, 411.204 506.500 L 411.390 541.500 411.973 501.500 C 412.293 479.500, 412.495 461.376, 412.420 461.226 C 412.345 461.075, 411.999 463.325, 411.651 466.226 M 465.964 468.972 C 463.509 471.156, 461.950 472.934, 462.500 472.923 C 463.517 472.902, 471.945 465.020, 470.964 465.007 C 470.669 465.003, 468.419 466.787, 465.964 468.972 M 626.654 473.250 C 631.070 477.862, 635.208 482.574, 637.491 485.590 C 638.286 486.641, 638.951 487.112, 638.968 486.639 C 639.033 484.897, 624.934 469, 623.325 469 C 622.917 469, 624.415 470.913, 626.654 473.250 M 429.743 472 C 429.349 473.375, 429.070 476.300, 429.123 478.500 L 429.219 482.500 430.123 478 C 431.206 472.611, 430.910 467.927, 429.743 472 M 678.378 484 C 678.378 490.325, 678.541 492.913, 678.739 489.750 C 678.937 486.587, 678.937 481.413, 678.739 478.250 C 678.541 475.087, 678.378 477.675, 678.378 484 M 454.356 481.250 C 447.675 489.211, 440.538 499.871, 441.346 500.680 C 441.629 500.963, 442.775 499.400, 443.894 497.208 C 445.822 493.428, 455.243 481.102, 459.913 476.250 C 461.104 475.012, 461.709 474, 461.259 474 C 460.808 474, 457.702 477.262, 454.356 481.250 M 647.413 502.572 C 649.936 507.562, 652 512.325, 652 513.156 C 652 513.987, 652.337 515.003, 652.750 515.415 C 653.163 515.827, 654.015 517.814, 654.645 519.832 C 655.334 522.038, 655.830 522.703, 655.889 521.500 C 655.943 520.400, 655.315 518.211, 654.494 516.636 C 653.672 515.060, 653 513.231, 653 512.570 C 653 511.081, 645.364 495.950, 643.897 494.534 C 643.309 493.965, 644.891 497.583, 647.413 502.572 M 676.632 526.750 C 676.273 532.663, 676.322 538.714, 676.740 540.198 C 677.205 541.848, 677.591 537.676, 677.734 529.448 C 677.862 522.051, 677.814 516, 677.626 516 C 677.438 516, 676.991 520.837, 676.632 526.750 M 499.710 523.530 C 500.954 524.439, 501.689 524.504, 502.158 523.744 C 503.122 522.185, 507.651 525.379, 510.044 529.304 C 511.340 531.430, 511.994 534.313, 511.996 537.917 C 512.001 544.340, 513.028 544.255, 513.157 537.821 C 513.252 533.067, 510.972 527.607, 507.699 524.750 C 505.457 522.793, 505.715 522.883, 501.217 522.506 C 498.305 522.262, 498.134 522.378, 499.710 523.530 M 580.640 525.433 C 576.874 528.984, 576.287 530, 578 530 C 578.550 530, 579 529.544, 579 528.986 C 579 528.428, 580.462 526.641, 582.250 525.015 C 584.038 523.389, 585.225 522.045, 584.890 522.029 C 584.554 522.013, 582.642 523.545, 580.640 525.433 M 656.804 530.500 C 658.180 544.334, 657.592 567.004, 655.663 574.500 C 649.102 599.991, 635.972 619.755, 614.407 636.600 C 606.096 643.091, 589.986 651.771, 582 654.060 C 579.525 654.770, 577.050 655.662, 576.500 656.043 C 575.950 656.425, 572.462 657.246, 568.750 657.868 C 565.038 658.491, 559.022 659.511, 555.382 660.135 C 548.749 661.274, 542.674 661.038, 525.035 658.957 C 508.521 657.010, 490.446 649.632, 476.260 639.049 C 468.309 633.117, 451.538 616.740, 449.313 612.736 C 448.630 611.506, 448.055 611.002, 448.035 611.615 C 447.935 614.785, 467.529 634.587, 478 641.896 C 485.883 647.399, 502.866 656, 505.849 656 C 506.812 656, 508.028 656.386, 508.550 656.858 C 510.730 658.827, 533.346 662, 545.203 662 C 565.890 662, 591.095 654.568, 607.500 643.631 C 636.292 624.436, 652.929 599.482, 658.423 567.250 C 660.224 556.683, 660.461 544.372, 658.998 537.326 C 656.045 523.107, 656.079 523.211, 656.804 530.500 M 499.425 531.083 C 498.071 532.579, 496.640 533.060, 494.340 532.792 C 492.580 532.586, 491.360 532.774, 491.629 533.209 C 491.898 533.644, 493.615 534, 495.444 534 C 497.888 534, 499.204 533.337, 500.408 531.500 C 502.402 528.457, 501.968 528.272, 499.425 531.083 M 719.500 544.909 C 722.250 545.253, 725.175 545.898, 726 546.342 C 726.825 546.785, 726.626 546.440, 725.559 545.574 C 724.349 544.593, 721.901 544.053, 719.059 544.141 L 714.500 544.282 719.500 544.909 M 705.500 546.052 C 703.850 546.518, 701.209 547.169, 699.632 547.498 C 698.055 547.828, 696.930 548.263, 697.133 548.466 C 697.472 548.805, 702.094 547.985, 711 546.007 C 714.400 545.252, 714.414 545.230, 711.500 545.217 C 709.850 545.210, 707.150 545.586, 705.500 546.052 M 493 550 C 496.859 552.113, 501.680 552.528, 504 550.948 C 505.085 550.208, 504.478 550.102, 501.805 550.564 C 499.313 550.994, 497.067 550.681, 494.902 549.601 C 490.378 547.344, 488.766 547.682, 493 550 M 678.100 551.281 C 677.988 554.390, 680.429 555.991, 682.317 554.049 C 683.236 553.104, 683.069 552.907, 681.566 553.166 C 680.212 553.400, 679.418 552.751, 678.916 551 L 678.199 548.500 678.100 551.281 M 536.174 553.314 C 533.668 555.982, 533.476 558.460, 535.500 562 C 538.347 566.981, 536.505 570.735, 530.458 572.271 C 528.675 572.724, 528.665 572.778, 530.346 572.884 C 533.210 573.064, 538.005 569.161, 537.965 566.682 C 537.945 565.482, 537.286 563.375, 536.500 562 C 534.476 558.460, 534.668 555.982, 537.174 553.314 C 538.370 552.042, 539.124 551, 538.849 551 C 538.574 551, 537.370 552.042, 536.174 553.314 M 550.365 552.476 C 551.391 553.253, 552.582 555.376, 553.013 557.194 C 553.682 560.020, 553.810 560.133, 553.898 557.973 C 554.013 555.124, 551.505 550.984, 549.693 551.032 C 549.037 551.049, 549.339 551.699, 550.365 552.476 M 690 565.655 C 687.525 566.513, 685.050 567.554, 684.500 567.969 C 683.950 568.385, 682.249 569.023, 680.719 569.389 C 677.039 570.268, 674.008 575.369, 674.004 580.691 C 674.002 582.996, 674.356 585.102, 674.791 585.371 C 675.226 585.640, 675.406 584.348, 675.190 582.501 C 674.598 577.434, 676.740 572.053, 679.850 570.792 C 681.307 570.200, 684.408 568.880, 686.739 567.858 C 689.071 566.836, 691.546 565.993, 692.239 565.985 C 692.933 565.976, 694.175 565.533, 695 565 C 697.165 563.601, 695.175 563.861, 690 565.655 M 400 566.520 C 400 567.244, 406.414 570, 408.097 570 C 409.081 570, 410.587 571, 411.443 572.223 C 412.299 573.445, 413 573.965, 413 573.377 C 413 571.646, 409.513 569, 407.230 569 C 406.069 569, 404.873 568.604, 404.575 568.121 C 404.047 567.267, 400 565.851, 400 566.520 M 552.924 570.250 C 554.912 572.504, 556.182 573, 559.974 573 C 562.518 573, 565.110 572.490, 565.733 571.867 C 567.352 570.248, 569.769 571.481, 570.286 574.189 C 570.696 576.335, 570.737 576.348, 570.864 574.372 C 571.072 571.115, 568.500 569.451, 565.423 570.853 C 561.294 572.735, 555.919 572.255, 553.064 569.750 L 550.500 567.500 552.924 570.250 M 518.250 570.662 C 517.563 570.940, 517 571.634, 517 572.206 C 517 572.823, 517.623 572.728, 518.534 571.972 C 519.773 570.943, 520.523 570.942, 522.435 571.965 C 523.737 572.662, 525.410 572.991, 526.151 572.695 C 526.928 572.386, 526.571 572.124, 525.309 572.079 C 524.104 572.036, 522.840 571.550, 522.500 571 C 521.848 569.945, 520.327 569.824, 518.250 570.662 M 540.903 576.106 C 539.581 577.264, 537.425 578.626, 536.111 579.134 C 534.798 579.641, 533.968 580.302, 534.268 580.602 C 534.996 581.330, 540.310 578.536, 541.945 576.566 C 543.688 574.466, 545.322 574.594, 547.500 577 C 548.495 578.100, 549.803 578.998, 550.405 578.995 C 551.806 578.989, 545.869 574.084, 544.403 574.036 C 543.800 574.016, 542.225 574.948, 540.903 576.106 M 439.001 597.691 C 439.001 598.136, 440.801 601.425, 443 605 C 445.199 608.575, 446.999 611.026, 446.999 610.446 C 447 609.866, 445.650 607.263, 444 604.661 C 442.350 602.059, 441 599.523, 441 599.024 C 441 598.526, 440.550 597.840, 440 597.500 C 439.450 597.160, 439 597.246, 439.001 597.691 M 668.634 598.185 C 667.735 598.688, 667 599.559, 667 600.121 C 667 600.683, 667.672 600.471, 668.493 599.650 C 670.149 597.994, 673.198 598.545, 682.500 602.186 C 685.250 603.262, 687.050 603.729, 686.500 603.222 C 683.441 600.404, 670.957 596.885, 668.634 598.185 M 416.802 598.549 C 419.015 598.982, 419.953 600.038, 421.263 603.570 C 422.174 606.031, 422.653 608.821, 422.326 609.772 C 421.857 611.134, 422.059 611.077, 423.280 609.506 C 424.132 608.410, 424.499 607.285, 424.094 607.006 C 423.690 606.728, 422.657 604.700, 421.798 602.500 C 420.485 599.138, 419.739 598.460, 417.118 598.250 C 414.225 598.018, 414.202 598.040, 416.802 598.549 M 711.443 602.318 C 714.162 604.893, 716.603 607, 716.868 607 C 717.763 607, 712.518 601.817, 709.500 599.720 C 707.850 598.573, 708.725 599.742, 711.443 602.318 M 680.113 621.634 C 680.175 622.110, 682.965 624.975, 686.312 628 C 689.660 631.025, 691.304 632.150, 689.967 630.500 C 686.910 626.729, 679.962 620.477, 680.113 621.634 M 653.655 624.057 C 652.236 625.173, 650.100 627.530, 648.909 629.293 C 647.185 631.846, 647.534 631.645, 650.621 628.305 C 652.755 625.998, 655.400 623.962, 656.500 623.782 C 657.751 623.576, 658.076 623.186, 657.368 622.740 C 656.745 622.348, 655.074 622.941, 653.655 624.057 M 673.542 635 C 676.316 638.025, 679.189 641.977, 679.927 643.782 C 680.665 645.587, 681.465 646.868, 681.704 646.629 C 682.422 645.911, 677.988 637.890, 675.616 635.616 C 670.124 630.348, 668.961 630.003, 673.542 635 M 460.897 651.886 C 464.495 655.069, 479.530 664.667, 478.625 663.203 C 478.333 662.729, 475.260 660.608, 471.797 658.488 C 468.333 656.369, 465.275 654.380, 465 654.068 C 464.725 653.755, 462.925 652.460, 461 651.190 L 457.500 648.880 460.897 651.886 M 623.500 653.475 C 621.850 654.785, 617.826 657.464, 614.559 659.428 C 611.291 661.393, 609.096 663, 609.681 663 C 611.030 663, 625.532 653.567, 626.439 652.098 C 627.402 650.540, 626.904 650.773, 623.500 653.475 M 523 679 C 524.375 679.440, 527.075 679.792, 529 679.782 L 532.500 679.763 529.500 679 C 527.850 678.580, 525.150 678.228, 523.500 678.218 C 520.589 678.200, 520.574 678.223, 523 679" stroke="none" fill="#102a54" fill-rule="evenodd"/><path d="M 0 540.001 L 0 1080.002 540.250 1079.751 L 1080.500 1079.500 1080.751 539.750 L 1081.002 -0 540.501 -0 L 0 0 0 540.001 M 0.496 540.500 C 0.496 837.500, 0.610 958.851, 0.750 810.168 C 0.890 661.485, 0.890 418.485, 0.750 270.168 C 0.610 121.851, 0.496 243.500, 0.496 540.500 M 539.324 356.250 C 534.421 360.749, 530 369.092, 530 373.847 C 530 379.388, 533.091 387.177, 536.824 391.041 C 542.028 396.427, 543.915 396.701, 548.794 392.774 C 555.884 387.069, 558.918 375.927, 555.841 366.899 C 553.844 361.040, 547.186 352.133, 544.728 352.032 C 544.303 352.014, 541.871 353.913, 539.324 356.250 M 595.400 382.871 C 588.103 388.243, 584.109 393.953, 584.883 397.904 C 585.244 399.744, 588.372 402.276, 594.348 405.564 C 600.102 408.730, 602.872 408.050, 605.635 402.793 C 607.957 398.378, 607.969 387.645, 605.658 383.250 C 603.490 379.128, 600.628 379.022, 595.400 382.871 M 480.882 386.381 C 476.140 388.075, 470.330 391.699, 469.693 393.358 C 468.215 397.208, 477.525 407.445, 483.527 408.571 C 485.880 409.013, 488.154 408.452, 492.114 406.455 C 498.591 403.188, 505 398.293, 505 396.612 C 505 394.612, 498.824 389.260, 494 387.079 C 488.803 384.729, 485.932 384.576, 480.882 386.381 M 529.917 419.408 C 529.688 419.632, 525.357 420.529, 520.294 421.400 C 508.029 423.511, 495.417 427.760, 482.707 434.064 C 478.794 436.005, 477.015 435.897, 465 432.995 C 463.075 432.530, 458.800 431.632, 455.500 431 C 452.200 430.368, 447.924 429.399, 445.997 428.847 C 444.070 428.295, 438.816 427.766, 434.322 427.671 C 426.507 427.507, 426.012 427.631, 422.982 430.500 C 417.778 435.427, 414.062 444.277, 411.089 458.826 C 410.401 462.190, 410 480.338, 410 508.076 C 410 551.432, 409.974 552, 407.986 552 C 406.879 552, 405.191 551.571, 404.236 551.047 C 397.475 547.337, 371.888 541.409, 367.233 542.474 C 360.665 543.976, 357.207 550.614, 360.430 555.533 C 362.320 558.418, 365.443 559.920, 372 561.099 C 374.475 561.544, 378.750 562.399, 381.500 562.999 C 384.250 563.599, 387.743 564.346, 389.262 564.660 C 390.781 564.974, 392.271 565.629, 392.571 566.115 C 392.872 566.602, 393.868 567, 394.784 567 C 395.701 567, 399.497 568.195, 403.221 569.656 C 409.330 572.053, 410.090 572.664, 410.991 575.906 C 412.345 580.782, 412.254 583.991, 410.750 584.413 C 410.063 584.606, 407.475 585.328, 405 586.017 C 396.080 588.501, 393.382 589.520, 385.952 593.212 C 377.357 597.483, 370.663 602.817, 368.395 607.203 C 365.570 612.667, 370.231 619, 377.078 619 C 379.265 619, 382.093 617.596, 386.348 614.398 C 389.715 611.866, 394.502 608.772, 396.985 607.522 C 401.668 605.163, 415.431 600, 417.034 600 C 418.227 600, 421.001 605.387, 420.998 607.700 C 420.997 608.742, 419.118 610.686, 416.539 612.316 C 409.685 616.646, 394.265 631.997, 392.529 636.218 C 390.346 641.526, 390.599 643.210, 394.119 646.810 C 398.684 651.480, 403.390 651.293, 407.750 646.267 C 409.538 644.207, 411 642.048, 411 641.469 C 411 638.895, 428.577 625, 431.833 625 C 432.344 625, 434.031 626.688, 435.581 628.750 C 442.192 637.549, 461.650 655.871, 467 658.337 C 467.825 658.717, 470.975 660.594, 474 662.509 C 480.630 666.704, 493.414 673, 495.305 673 C 496.054 673, 496.975 673.308, 497.352 673.685 C 498.449 674.783, 505.299 676.969, 507.691 676.985 C 508.896 676.993, 510.131 677.402, 510.435 677.894 C 511.095 678.963, 515.473 679.629, 531.661 681.121 C 546.310 682.470, 575.012 680.408, 576.565 677.894 C 576.869 677.402, 578.415 677, 580 677 C 581.585 677, 583.160 676.550, 583.500 676 C 583.840 675.450, 584.998 675, 586.073 675 C 587.148 675, 588.809 674.603, 589.764 674.117 C 590.719 673.631, 592.625 672.794, 594 672.257 C 600.184 669.842, 616.149 661.273, 622.742 656.830 C 629.973 651.958, 643.903 638.918, 651.891 629.545 C 655.842 624.908, 656.254 624.679, 658.307 625.979 C 659.513 626.743, 661.678 627.963, 663.117 628.691 C 667.268 630.789, 674.669 637.718, 677.098 641.779 C 680.819 648.001, 683.093 650, 686.446 650 C 690.966 650, 697 644.773, 697 640.857 C 697 634.301, 684.354 620.763, 668.175 610 L 665.920 608.500 667.983 604.250 C 669.118 601.913, 670.488 600, 671.027 600 C 671.566 600, 676.487 601.657, 681.964 603.682 C 688.547 606.117, 694.222 609.075, 698.711 612.413 C 702.445 615.190, 705.650 617.808, 705.833 618.231 C 706.017 618.654, 707.659 619, 709.483 619 C 711.958 619, 713.714 618.086, 716.400 615.400 C 720.506 611.294, 720.501 611.311, 718.550 607.404 C 715.212 600.718, 701.522 591.469, 690 588.115 C 687.525 587.394, 684.719 586.399, 683.764 585.903 C 682.809 585.406, 681.176 585, 680.136 585 C 676.757 585, 675.794 582.705, 677.060 577.676 C 678.132 573.418, 678.532 573.020, 683.850 570.920 C 686.957 569.692, 689.928 568.308, 690.450 567.844 C 690.972 567.380, 692.216 567, 693.214 567 C 694.211 567, 695.809 566.594, 696.764 566.097 C 697.719 565.601, 700.300 564.737, 702.500 564.177 C 704.700 563.617, 708.352 562.673, 710.616 562.079 C 712.880 561.486, 716.116 561, 717.807 561 C 719.498 561, 721.160 560.550, 721.500 560 C 721.840 559.450, 722.826 559, 723.692 559 C 725.674 559, 728.867 555.380, 729.655 552.239 C 730.483 548.939, 728.158 545.043, 724.249 543.179 C 721.258 541.753, 720.183 541.769, 711.855 543.365 C 706.839 544.327, 700.883 545.698, 698.618 546.413 C 696.353 547.127, 692.475 548.278, 690 548.970 C 687.525 549.662, 684.488 550.702, 683.252 551.282 C 682.015 551.862, 680.665 551.996, 680.252 551.581 C 679.838 551.165, 679.634 533.202, 679.797 511.663 C 680.152 464.796, 679.237 455.778, 672.487 439.623 C 670.161 434.056, 664.358 428.158, 660.494 427.433 C 656.618 426.706, 646.018 428.186, 627.500 432.041 C 621.571 433.275, 611.912 435.077, 610.500 435.212 C 609.950 435.265, 607.250 434.291, 604.500 433.049 C 601.750 431.806, 598.150 430.184, 596.500 429.444 C 581.436 422.689, 562.922 419, 544.086 419 C 536.522 419, 530.146 419.184, 529.917 419.408 M 493.655 525.829 C 490.482 529.335, 492.288 532.522, 496.782 531.347 C 499.369 530.670, 501.263 526.663, 499.723 525.123 C 498.062 523.462, 495.530 523.757, 493.655 525.829 M 583.372 526.310 C 580.666 529.096, 581.353 531, 585.064 531 C 587.303 531, 588.101 530.445, 588.575 528.557 C 589.765 523.818, 586.968 522.610, 583.372 526.310" stroke="none" fill="transparent" fill-rule="evenodd"/></svg>