<?xml version="1.0" standalone="no"?>
<!DOCTYPE svg PUBLIC "-//W3C//DTD SVG 20010904//EN"
 "http://www.w3.org/TR/2001/REC-SVG-20010904/DTD/svg10.dtd">
<svg version="1.0" xmlns="http://www.w3.org/2000/svg"
 width="282.000000pt" height="245.000000pt" viewBox="0 0 282.000000 245.000000"
 preserveAspectRatio="xMidYMid meet">
<metadata>
Created by potrace 1.16, written by Peter Selinger 2001-2019
</metadata>
<g transform="translate(0.000000,245.000000) scale(0.100000,-0.100000)"
fill="#000000" stroke="none">
<path d="M1325 1850 c-69 -8 -123 -24 -190 -56 -37 -17 -41 -17 -197 12 -111
21 -140 13 -163 -41 -8 -16 -20 -46 -28 -65 -12 -27 -16 -92 -19 -273 -3 -130
-7 -239 -9 -242 -3 -2 -33 5 -68 15 -34 11 -85 20 -112 20 -40 0 -51 -4 -64
-24 -21 -31 -3 -74 34 -82 167 -38 218 -58 223 -89 4 -20 0 -24 -30 -30 -89
-17 -192 -91 -192 -138 0 -15 9 -31 25 -41 28 -19 51 -15 81 12 19 18 90 53
133 67 46 14 42 -16 -7 -55 -66 -52 -112 -107 -112 -134 0 -31 30 -56 67 -56
24 0 33 6 42 28 11 24 87 92 105 92 4 0 31 -26 61 -58 56 -61 175 -147 229
-167 17 -6 40 -15 51 -21 81 -43 318 -54 433 -20 34 10 62 22 62 26 0 4 15 11
33 14 51 10 178 98 243 169 l60 65 42 -31 c23 -18 51 -47 62 -65 26 -42 69
-44 99 -6 19 24 19 28 6 55 -18 34 -55 73 -107 113 -41 31 -46 43 -23 52 16 7
120 -38 150 -65 34 -30 53 -32 81 -7 21 18 26 28 21 48 -9 35 -90 93 -160 115
-100 31 -63 72 98 109 44 9 88 24 98 32 20 17 23 62 5 80 -18 18 -95 14 -168
-8 -36 -11 -68 -20 -72 -20 -5 0 -8 104 -8 232 0 263 -10 324 -62 377 -37 38
-54 38 -198 9 l-107 -22 -44 21 c-110 51 -254 70 -404 53z m259 -130 c170 -43
300 -148 377 -304 38 -78 44 -98 44 -155 0 -201 -163 -414 -384 -501 -164 -64
-327 -65 -524 -4 -69 22 -89 34 -128 73 -53 55 -92 132 -114 223 -57 243 78
508 323 632 107 54 276 69 406 36z"/>
<path d="M1635 1328 c-35 -19 -45 -40 -45 -95 0 -58 14 -73 70 -73 18 0 33 -6
36 -15 20 -51 59 43 45 107 -11 49 -20 61 -35 49 -9 -7 -16 -7 -24 1 -8 8 -12
9 -12 1 0 -6 -6 -13 -13 -16 -16 -6 -19 22 -4 41 12 15 8 15 -18 0z"/>
<path d="M1153 1308 c-16 -17 -23 -42 -29 -95 -6 -65 -5 -73 12 -80 10 -4 19
-2 22 5 2 7 22 12 45 12 58 0 67 9 74 71 4 45 2 58 -17 82 -26 32 -40 35 -32
5 4 -18 2 -20 -16 -16 -12 4 -22 2 -22 -3 0 -5 -5 -9 -12 -9 -6 0 -1 11 12 25
22 24 23 25 3 25 -11 0 -29 -10 -40 -22z"/>
<path d="M1417 1154 c-4 -4 -7 -17 -7 -30 0 -14 -17 -37 -46 -63 -30 -26 -44
-46 -40 -56 8 -23 52 -18 82 10 l27 25 44 -25 c24 -15 48 -23 53 -20 20 12 9
41 -25 68 -19 15 -38 42 -43 60 -8 30 -30 46 -45 31z"/>
</g>
</svg>
