<?xml version="1.0" standalone="no"?>
<!DOCTYPE svg PUBLIC "-//W3C//DTD SVG 20010904//EN"
 "http://www.w3.org/TR/2001/REC-SVG-20010904/DTD/svg10.dtd">
<svg version="1.0" xmlns="http://www.w3.org/2000/svg"
 width="1080.000000pt" height="1080.000000pt" viewBox="0 0 1080.000000 1080.000000"
 preserveAspectRatio="xMidYMid meet">
<metadata>
Created by potrace 1.16, written by Peter Selinger 2001-2019
</metadata>
<g transform="translate(0.000000,1080.000000) scale(0.100000,-0.100000)"
fill="#000000" stroke="none">
<path d="M4349 7335 c-86 -88 -115 -146 -122 -243 -4 -54 -2 -86 8 -107 7 -16
16 -47 19 -68 6 -42 21 -67 42 -67 14 0 100 -55 109 -71 13 -20 42 -7 96 44
62 57 79 85 103 166 25 83 21 146 -15 221 -29 61 -100 166 -123 182 -28 19
-57 5 -117 -57z"/>
<path d="M5164 7012 c-115 -64 -190 -142 -201 -207 -5 -33 -2 -39 53 -90 33
-31 81 -67 107 -81 48 -25 49 -25 94 -8 69 26 83 57 83 178 0 109 -13 169 -43
204 -24 26 -51 27 -93 4z"/>
<path d="M3525 6904 c-63 -22 -146 -68 -155 -84 -23 -42 59 -123 187 -185 81
-39 120 -31 210 41 23 19 46 34 51 34 25 0 62 43 62 71 0 39 -37 74 -117 110
-50 23 -76 29 -130 28 -38 0 -86 -7 -108 -15z"/>
<path d="M4235 6455 c-242 -33 -430 -89 -642 -192 -44 -22 -60 -25 -110 -20
-64 7 -136 20 -198 36 -22 6 -67 15 -100 21 -33 7 -78 16 -100 22 -64 16 -206
29 -252 23 -99 -14 -192 -183 -231 -420 -11 -68 -16 -235 -21 -690 l-6 -600
-25 3 c-14 2 -36 10 -50 17 -14 7 -52 20 -85 30 -33 9 -69 21 -80 26 -27 11
-134 35 -225 49 -41 7 -81 14 -88 16 -21 6 -91 -27 -112 -54 -27 -34 -26 -84
4 -119 26 -31 79 -52 161 -63 73 -11 167 -31 190 -40 11 -5 47 -17 80 -26 59
-17 116 -37 145 -53 9 -5 30 -12 47 -15 52 -12 65 -36 67 -122 l1 -77 -60 -18
c-33 -11 -85 -27 -115 -36 -30 -9 -79 -27 -108 -40 -29 -12 -55 -23 -57 -23
-2 0 -38 -21 -80 -46 -170 -103 -216 -188 -139 -260 28 -27 44 -34 77 -34 34
0 52 9 111 54 126 96 402 221 449 203 20 -8 69 -116 59 -132 -4 -7 -47 -43
-97 -79 -131 -96 -263 -229 -293 -295 -20 -44 -23 -60 -16 -90 12 -47 62 -81
120 -81 48 0 60 9 108 84 57 90 161 180 278 241 43 22 32 30 123 -80 88 -106
178 -195 270 -268 50 -39 92 -74 95 -78 3 -3 12 -9 20 -12 8 -4 29 -16 45 -27
17 -11 37 -23 45 -26 8 -4 29 -17 45 -29 30 -21 195 -105 208 -105 3 0 30 -11
59 -24 29 -13 82 -31 118 -41 36 -9 76 -22 90 -27 80 -33 417 -55 608 -40 153
12 253 26 287 41 11 5 49 17 85 26 36 10 89 28 118 41 29 13 56 24 60 24 4 0
45 18 90 40 44 22 86 40 92 40 5 0 10 3 10 8 0 4 17 16 38 27 20 11 56 32 78
48 23 15 46 27 52 27 6 0 12 4 14 8 2 4 31 29 66 56 93 71 217 192 302 295 75
91 97 104 120 76 7 -8 17 -15 22 -15 19 0 149 -92 192 -135 23 -24 54 -67 69
-98 39 -75 87 -94 161 -63 36 15 76 64 76 93 0 57 -85 168 -205 268 -33 28
-62 52 -65 55 -14 15 -122 91 -135 96 -17 7 -20 35 -6 62 5 9 16 34 25 55 11
27 22 37 38 37 28 0 188 -56 202 -70 5 -5 18 -10 28 -10 23 0 154 -81 198
-122 69 -66 104 -72 168 -31 72 47 72 97 1 177 -28 32 -178 136 -196 136 -4 0
-30 11 -58 24 -52 25 -236 86 -259 86 -25 0 -35 58 -17 102 5 13 12 35 15 49
6 26 9 28 131 77 55 22 148 54 210 70 22 6 65 18 97 27 31 8 72 15 91 15 32 0
80 15 134 42 23 11 43 55 43 94 0 36 -19 68 -47 82 -32 14 -121 16 -172 3 -20
-5 -70 -17 -111 -26 -41 -8 -86 -20 -100 -25 -14 -4 -52 -16 -85 -25 -33 -10
-74 -24 -92 -31 -38 -17 -60 -18 -69 -2 -4 7 -8 278 -8 603 -1 535 -3 598 -19
675 -11 47 -22 103 -26 125 -4 22 -12 49 -18 60 -19 33 -43 92 -43 104 0 18
-107 120 -134 127 -29 7 -196 -8 -271 -26 -27 -6 -72 -15 -100 -20 -27 -5 -72
-14 -100 -20 -197 -44 -229 -46 -293 -15 -31 15 -68 32 -82 37 -14 6 -38 17
-55 24 -61 27 -172 63 -235 78 -278 65 -447 78 -645 51z m420 -290 c50 -8 106
-19 125 -24 19 -5 67 -17 105 -27 39 -9 79 -23 90 -31 11 -7 26 -13 35 -13 18
0 207 -95 270 -136 142 -92 295 -234 391 -364 61 -82 173 -285 201 -365 10
-27 22 -59 27 -70 43 -91 57 -282 28 -390 -49 -183 -71 -241 -143 -383 -66
-130 -82 -156 -155 -252 -57 -75 -170 -189 -265 -266 -60 -50 -208 -147 -249
-165 -17 -7 -37 -18 -45 -24 -8 -6 -35 -20 -60 -30 -25 -10 -67 -28 -95 -40
-63 -27 -242 -81 -315 -94 -295 -55 -464 -55 -770 0 -87 16 -263 64 -292 80
-10 5 -27 9 -37 9 -11 0 -22 4 -26 9 -3 5 -20 13 -37 17 -18 3 -39 10 -48 15
-8 4 -37 18 -64 30 -137 62 -284 261 -391 529 -27 68 -34 95 -66 245 -21 99
-27 363 -9 419 5 17 16 74 25 126 15 87 32 146 56 192 5 10 9 22 9 28 0 6 19
50 42 98 121 249 328 483 565 635 87 57 203 118 268 142 28 10 55 21 60 25 6
3 28 11 50 18 22 6 65 18 95 27 154 44 456 58 625 30z m1265 -114 c31 -59 70
-414 47 -437 -9 -9 -5 -13 -52 65 -44 74 -110 155 -201 247 -35 36 -64 71 -64
77 0 7 33 20 78 29 42 10 95 22 117 27 59 13 63 13 75 -8z m-2833 -22 c48 -11
91 -26 96 -32 4 -8 -17 -35 -56 -72 -91 -87 -167 -179 -223 -270 -53 -87 -64
-84 -46 14 6 31 14 90 18 131 10 111 30 218 44 235 17 20 62 19 167 -6z"/>
<path d="M4930 5081 c-52 -28 -60 -39 -132 -174 -26 -48 -23 -91 7 -111 41
-27 69 -20 117 30 23 25 57 52 75 61 36 17 25 22 138 -67 62 -50 115 -55 134
-14 12 28 0 83 -26 115 -7 8 -13 19 -13 23 0 8 -20 26 -119 110 -48 40 -60 46
-100 46 -25 -1 -62 -9 -81 -19z"/>
<path d="M3775 5053 c-19 -5 -68 -40 -129 -93 -16 -14 -42 -53 -58 -88 -31
-69 -29 -86 18 -116 31 -21 59 -16 96 19 15 14 31 25 35 25 5 0 25 11 45 25
47 32 52 31 91 -6 40 -37 99 -69 130 -69 25 0 87 57 87 80 0 40 -180 220 -221
220 -9 0 -29 2 -45 4 -16 2 -38 2 -49 -1z"/>
<path d="M4344 4681 c-54 -25 -74 -55 -74 -111 0 -33 7 -55 25 -80 30 -41 31
-49 5 -93 -19 -32 -25 -35 -83 -40 -56 -5 -66 -3 -105 24 -23 16 -46 29 -51
29 -28 0 -65 -90 -42 -104 6 -4 11 -18 11 -30 0 -13 7 -29 15 -36 8 -7 15 -19
15 -26 0 -8 11 -32 25 -54 14 -22 25 -44 25 -50 0 -13 29 -60 60 -96 38 -45
94 -84 121 -84 13 0 33 -7 43 -15 14 -10 45 -15 98 -15 66 0 84 4 118 25 22
14 44 25 49 25 26 0 181 195 181 228 0 5 7 12 15 16 12 4 15 25 15 95 0 49 -3
96 -6 105 -9 24 -49 19 -83 -10 -34 -28 -57 -29 -153 -2 l-48 13 0 47 c0 27 4
48 8 48 12 0 32 61 32 96 0 16 -7 40 -16 53 -20 28 -88 61 -129 61 -16 0 -49
-9 -71 -19z m314 -492 c18 -17 32 -38 32 -45 0 -19 -101 -132 -119 -133 -8 -1
-27 -13 -42 -27 -24 -22 -36 -26 -95 -26 -109 -1 -177 37 -240 134 -13 21 -24
43 -24 50 0 18 31 48 50 48 10 0 23 7 30 15 10 12 45 15 194 15 l182 0 32 -31z"/>
</g>
</svg>
