<svg xmlns="http://www.w3.org/2000/svg" width="1080" height="1080" viewBox="0 0 1080 1080" version="1.1"><path d="M 890.750 613.723 C 892.538 613.945, 895.462 613.945, 897.250 613.723 C 899.038 613.502, 897.575 613.320, 894 613.320 C 890.425 613.320, 888.962 613.502, 890.750 613.723" stroke="none" fill="#1c1c1c" fill-rule="evenodd"/><path d="M 518.500 371.105 C 499.194 372.634, 497.378 372.874, 489.532 374.928 C 485.182 376.068, 480.803 377, 479.801 377 C 477.649 377, 456.149 383.939, 450.453 386.471 C 448.279 387.438, 443.350 389.695, 439.500 391.486 C 435.650 393.278, 430.700 395.350, 428.500 396.090 C 420.746 398.698, 400.304 397.039, 373.500 391.627 C 338.217 384.502, 324.639 383.355, 314.254 386.621 C 304.716 389.621, 301.181 394.043, 292.766 413.500 C 290.863 417.900, 288.079 424.330, 286.579 427.789 C 281.461 439.595, 279.468 466.316, 278.024 542.500 C 277.471 571.650, 276.728 602.392, 276.372 610.814 L 275.726 626.129 271.113 625.780 C 268.576 625.588, 266.050 625.159, 265.500 624.827 C 264.950 624.494, 261.870 623.681, 258.655 623.021 C 255.441 622.360, 251.391 621.232, 249.655 620.514 C 247.023 619.426, 235.027 616.738, 221.500 614.207 C 219.850 613.898, 212.593 613.628, 205.374 613.608 C 192.836 613.572, 192.069 613.689, 188.265 616.206 C 181.200 620.881, 177.129 630.527, 178.935 638.316 C 181.103 647.672, 188.006 653.140, 201.439 656.142 C 241.167 665.019, 259.975 670.803, 271.106 677.564 C 277.359 681.363, 280 685.476, 280 691.414 C 280 694.698, 279.614 695.199, 275.750 696.932 C 273.412 697.980, 267.900 699.713, 263.500 700.784 C 240.768 706.313, 216.676 720.415, 203.685 735.798 C 198.059 742.459, 196.500 745.211, 195.634 750.007 C 194.357 757.075, 198.127 763.662, 206.697 769.338 C 215.642 775.263, 224.962 773.909, 235.165 765.203 C 242.196 759.203, 245.420 757.204, 258.801 750.546 C 282.490 738.759, 295.005 734.891, 297.956 738.447 C 300.805 741.880, 294.759 750.072, 281.562 760.659 C 265.883 773.238, 250.962 789.080, 245.032 799.444 C 238.111 811.541, 241.702 822.247, 255 829.160 C 258.646 831.056, 261.053 831.500, 267.684 831.500 C 275.301 831.500, 276.073 831.304, 278.815 828.677 C 280.436 827.125, 283.013 823.525, 284.544 820.677 C 289.025 812.338, 308.167 794.255, 318.652 788.454 L 323.805 785.604 329.669 791.052 C 332.895 794.048, 340.476 801.625, 346.517 807.888 C 364.811 826.856, 389.436 846.306, 417.500 863.951 C 421.934 866.739, 432.154 871.415, 443.809 875.987 C 449.478 878.211, 455.103 880.656, 456.309 881.421 C 460.709 884.214, 478.881 889.088, 494 891.530 C 539.031 898.803, 593.363 896.453, 626 885.821 C 636.985 882.243, 640.171 880.748, 645 876.907 C 647.115 875.225, 651.152 873.516, 655.199 872.588 C 680.029 866.896, 723.758 835.530, 756.609 799.847 C 764.634 791.131, 771.553 784, 771.984 784 C 773.584 784, 790.724 797.449, 797.302 803.865 C 801.043 807.514, 805.966 812.975, 808.243 816 C 817.986 828.943, 822.363 832, 831.154 832 C 837.751 832, 841.639 830.203, 847.308 824.534 C 856.283 815.559, 857.381 809.888, 851.994 800.322 C 844.543 787.092, 832.364 774.054, 812.875 758.444 C 801.912 749.664, 797 744.843, 797 742.865 C 797 742.389, 797.957 741.043, 799.127 739.873 C 800.931 738.069, 802.030 737.833, 806.377 738.317 C 815.930 739.381, 843.768 751.791, 855 759.993 C 872.580 772.830, 875.919 774.030, 883.739 770.320 C 889.370 767.647, 897.634 758.953, 899.057 754.204 C 900.226 750.301, 900.109 749.663, 897.094 743.540 C 894.043 737.342, 885.470 728.304, 877.773 723.170 C 876.396 722.251, 873.296 720.176, 870.884 718.557 C 859.479 710.902, 848.103 705.572, 833.004 700.808 C 825.227 698.354, 818.248 693.783, 816.912 690.268 C 814.791 684.690, 823.092 677.920, 839.888 671.530 C 847.555 668.614, 857.369 665.839, 877 661.037 C 906.495 653.823, 912.105 651.255, 916.250 643.071 C 918.354 638.917, 919 636.212, 919 631.555 C 919 623.755, 916.679 619.272, 910.994 616.089 C 907.073 613.893, 905.559 613.679, 894.093 613.690 C 880.846 613.704, 859.201 617.182, 848.500 621.017 C 842.164 623.287, 825.341 628, 823.572 628 C 822.836 628, 821.926 626.987, 821.550 625.750 C 821.174 624.513, 820.466 589.975, 819.977 549 C 819.488 508.025, 818.624 469.100, 818.059 462.500 C 815.658 434.498, 811.114 416.544, 803.616 405.436 C 799.246 398.963, 790.769 390.658, 785 387.199 C 780.765 384.659, 779.794 384.502, 768.500 384.541 C 760.957 384.566, 753.900 385.196, 749.500 386.236 C 745.650 387.146, 737.809 388.632, 732.076 389.536 C 726.343 390.441, 720.604 391.580, 719.321 392.068 C 718.039 392.555, 711.705 393.879, 705.245 395.010 C 698.785 396.141, 690.224 397.860, 686.221 398.830 L 678.942 400.594 669.721 396.017 C 646.195 384.340, 619.662 376.502, 590 372.467 C 572.751 370.120, 539.051 369.478, 518.500 371.105 M 533 416.704 C 524.635 417.362, 492.518 422.037, 490 422.963 C 488.625 423.469, 483.900 424.826, 479.500 425.980 C 464.136 430.010, 443.838 439.714, 426.500 451.319 C 400.411 468.781, 375.383 494.065, 358.466 520.052 C 343.440 543.133, 330.596 574.849, 327.101 597.500 C 322.729 625.832, 322.201 636.875, 324.442 653.076 C 325.235 658.809, 326.122 665.525, 326.412 668 C 326.927 672.381, 327.424 674.357, 331.954 690 C 336.739 706.529, 345.324 726.080, 353.796 739.743 C 358.107 746.695, 370.104 760.970, 377.196 767.584 C 388.637 778.256, 396.311 782.457, 416.500 789.100 C 429.637 793.422, 454.315 800.023, 458 800.201 C 458.825 800.240, 460.043 800.700, 460.706 801.222 C 461.370 801.745, 462.304 801.930, 462.783 801.634 C 463.261 801.338, 466.319 801.715, 469.576 802.471 C 475.572 803.863, 490.343 805.884, 499.500 806.565 C 505.965 807.045, 542.144 807.023, 548 806.535 C 556.053 805.864, 568.413 804.044, 572.283 802.960 C 574.363 802.377, 577.513 801.695, 579.283 801.443 C 589.983 799.924, 625.435 788.312, 629.500 784.994 C 630.050 784.545, 632.510 783.375, 634.967 782.394 C 640.612 780.139, 655.522 771.932, 664.221 766.293 C 690.302 749.384, 716.623 723.245, 733.995 697 C 744.164 681.637, 750.129 669.615, 758.555 647.500 C 758.975 646.400, 759.258 645.199, 759.186 644.832 C 759.114 644.465, 759.921 641.526, 760.979 638.302 C 762.979 632.210, 764.790 623.383, 765.453 616.500 C 766.281 607.899, 765.894 583.165, 764.835 577 C 763.799 570.969, 757.835 553.779, 755.989 551.500 C 755.543 550.950, 754.386 548.517, 753.418 546.094 C 750.588 539.008, 740.336 520.611, 734.261 511.715 C 715.401 484.098, 695.689 465.337, 666.475 447.200 C 660.601 443.553, 642.331 434.878, 633 431.306 C 604.822 420.518, 562.693 414.366, 533 416.704 M 628.504 570.194 C 614.495 577.577, 608.799 585.669, 608.306 598.888 C 608.060 605.478, 608.356 606.889, 611.046 611.935 C 616.501 622.170, 626.835 626.662, 642.745 625.712 C 655.270 624.965, 659.583 622.549, 663.340 614.176 C 665.351 609.696, 666 606.642, 666 601.662 C 666 593.648, 662.919 584.648, 659.381 582.330 C 657.138 580.861, 656.587 580.859, 652.893 582.310 C 648.669 583.969, 646.699 583.619, 642.312 580.429 C 640.199 578.893, 640.051 578.980, 638.041 582.919 C 636.896 585.164, 635.518 587.056, 634.980 587.125 C 630.927 587.642, 630.588 587.417, 630.253 583.980 C 630.018 581.568, 630.819 578.659, 632.796 574.738 C 636.586 567.224, 635.773 566.363, 628.504 570.194 M 450.053 573.178 C 435.312 580.557, 427.770 600.415, 434.358 614.500 C 440.370 627.353, 457.476 635.664, 470.606 632.111 C 476.268 630.579, 483.066 625.130, 487.039 618.939 C 489.977 614.361, 490.424 612.756, 490.810 605.400 C 491.225 597.483, 491.068 596.681, 487.750 589.777 C 483.651 581.248, 474.270 570.599, 471.372 571.184 C 469.713 571.519, 469.537 572.382, 469.827 578.751 L 470.153 585.939 463.774 585.343 C 458.554 584.856, 457.085 585.058, 455.688 586.454 C 454.750 587.393, 454.237 588.575, 454.550 589.081 C 454.862 589.586, 454.668 590, 454.118 590 C 450.628 590, 453.237 584.742, 460.260 577.624 C 461.821 576.042, 462.960 574.017, 462.790 573.124 C 462.297 570.518, 455.307 570.548, 450.053 573.178 M 544.229 636.669 C 542.200 637.485, 540 642.590, 540 646.479 C 540 653.427, 534.897 661.038, 520.590 675.428 C 506.151 689.951, 504.399 692.908, 507.464 697.585 C 512.832 705.778, 528.199 702.374, 541.433 690.062 C 545.017 686.728, 548.709 684, 549.637 684 C 550.565 684, 553.389 685.270, 555.912 686.822 C 566.830 693.539, 572.859 697, 573.651 697.006 C 574.118 697.010, 575.655 697.615, 577.067 698.352 C 582.361 701.114, 585.104 701.251, 587.630 698.877 C 589.385 697.229, 590 695.574, 590 692.502 C 590 687.298, 586.364 682.033, 576.178 672.485 C 568.316 665.116, 562.972 657.788, 561.032 651.719 C 557.340 640.162, 550.585 634.112, 544.229 636.669" stroke="none" fill="#040404" fill-rule="evenodd"/></svg>