<svg xmlns="http://www.w3.org/2000/svg" width="1080" height="1080" viewBox="0 0 1080 1080" version="1.1"><path d="M 766.750 390.732 C 769.087 390.943, 772.913 390.943, 775.250 390.732 C 777.587 390.522, 775.675 390.349, 771 390.349 C 766.325 390.349, 764.413 390.522, 766.750 390.732 M 764.583 620.083 C 764.208 622.916, 764.101 625.435, 764.347 625.681 C 764.593 625.927, 765.112 623.820, 765.500 621 C 765.888 618.180, 765.994 615.661, 765.736 615.403 C 765.478 615.144, 764.959 617.251, 764.583 620.083 M 559 682.002 C 559 683.983, 564.399 685.094, 575.938 685.488 L 587.500 685.882 575.581 684.945 C 567.978 684.348, 562.819 683.456, 561.331 682.481 C 560.011 681.617, 559 681.408, 559 682.002 M 533.750 713.748 C 542.688 713.914, 557.313 713.914, 566.250 713.748 C 575.188 713.582, 567.875 713.447, 550 713.447 C 532.125 713.447, 524.813 713.582, 533.750 713.748 M 459.500 801.559 C 462.800 802.303, 466.175 802.879, 467 802.838 C 469.346 802.720, 458.805 800.191, 456 800.198 C 454.625 800.202, 456.200 800.814, 459.500 801.559 M 500 807.151 C 510.628 807.964, 531.262 807.952, 540.500 807.126 C 544.350 806.782, 534.900 806.500, 519.500 806.500 C 502.810 806.500, 494.933 806.763, 500 807.151" stroke="none" fill="#080404" fill-rule="evenodd"/><path d="M 547.935 372.396 C 547.624 372.708, 542.559 373.196, 536.680 373.480 C 522.820 374.148, 518.492 374.679, 507 377.123 C 501.775 378.234, 496.066 379.300, 494.313 379.491 C 492.561 379.682, 487.161 381.158, 482.313 382.771 C 477.466 384.384, 470.800 386.504, 467.500 387.481 C 464.200 388.458, 461.072 389.649, 460.550 390.129 C 460.027 390.608, 458.917 391, 458.083 391 C 457.249 391, 451.601 392.971, 445.533 395.381 C 431.528 400.941, 430.605 401.302, 430 401.449 C 429.725 401.516, 428.600 402.058, 427.500 402.654 C 421.834 405.722, 418.677 405.939, 408.500 403.962 C 403 402.893, 397.494 401.852, 396.264 401.648 C 390.403 400.678, 375.333 397.701, 374 397.250 C 373.175 396.971, 371.600 396.598, 370.500 396.421 C 359.995 394.732, 355.091 393.840, 352.064 393.068 C 350.104 392.568, 345.125 391.871, 341 391.519 C 336.875 391.168, 332.257 390.400, 330.738 389.814 C 328.772 389.055, 326.752 389.061, 323.738 389.835 C 321.407 390.433, 318.043 391.200, 316.262 391.538 C 309.230 392.875, 300.385 404.695, 294.964 420 C 293.698 423.575, 292.272 427.015, 291.796 427.645 C 291.320 428.274, 291.017 429.174, 291.124 429.645 C 291.230 430.115, 291.054 431.175, 290.732 432 C 290.232 433.281, 288.850 440.735, 286.497 454.839 C 285.908 458.370, 285.027 468.513, 284.442 478.500 C 284.249 481.800, 283.827 514.200, 283.504 550.500 C 282.948 612.977, 282.160 633.240, 280.213 635.187 C 279.745 635.655, 277.368 635.364, 274.931 634.540 C 266.109 631.557, 250.454 626.816, 248.500 626.536 C 245.167 626.057, 240.616 624.894, 238.500 623.981 C 236.172 622.975, 227.835 621.065, 223.500 620.544 C 221.850 620.345, 217.435 619.467, 213.688 618.592 C 198.786 615.110, 190.255 617.768, 185.455 627.390 C 183.753 630.803, 183.547 637.912, 185.055 641.221 C 187.434 646.443, 198.412 651.071, 218.925 655.498 C 268.451 666.188, 281.276 671.738, 285.119 684.147 C 286.573 688.842, 286.236 696.825, 284.478 699.335 C 283.665 700.496, 283 701.065, 283 700.600 C 283 700.135, 282.438 700.208, 281.750 700.761 C 281.063 701.314, 278.220 702.246, 275.434 702.833 C 269.935 703.991, 257.887 707.836, 251.500 710.472 C 246.388 712.581, 225.660 723.100, 225 723.920 C 224.725 724.261, 223.359 725.040, 221.965 725.651 C 217.705 727.517, 204.255 740.841, 202.065 745.367 C 198.466 752.801, 199.786 759.278, 205.802 763.706 C 213.622 769.461, 221.803 767.302, 242 754.155 C 255.658 745.265, 281.759 733.244, 291.243 731.477 C 297.337 730.342, 299.668 731.491, 302.980 737.266 C 305.856 742.282, 306.795 747.376, 305.235 749.500 C 304.831 750.050, 302.925 751.233, 301 752.129 C 293.471 755.634, 268.070 779.027, 255.503 794.029 C 248.781 802.053, 246.375 807.857, 247.433 813.497 C 248.297 818.102, 254.242 824.545, 259.467 826.541 C 268.088 829.833, 274.837 826.295, 284.543 813.400 C 293.657 801.291, 301.157 794.348, 317.166 783.203 L 325.833 777.170 330.166 781.933 C 365.435 820.693, 382.616 835.899, 410.885 853.370 C 467.987 888.661, 540.174 900.063, 607 884.347 C 636.683 877.366, 669.655 863.031, 695.053 846.065 C 714.213 833.266, 723.404 825.582, 746 803.472 C 766.493 783.420, 768.241 782, 772.447 782 C 781.602 782, 803.416 799.663, 817.802 818.724 C 823.935 826.851, 827.261 828.503, 834.474 827.005 C 839.353 825.992, 844.251 823.301, 846.246 820.534 C 848.083 817.990, 848.762 812.895, 847.812 808.801 C 847.262 806.436, 846.725 804.050, 846.617 803.500 C 846.166 801.188, 840.169 792.070, 835.380 786.414 C 828.979 778.854, 821.611 771.852, 811.389 763.617 C 800.472 754.822, 793.134 747.380, 792.367 744.328 C 791.548 741.063, 794.994 733.705, 798.382 731.485 C 800.438 730.138, 801.534 730.063, 805.167 731.021 C 818.833 734.626, 842.168 746.063, 858.957 757.383 C 870.421 765.113, 874.510 766.690, 880.283 765.607 C 884.017 764.906, 892.283 757.917, 894.384 753.682 C 895.660 751.112, 895.565 750.474, 893.307 746.434 C 889.842 740.235, 875.136 726, 872.196 726 C 871.630 726, 871.017 725.645, 870.833 725.211 C 870.495 724.409, 860.391 718, 859.465 718 C 859.187 718, 857.169 716.869, 854.980 715.487 C 852.791 714.106, 851 713.213, 851 713.504 C 851 713.795, 848.692 712.864, 845.871 711.435 C 843.050 710.005, 839.787 708.658, 838.621 708.441 C 837.454 708.224, 834.925 707.409, 833 706.631 C 829.794 705.334, 821.542 702.686, 819.750 702.379 C 819.337 702.308, 818.888 702.160, 818.750 702.051 C 818.612 701.941, 817.375 701.656, 816 701.418 C 812.275 700.771, 810 697.415, 810 692.567 C 810 685.894, 812.662 679.495, 816.729 676.394 C 824.158 670.727, 847.730 662.600, 881.790 653.963 C 897.592 649.956, 908.175 645.571, 912.083 641.412 C 913.652 639.742, 914.463 637.422, 914.758 633.758 C 915.128 629.164, 914.813 627.995, 912.261 624.500 C 908.300 619.075, 901.385 616.533, 893.276 617.522 C 890.099 617.909, 886.600 618.325, 885.500 618.446 C 884.400 618.568, 882.563 618.973, 881.419 619.347 C 880.274 619.722, 877.574 620.226, 875.419 620.469 C 870.317 621.043, 862.036 622.880, 859.500 624 C 857.543 624.865, 852.482 626.042, 848.500 626.560 C 847.400 626.703, 842.900 627.939, 838.500 629.308 C 834.100 630.677, 829.375 632.022, 828 632.297 C 826.625 632.572, 824.055 633.385, 822.288 634.104 C 820.522 634.822, 818.747 635.080, 818.344 634.677 C 817.021 633.355, 816.824 628.100, 815.992 572 C 815.183 517.518, 814.170 475.905, 813.437 467 C 812.376 454.129, 811.905 449.314, 811.526 447.500 C 810.050 440.418, 807.881 430.161, 807.467 428.296 C 806.426 423.607, 798.747 407.237, 795.132 402 C 789.574 393.948, 785.003 391.734, 772.523 391.050 C 767.010 390.747, 760.925 390.824, 759 391.219 C 757.075 391.615, 750.775 392.675, 745 393.576 C 739.225 394.478, 733.600 395.394, 732.500 395.613 C 731.400 395.832, 724.650 397.096, 717.500 398.422 C 710.350 399.748, 702.499 401.292, 700.054 401.854 C 697.608 402.416, 695.226 402.640, 694.760 402.352 C 694.294 402.064, 693.349 402.296, 692.660 402.867 C 691.971 403.439, 690.529 403.869, 689.454 403.824 C 688.379 403.779, 685.622 404.194, 683.327 404.747 C 681.031 405.301, 678.781 405.445, 678.327 405.069 C 677.872 404.692, 672.550 402.421, 666.500 400.022 C 660.450 397.624, 655.050 395.346, 654.500 394.961 C 653.950 394.576, 651.700 393.694, 649.500 393.001 C 647.300 392.309, 644.375 391.177, 643 390.486 C 641.625 389.794, 637.125 388.230, 633 387.009 C 628.875 385.789, 623.700 384.156, 621.500 383.381 C 617.979 382.142, 603.031 378.494, 597.500 377.525 C 583.441 375.063, 577.907 374.414, 564 373.598 C 559.875 373.356, 554.700 372.858, 552.500 372.493 C 550.300 372.127, 548.246 372.083, 547.935 372.396 M 525 417.480 C 481.640 422.207, 458.111 430.370, 426.070 451.803 C 402.601 467.501, 377.675 491.659, 363.443 512.500 C 353.596 526.918, 339.021 553.277, 338.994 556.715 C 338.990 557.147, 338.361 558.701, 337.595 560.170 C 335.976 563.272, 330.864 578.563, 330.463 581.500 C 330.313 582.600, 329.511 585.525, 328.681 588 C 326.563 594.310, 324.752 603.790, 325.448 604.917 C 325.770 605.436, 325.582 606.140, 325.032 606.480 C 324.481 606.821, 324.091 608.089, 324.164 609.300 C 324.237 610.510, 323.939 613.975, 323.502 617 C 322.530 623.716, 322.533 646.469, 323.506 654 C 323.896 657.025, 324.357 660.625, 324.529 662 C 324.701 663.375, 325.060 666.218, 325.328 668.318 C 325.595 670.418, 326.262 673.343, 326.811 674.818 C 327.360 676.293, 328.342 679.750, 328.994 682.500 C 330.909 690.582, 336.338 706.438, 337.463 707.235 C 338.033 707.639, 338.107 707.976, 337.628 707.985 C 337.148 707.993, 337.183 708.563, 337.705 709.250 C 338.228 709.938, 339.479 712.750, 340.486 715.500 C 341.493 718.250, 342.583 720.725, 342.908 721 C 343.234 721.275, 344.549 723.750, 345.832 726.500 C 348.833 732.935, 356.202 744.857, 361.902 752.500 C 366.815 759.088, 379.996 772.970, 381.356 772.988 C 381.827 772.995, 383.852 774.268, 385.856 775.817 C 389.345 778.515, 398.681 782.664, 400.250 782.215 C 400.663 782.097, 401 782.525, 401 783.167 C 401 783.808, 401.296 784.037, 401.658 783.675 C 402.020 783.313, 402.807 783.425, 403.408 783.923 C 404.787 785.068, 417.829 790.115, 420.500 790.538 C 421.600 790.712, 425.329 791.985, 428.786 793.367 C 433.958 795.434, 441.536 797.489, 451.093 799.414 C 451.867 799.570, 453.175 799.964, 454 800.290 C 456.227 801.169, 466.601 803.123, 467.619 802.856 C 468.413 802.647, 474.248 803.536, 479.500 804.666 C 481.754 805.151, 485.874 805.617, 501 807.101 C 512.578 808.237, 545.591 807.559, 547.373 806.149 C 547.993 805.658, 549.400 805.401, 550.500 805.577 C 551.600 805.753, 554.300 805.494, 556.500 805.002 C 558.700 804.510, 563.425 803.800, 567 803.425 C 570.575 803.050, 573.725 802.463, 574 802.121 C 574.275 801.780, 576.300 801.395, 578.500 801.266 C 580.700 801.137, 583.400 800.613, 584.500 800.101 C 587.203 798.843, 595.088 796.838, 597.250 796.859 C 598.212 796.868, 599 796.427, 599 795.879 C 599 795.331, 599.391 795.124, 599.869 795.419 C 601.311 796.310, 627.030 786.577, 637.500 781.178 C 640.250 779.760, 642.837 778.690, 643.250 778.800 C 643.663 778.910, 644 778.475, 644 777.833 C 644 777.192, 644.274 776.941, 644.610 777.277 C 644.945 777.612, 646.961 776.787, 649.090 775.443 C 651.219 774.099, 653.419 773, 653.980 773 C 654.541 773, 655 772.550, 655 772 C 655 771.450, 655.563 770.991, 656.250 770.980 C 658.301 770.947, 675.363 759.030, 688.362 748.552 C 700.212 739.001, 726 711.453, 726 708.346 C 726 707.869, 727.237 706.143, 728.750 704.510 C 730.263 702.876, 731.407 701.253, 731.294 700.903 C 731.181 700.552, 732.194 699.227, 733.544 697.958 C 734.895 696.690, 736 695.055, 736 694.326 C 736 693.597, 736.398 693, 736.883 693 C 737.369 693, 738.068 692.212, 738.435 691.250 C 738.803 690.288, 740.646 686.800, 742.530 683.500 C 748.991 672.184, 755.109 658.985, 754.413 657.859 C 754.121 657.387, 754.359 657, 754.941 657 C 755.523 657, 755.902 656.663, 755.782 656.250 C 755.663 655.837, 756.180 653.925, 756.931 652 C 757.683 650.075, 758.381 648.275, 758.483 648 C 758.584 647.725, 759.180 646.266, 759.806 644.759 C 760.432 643.251, 760.683 641.338, 760.365 640.509 C 760.047 639.679, 760.284 639, 760.893 639 C 761.502 639, 762 638.274, 762 637.387 C 762 636.499, 762.935 631.907, 764.077 627.181 C 765.220 622.455, 765.955 617.545, 765.711 616.270 C 765.468 614.995, 765.643 613.720, 766.102 613.437 C 767.429 612.617, 766.588 578.414, 765.200 576.741 C 764.550 575.957, 764.250 575.084, 764.534 574.800 C 764.818 574.515, 764.155 572.194, 763.061 569.642 C 761.966 567.089, 761.335 565, 761.658 565 C 761.981 565, 761.685 564.325, 761 563.500 C 760.315 562.675, 760.087 562, 760.493 562 C 760.898 562, 760.571 560.987, 759.767 559.750 C 758.962 558.513, 757.720 555.700, 757.007 553.500 C 756.294 551.300, 755.414 549.275, 755.052 549 C 754.691 548.725, 753.440 546.250, 752.273 543.500 C 749.169 536.186, 738.980 518.242, 733.145 509.817 C 716.685 486.045, 697.156 467.058, 673.277 451.611 C 655.080 439.839, 616.576 423.907, 600.660 421.563 C 597.997 421.171, 594.847 420.633, 593.660 420.368 C 592.472 420.102, 590.150 419.706, 588.500 419.487 C 560.737 415.805, 544.946 415.306, 525 417.480 M 455 573.892 C 446.693 575.637, 434.360 585.448, 433.493 591 C 433.450 591.275, 432.797 593.300, 432.043 595.500 C 430.269 600.674, 430.161 604.206, 431.566 611.146 C 433.631 621.350, 438.731 627.493, 450 633.350 C 461.751 639.459, 471.759 637.916, 480.920 628.581 C 483.281 626.176, 485.184 623.945, 485.149 623.622 C 485.115 623.300, 485.804 621.341, 486.680 619.268 C 487.715 616.821, 488.302 612.316, 488.356 606.416 C 488.432 598.036, 488.177 596.801, 485.066 590.483 C 481.850 583.951, 477.035 578, 474.966 578 C 474.434 578, 474 577.640, 474 577.201 C 474 574.954, 460.847 572.663, 455 573.892 M 629 575.305 C 623.576 577.841, 616.810 584.507, 613.871 590.208 C 607.140 603.268, 609.037 617.909, 618.665 627.201 C 628.925 637.102, 643.445 638.256, 654.747 630.068 C 658.175 627.585, 664.144 619.534, 664.621 616.750 C 664.692 616.337, 664.841 615.888, 664.952 615.750 C 666.134 614.283, 666.637 601.840, 665.583 600.135 C 665.198 599.511, 665.160 598.550, 665.500 598 C 665.840 597.450, 665.641 597, 665.059 597 C 664.477 597, 664 596.319, 664 595.486 C 664 593.269, 662.048 590.147, 657.169 584.562 C 652.804 579.564, 651.162 578.317, 645.282 575.527 C 641.526 573.745, 632.596 573.623, 629 575.305 M 541 629.952 C 540.175 630.411, 538.281 631.266, 536.791 631.853 C 535.300 632.440, 532.825 634.818, 531.291 637.137 C 527.408 643.003, 527.375 651.507, 531.210 658 C 534.418 663.434, 538.424 673.909, 537.606 674.727 C 537.282 675.051, 537.402 675.807, 537.872 676.408 C 538.342 677.009, 539.011 679.367, 539.359 681.648 L 539.991 685.796 518.745 685.919 C 495.459 686.053, 488.871 686.579, 484.813 688.629 C 481.442 690.332, 481.059 690.972, 479.567 697.391 C 478.097 703.713, 479.003 706.299, 483.425 708.397 C 492.087 712.508, 498.813 712.962, 550.500 712.926 C 600.538 712.892, 612.388 712.286, 616.562 709.551 C 619.240 707.797, 620.261 702.844, 619.036 697.555 C 618.534 695.386, 618.347 693.248, 618.620 692.805 C 618.894 692.362, 618.694 692, 618.176 692 C 617.657 692, 617.014 691.162, 616.746 690.138 C 616.022 687.367, 606.811 686.104, 584 685.647 C 572.807 685.424, 563.300 684.776, 561.683 684.128 C 558.779 682.964, 558.692 682.097, 560.923 676.500 C 561.361 675.400, 562.516 671.800, 563.488 668.500 C 564.461 665.200, 566.099 659.911, 567.128 656.746 C 569.275 650.147, 569.582 641.777, 567.750 639.779 C 567.063 639.029, 566.011 637.535, 565.412 636.458 C 563.448 632.922, 554.226 628.993, 548.044 629.059 C 544.995 629.091, 541.825 629.493, 541 629.952" stroke="none" fill="#040404" fill-rule="evenodd"/></svg>