<svg xmlns="http://www.w3.org/2000/svg" width="1080" height="1080" viewBox="0 0 1080 1080" version="1.1"><path d="M 765.250 390.735 C 767.862 390.941, 772.138 390.941, 774.750 390.735 C 777.362 390.529, 775.225 390.360, 770 390.360 C 764.775 390.360, 762.638 390.529, 765.250 390.735 M 764.583 620.083 C 764.208 622.916, 764.101 625.435, 764.347 625.681 C 764.593 625.927, 765.112 623.820, 765.500 621 C 765.888 618.180, 765.994 615.661, 765.736 615.403 C 765.478 615.144, 764.959 617.251, 764.583 620.083 M 526 671.583 C 523.245 673.112, 517.077 673.305, 509.701 672.092 C 506.249 671.524, 505.207 671.607, 505.988 672.388 C 506.614 673.014, 511.069 673.480, 516.496 673.487 C 524.146 673.498, 526.249 673.171, 527.674 671.750 C 529.716 669.713, 529.423 669.684, 526 671.583 M 575.500 672.041 C 578.565 672.779, 594.672 673.297, 593.917 672.634 C 593.688 672.432, 588.775 672.054, 583 671.793 C 577.225 671.532, 573.850 671.644, 575.500 672.041 M 573.728 694.722 C 575.503 694.943, 578.653 694.946, 580.728 694.730 C 582.802 694.513, 581.350 694.333, 577.500 694.328 C 573.650 694.324, 571.952 694.501, 573.728 694.722 M 490.810 806.210 C 492.026 807.426, 529.846 808.175, 539 807.164 C 546.130 806.377, 544.760 806.298, 530.500 806.677 C 521.150 806.926, 508.229 806.757, 501.786 806.301 C 495.344 805.845, 490.404 805.804, 490.810 806.210" stroke="none" fill="#080404" fill-rule="evenodd"/><path d="M 547.935 372.396 C 547.624 372.708, 542.559 373.196, 536.680 373.480 C 522.820 374.148, 518.492 374.679, 507 377.123 C 501.775 378.234, 496.066 379.300, 494.313 379.491 C 492.561 379.682, 487.161 381.158, 482.313 382.771 C 477.466 384.384, 470.800 386.504, 467.500 387.481 C 464.200 388.458, 461.072 389.649, 460.550 390.129 C 460.027 390.608, 458.917 391, 458.083 391 C 457.249 391, 451.601 392.971, 445.533 395.381 C 431.528 400.941, 430.605 401.302, 430 401.449 C 429.725 401.516, 428.600 402.058, 427.500 402.654 C 421.834 405.722, 418.677 405.939, 408.500 403.962 C 403 402.893, 397.494 401.852, 396.264 401.648 C 390.403 400.678, 375.333 397.701, 374 397.250 C 373.175 396.971, 371.600 396.598, 370.500 396.421 C 359.995 394.732, 355.091 393.840, 352.064 393.068 C 350.104 392.568, 345.125 391.867, 341 391.511 C 336.875 391.154, 332.037 390.409, 330.250 389.854 C 328.086 389.182, 325.914 389.177, 323.750 389.838 C 321.962 390.385, 318.864 391.105, 316.864 391.440 C 310.882 392.440, 305.112 398.442, 299.856 409.131 C 296.192 416.582, 292.600 425.503, 291.455 430 C 291.385 430.275, 291.062 431.175, 290.737 432 C 290.233 433.282, 288.858 440.688, 286.497 454.839 C 285.908 458.370, 285.027 468.513, 284.442 478.500 C 284.249 481.800, 283.827 514.200, 283.504 550.500 C 282.948 612.977, 282.160 633.240, 280.213 635.187 C 279.745 635.655, 277.368 635.364, 274.931 634.540 C 266.109 631.557, 250.454 626.816, 248.500 626.536 C 245.167 626.057, 240.616 624.894, 238.500 623.981 C 236.172 622.975, 227.835 621.065, 223.500 620.544 C 221.850 620.345, 217.435 619.467, 213.688 618.592 C 205.142 616.595, 199.269 616.572, 194.615 618.516 C 191.175 619.954, 185.500 625.243, 185.500 627.012 C 185.500 627.464, 185.162 628.171, 184.750 628.583 C 183.631 629.703, 183.845 638.565, 185.055 641.221 C 187.432 646.438, 200.765 651.947, 220.804 655.992 C 247.002 661.280, 263.731 666.143, 273.343 671.265 C 282.456 676.120, 286.263 682.438, 286.056 692.363 C 285.958 697.079, 284.001 701.668, 282.660 700.327 C 282.297 699.964, 282 700.141, 282 700.720 C 282 701.299, 279.955 702.080, 277.456 702.454 C 265.950 704.180, 239.275 714.795, 228.500 721.936 C 226.300 723.394, 223.359 725.076, 221.965 725.674 C 217.740 727.486, 204.266 740.819, 202.065 745.367 C 198.466 752.801, 199.786 759.278, 205.802 763.706 C 213.622 769.461, 221.803 767.302, 242 754.155 C 255.658 745.265, 281.759 733.244, 291.243 731.477 C 297.337 730.342, 299.668 731.491, 302.980 737.266 C 305.856 742.282, 306.795 747.376, 305.235 749.500 C 304.831 750.050, 302.925 751.233, 301 752.129 C 293.471 755.634, 268.070 779.027, 255.503 794.029 C 248.781 802.053, 246.375 807.857, 247.433 813.497 C 248.297 818.102, 254.242 824.545, 259.467 826.541 C 268.088 829.833, 274.837 826.295, 284.543 813.400 C 293.657 801.291, 301.157 794.348, 317.166 783.203 L 325.833 777.170 330.166 781.933 C 359.960 814.676, 375.116 828.775, 398.500 845.495 C 407.870 852.195, 426.560 862.655, 441.500 869.561 C 453.527 875.120, 477.986 882.866, 493.500 886.029 C 516.840 890.787, 548.988 892.407, 572.565 890.014 C 586.305 888.620, 586.358 888.612, 599 885.997 C 615.281 882.630, 615.760 882.504, 628.500 878.234 C 657.356 868.563, 680.320 856.778, 707.044 837.926 C 715.528 831.941, 729.853 819.271, 746 803.472 C 755.625 794.054, 764.798 785.370, 766.385 784.174 C 771.843 780.061, 779.004 782.056, 790.499 790.890 C 798.222 796.825, 811.870 810.764, 817.744 818.716 C 823.711 826.793, 827.190 828.517, 834.474 827.005 C 845.219 824.775, 849.998 818.206, 847.790 808.703 C 847.252 806.392, 846.728 804.017, 846.624 803.426 C 846.259 801.355, 839.599 791.444, 834.714 785.703 C 828.922 778.896, 821.841 772.100, 813.510 765.352 C 799.578 754.066, 793.212 747.692, 792.319 744.136 C 791.549 741.069, 795.117 733.625, 798.382 731.485 C 800.438 730.138, 801.534 730.063, 805.167 731.021 C 818.833 734.626, 842.168 746.063, 858.957 757.383 C 870.421 765.113, 874.510 766.690, 880.283 765.607 C 884.017 764.906, 892.283 757.917, 894.384 753.682 C 895.660 751.112, 895.565 750.474, 893.307 746.434 C 889.842 740.235, 875.136 726, 872.196 726 C 871.630 726, 871.017 725.645, 870.833 725.211 C 870.495 724.409, 860.391 718, 859.465 718 C 859.187 718, 857.169 716.869, 854.980 715.487 C 852.791 714.106, 851 713.213, 851 713.504 C 851 713.795, 848.692 712.864, 845.871 711.435 C 843.050 710.005, 839.787 708.658, 838.621 708.441 C 837.454 708.224, 834.925 707.409, 833 706.631 C 829.794 705.334, 821.542 702.686, 819.750 702.379 C 819.337 702.308, 818.888 702.160, 818.750 702.051 C 818.612 701.941, 817.375 701.656, 816 701.418 C 812.275 700.771, 810 697.415, 810 692.567 C 810 685.894, 812.662 679.495, 816.729 676.394 C 824.158 670.727, 847.730 662.600, 881.790 653.963 C 897.701 649.928, 908.177 645.569, 912.166 641.324 C 915.645 637.620, 915.502 628.658, 911.887 623.919 C 908.266 619.171, 900.845 616.557, 893.763 617.536 C 890.868 617.937, 887.375 618.359, 886 618.475 C 884.625 618.590, 882.563 618.987, 881.419 619.356 C 880.274 619.726, 877.574 620.226, 875.419 620.469 C 870.317 621.043, 862.036 622.880, 859.500 624 C 857.543 624.865, 852.482 626.042, 848.500 626.560 C 847.400 626.703, 842.900 627.939, 838.500 629.308 C 834.100 630.677, 829.375 632.022, 828 632.297 C 826.625 632.572, 824.055 633.385, 822.288 634.104 C 820.522 634.822, 818.747 635.080, 818.344 634.677 C 817.021 633.355, 816.824 628.100, 815.992 572 C 815.183 517.518, 814.170 475.905, 813.437 467 C 812.389 454.279, 811.907 449.316, 811.542 447.500 C 805.644 418.113, 797.232 399.837, 786.918 394 C 782.742 391.637, 781.705 391.505, 768 391.587 C 754.976 391.665, 750.256 392.202, 732.500 395.626 C 731.400 395.838, 724.650 397.096, 717.500 398.422 C 710.350 399.748, 702.499 401.292, 700.054 401.854 C 697.608 402.416, 695.226 402.640, 694.760 402.352 C 694.294 402.064, 693.349 402.296, 692.660 402.867 C 691.971 403.439, 690.529 403.869, 689.454 403.824 C 688.379 403.779, 685.622 404.194, 683.327 404.747 C 681.031 405.301, 678.781 405.434, 678.327 405.045 C 677.872 404.656, 672.550 402.407, 666.500 400.049 C 660.450 397.690, 655.050 395.423, 654.500 395.010 C 653.950 394.598, 651.700 393.694, 649.500 393.001 C 647.300 392.309, 644.375 391.177, 643 390.486 C 641.625 389.794, 637.125 388.242, 633 387.035 C 628.875 385.829, 624.388 384.392, 623.029 383.842 C 620.783 382.933, 602.323 378.364, 597.500 377.524 C 583.229 375.036, 577.921 374.414, 564 373.598 C 559.875 373.356, 554.700 372.858, 552.500 372.493 C 550.300 372.127, 548.246 372.083, 547.935 372.396 M 528 417.084 C 503.467 419.428, 478.065 425.048, 463.179 431.427 C 435.551 443.266, 414.318 457.818, 391.032 480.873 C 372.228 499.490, 366.240 507.013, 353.454 528.082 C 348.500 536.246, 339.007 555.043, 338.994 556.715 C 338.990 557.147, 338.371 558.682, 337.617 560.127 C 335.939 563.344, 330.761 578.741, 330.431 581.498 C 330.299 582.599, 329.511 585.525, 328.681 588 C 326.636 594.093, 324.692 604.025, 325.404 604.737 C 325.722 605.056, 325.576 605.807, 325.079 606.408 C 324.582 607.009, 323.876 612.225, 323.509 618 C 323.142 623.775, 322.643 629.225, 322.398 630.110 C 322.009 631.522, 323.564 655.226, 324.490 662 C 324.678 663.375, 325.081 666.434, 325.386 668.797 C 325.691 671.161, 326.228 673.560, 326.580 674.129 C 326.931 674.698, 328.262 679.289, 329.536 684.331 C 332.324 695.358, 336.096 706.225, 337.488 707.235 C 338.044 707.639, 338.107 707.976, 337.628 707.985 C 337.148 707.993, 337.183 708.563, 337.705 709.250 C 338.228 709.938, 339.479 712.750, 340.486 715.500 C 341.493 718.250, 342.583 720.725, 342.908 721 C 343.234 721.275, 344.549 723.750, 345.832 726.500 C 348.944 733.171, 356.300 744.965, 362.350 752.982 C 367.678 760.041, 379.968 772.981, 381.356 772.993 C 381.827 772.997, 383.852 774.268, 385.856 775.817 C 389.345 778.515, 398.681 782.664, 400.250 782.215 C 400.663 782.097, 401 782.450, 401 783 C 401 783.550, 401.337 783.931, 401.750 783.846 C 402.163 783.761, 404.173 784.436, 406.218 785.346 C 408.263 786.256, 410.331 787, 410.814 787 C 411.297 787, 413.186 787.745, 415.012 788.656 C 416.837 789.566, 419.269 790.451, 420.415 790.621 C 421.562 790.791, 426.142 792.260, 430.593 793.884 C 435.044 795.508, 441.569 797.362, 445.093 798.002 C 448.617 798.643, 452.400 799.556, 453.500 800.031 C 455.596 800.938, 465.422 802.847, 468 802.850 C 468.825 802.851, 470.850 803.123, 472.500 803.456 C 480.893 805.147, 485.858 805.841, 487.586 805.564 C 488.639 805.395, 489.978 805.634, 490.563 806.095 C 492.325 807.486, 528.655 808.274, 539 807.145 C 549.334 806.018, 550.286 805.893, 566.408 803.547 C 578.871 801.733, 581.700 801.179, 584.500 800.008 C 586.672 799.099, 593.806 797.230, 598.333 796.383 C 604.109 795.303, 628.578 785.812, 637.498 781.191 C 640.249 779.766, 642.837 778.690, 643.250 778.800 C 643.663 778.910, 644 778.475, 644 777.833 C 644 777.192, 644.274 776.941, 644.610 777.277 C 644.945 777.612, 646.961 776.787, 649.090 775.443 C 651.219 774.099, 653.419 773, 653.980 773 C 654.541 773, 655 772.550, 655 772 C 655 771.450, 655.467 771, 656.038 771 C 658.180 771, 678.925 756.389, 690.715 746.576 C 696.846 741.474, 720 717.823, 720 716.663 C 720 716.366, 721.350 714.645, 723 712.839 C 724.650 711.032, 726 709.087, 726 708.517 C 726 707.946, 727.237 706.143, 728.750 704.510 C 730.263 702.876, 731.407 701.253, 731.294 700.903 C 731.181 700.552, 732.194 699.227, 733.544 697.958 C 734.895 696.690, 736 695.055, 736 694.326 C 736 693.597, 736.398 693, 736.883 693 C 737.369 693, 738.068 692.212, 738.435 691.250 C 738.803 690.288, 740.646 686.800, 742.530 683.500 C 748.991 672.184, 755.109 658.985, 754.413 657.859 C 754.121 657.387, 754.284 657, 754.774 657 C 755.265 657, 755.703 656.438, 755.748 655.750 C 755.793 655.063, 756.979 651.800, 758.384 648.500 C 759.788 645.200, 760.696 641.712, 760.401 640.750 C 760.107 639.788, 760.346 639, 760.933 639 C 761.520 639, 762 638.274, 762 637.387 C 762 636.499, 762.935 631.907, 764.077 627.181 C 765.220 622.455, 765.955 617.545, 765.711 616.270 C 765.468 614.995, 765.643 613.720, 766.102 613.437 C 766.560 613.154, 766.789 605.177, 766.611 595.711 C 766.335 581.107, 765.949 577.515, 764.065 572 C 761.363 564.092, 761.076 563.181, 760.979 562.240 C 760.937 561.833, 760.318 560.600, 759.603 559.500 C 758.888 558.400, 757.720 555.700, 757.007 553.500 C 756.294 551.300, 755.414 549.275, 755.052 549 C 754.691 548.725, 753.440 546.250, 752.273 543.500 C 749.169 536.186, 738.980 518.242, 733.145 509.817 C 716.685 486.045, 697.156 467.058, 673.277 451.611 C 655.080 439.839, 616.576 423.907, 600.660 421.563 C 597.997 421.171, 594.847 420.633, 593.660 420.368 C 592.472 420.102, 590.150 419.706, 588.500 419.487 C 562.479 416.036, 545.880 415.377, 528 417.084 M 454.836 573.944 C 452.821 574.336, 450.008 575.420, 448.586 576.352 C 447.164 577.284, 446 577.793, 446 577.484 C 446 576.884, 444.962 577.711, 439.640 582.547 C 436.769 585.157, 433.759 589.296, 433.493 591 C 433.450 591.275, 432.798 593.300, 432.044 595.500 C 428.528 605.757, 432.295 620.016, 440.425 627.228 C 446.025 632.196, 454.145 635.857, 461.158 636.575 C 466.983 637.172, 468.292 636.959, 472.848 634.670 C 477.173 632.498, 484.279 626.091, 484.590 624.083 C 484.640 623.762, 485.489 621.700, 486.477 619.500 C 487.751 616.662, 488.297 612.860, 488.356 606.416 C 488.432 598.036, 488.177 596.801, 485.066 590.483 C 481.904 584.059, 477.042 578, 475.049 578 C 474.564 578, 474.017 577.571, 473.833 577.047 C 473.476 576.026, 462.597 572.924, 460.040 573.115 C 459.193 573.178, 456.851 573.551, 454.836 573.944 M 629 575.305 C 623.279 577.981, 616.774 584.578, 613.313 591.216 C 610.871 595.899, 610.558 597.580, 610.556 606 C 610.554 616.868, 612.072 620.838, 618.665 627.201 C 628.925 637.102, 643.445 638.256, 654.747 630.068 C 658.175 627.585, 664.144 619.534, 664.621 616.750 C 664.692 616.337, 664.841 615.888, 664.952 615.750 C 666.171 614.237, 666.814 601.003, 665.702 600.316 C 665.241 600.031, 665.105 599.168, 665.400 598.399 C 665.696 597.629, 665.501 597, 664.969 597 C 664.436 597, 664 596.319, 664 595.486 C 664 593.269, 662.048 590.147, 657.169 584.562 C 652.804 579.564, 651.162 578.317, 645.282 575.527 C 641.526 573.745, 632.596 573.623, 629 575.305 M 537.406 631.718 C 534.604 633.084, 531.567 635.463, 530.656 637.005 C 528.740 640.248, 528.529 647.084, 530.044 656.845 C 531.315 665.035, 529.855 670.760, 526 672.707 C 522.242 674.606, 505.238 674.042, 506.463 672.060 C 507.196 670.874, 495.537 672.177, 494.765 673.367 C 492.260 677.231, 495.289 687.833, 499.729 690.742 C 509.087 696.873, 527.101 696.327, 540.299 689.511 C 548.113 685.476, 551.045 685.184, 555.057 688.041 C 562.522 693.356, 580.784 695.894, 590.101 692.912 C 599.024 690.055, 604 685.356, 604 679.787 C 604 676.878, 601.184 674, 598.338 674 C 597.235 674, 596.036 673.703, 595.673 673.340 C 595.310 672.977, 591.853 672.782, 587.991 672.907 C 579.321 673.189, 570.948 671.534, 567.561 668.869 C 564.508 666.468, 564.167 662.013, 566.689 657.500 C 568.783 653.756, 569.215 638.909, 567.250 638.251 C 566.563 638.021, 566 637.280, 566 636.605 C 566 635.081, 560.612 631, 558.600 631 C 557.785 631, 556.840 630.550, 556.500 630 C 556.160 629.450, 552.871 629.053, 549.191 629.117 C 544.276 629.204, 541.148 629.894, 537.406 631.718" stroke="none" fill="#040404" fill-rule="evenodd"/></svg>