<svg xmlns="http://www.w3.org/2000/svg" width="1080" height="1080" viewBox="0 0 1080 1080" version="1.1"><path d="M 889.728 613.722 C 891.503 613.943, 894.653 613.946, 896.728 613.730 C 898.802 613.513, 897.350 613.333, 893.500 613.328 C 889.650 613.324, 887.952 613.501, 889.728 613.722" stroke="none" fill="#1c1c1c" fill-rule="evenodd"/><path d="M 518.500 371.105 C 499.194 372.634, 497.378 372.874, 489.532 374.928 C 485.182 376.068, 480.803 377, 479.801 377 C 477.649 377, 456.149 383.939, 450.453 386.471 C 448.279 387.438, 443.350 389.695, 439.500 391.486 C 435.650 393.278, 430.700 395.350, 428.500 396.090 C 420.746 398.698, 400.304 397.039, 373.500 391.627 C 337.859 384.430, 324.744 383.322, 314.254 386.621 C 304.716 389.621, 301.181 394.043, 292.766 413.500 C 290.863 417.900, 288.079 424.330, 286.579 427.789 C 281.458 439.601, 279.474 466.135, 278.036 542 C 277.479 571.425, 276.731 602.392, 276.374 610.814 L 275.726 626.129 271.113 625.780 C 268.576 625.588, 266.050 625.159, 265.500 624.827 C 264.950 624.494, 261.870 623.681, 258.655 623.021 C 255.441 622.360, 251.391 621.232, 249.655 620.514 C 247.023 619.426, 235.027 616.738, 221.500 614.207 C 219.850 613.898, 212.593 613.628, 205.374 613.608 C 192.836 613.572, 192.069 613.689, 188.265 616.206 C 181.200 620.881, 177.129 630.527, 178.935 638.316 C 181.103 647.672, 188.006 653.140, 201.439 656.142 C 222.571 660.864, 230.935 662.865, 236 664.411 C 272.097 675.427, 280 680.277, 280 691.414 C 280 694.698, 279.614 695.199, 275.750 696.932 C 273.412 697.980, 267.900 699.713, 263.500 700.784 C 240.768 706.313, 216.676 720.415, 203.685 735.798 C 196.080 744.802, 194.125 750.177, 196.013 756.885 C 197.237 761.234, 199.914 764.384, 206.247 768.928 C 215.216 775.364, 224.687 774.144, 235.165 765.203 C 242.196 759.203, 245.420 757.204, 258.801 750.546 C 282.490 738.759, 295.005 734.891, 297.956 738.447 C 300.805 741.880, 294.759 750.072, 281.562 760.659 C 265.883 773.238, 250.962 789.080, 245.032 799.444 C 238.111 811.541, 241.702 822.247, 255 829.160 C 258.646 831.056, 261.053 831.500, 267.684 831.500 C 275.301 831.500, 276.073 831.304, 278.815 828.677 C 280.436 827.125, 283.013 823.525, 284.544 820.677 C 289.025 812.338, 308.167 794.255, 318.652 788.454 L 323.805 785.604 329.669 791.052 C 332.895 794.048, 340.476 801.625, 346.517 807.888 C 364.811 826.856, 389.436 846.306, 417.500 863.951 C 421.934 866.739, 432.154 871.415, 443.809 875.987 C 449.478 878.211, 455.103 880.645, 456.309 881.395 C 461.126 884.396, 478.378 889.028, 494 891.517 C 539.732 898.802, 593.241 896.493, 626 885.821 C 636.985 882.243, 640.171 880.748, 645 876.907 C 647.115 875.225, 651.152 873.516, 655.199 872.588 C 680.029 866.896, 723.758 835.530, 756.609 799.847 C 764.634 791.131, 771.553 784, 771.984 784 C 773.584 784, 790.724 797.449, 797.302 803.865 C 801.043 807.514, 805.967 812.975, 808.245 816 C 817.777 828.658, 822.528 832, 830.992 832 C 837.752 832, 841.605 830.237, 847.308 824.534 C 856.283 815.559, 857.381 809.888, 851.994 800.322 C 844.543 787.092, 832.364 774.054, 812.875 758.444 C 801.912 749.664, 797 744.843, 797 742.865 C 797 742.389, 797.957 741.043, 799.127 739.873 C 800.931 738.069, 802.030 737.833, 806.377 738.317 C 815.930 739.381, 843.768 751.791, 855 759.993 C 872.580 772.830, 875.919 774.030, 883.739 770.320 C 889.370 767.647, 897.634 758.953, 899.057 754.204 C 900.226 750.303, 900.108 749.663, 897.108 743.568 C 889.578 728.272, 862.356 710.081, 833.214 700.871 C 825.564 698.453, 818.198 693.652, 816.900 690.238 C 814.792 684.692, 823.132 677.905, 839.888 671.530 C 847.555 668.614, 857.369 665.839, 877 661.037 C 906.495 653.823, 912.105 651.255, 916.250 643.071 C 918.354 638.917, 919 636.212, 919 631.555 C 919 623.745, 916.681 619.272, 910.974 616.078 C 906.979 613.842, 905.640 613.662, 893.573 613.746 C 879.393 613.845, 861.338 616.835, 847 621.460 C 835.786 625.077, 825.377 628, 823.711 628 C 822.898 628, 821.926 626.987, 821.550 625.750 C 821.174 624.513, 820.466 589.975, 819.977 549 C 819.488 508.025, 818.624 469.100, 818.059 462.500 C 815.658 434.498, 811.114 416.544, 803.616 405.436 C 799.246 398.963, 790.769 390.658, 785 387.199 C 780.765 384.659, 779.794 384.502, 768.500 384.541 C 760.957 384.566, 753.900 385.196, 749.500 386.236 C 745.650 387.146, 737.809 388.632, 732.076 389.536 C 726.343 390.441, 720.604 391.580, 719.321 392.068 C 718.039 392.555, 711.705 393.879, 705.245 395.010 C 698.785 396.141, 690.224 397.860, 686.221 398.830 L 678.942 400.594 669.721 396.017 C 646.216 384.351, 618.069 376.026, 590 372.438 C 571.664 370.094, 538.968 369.485, 518.500 371.105 M 532.500 416.667 C 507.862 418.890, 479.203 424.941, 464 431.129 C 446.815 438.124, 425.409 450.910, 410 463.383 C 391.763 478.146, 371.036 500.656, 360.365 517.289 C 357.820 521.255, 354.921 525.687, 353.922 527.139 C 352.923 528.590, 350.030 533.990, 347.494 539.139 C 344.958 544.287, 342.291 549.625, 341.569 551 C 336.320 560.984, 326.392 595.103, 325.856 605 C 325.811 605.825, 325.150 611.421, 324.387 617.436 C 322.623 631.346, 322.636 640.021, 324.442 653.076 C 325.235 658.809, 326.129 665.525, 326.428 668 C 326.728 670.475, 327.617 674.750, 328.405 677.500 C 329.193 680.250, 330.802 685.875, 331.981 690 C 336.644 706.312, 345.287 726.019, 353.796 739.743 C 358.107 746.695, 370.104 760.970, 377.196 767.584 C 385.590 775.414, 391.800 779.573, 400.500 783.191 C 413.312 788.521, 444.803 797.963, 455 799.533 C 457.475 799.914, 460.043 800.664, 460.706 801.199 C 461.370 801.734, 462.304 801.930, 462.783 801.634 C 463.261 801.338, 466.319 801.715, 469.576 802.471 C 475.178 803.772, 488.440 805.587, 499.500 806.568 C 505.562 807.105, 541.718 807.091, 548 806.548 C 556.073 805.851, 568.373 803.990, 574.500 802.538 C 577.800 801.757, 581.850 800.889, 583.500 800.609 C 592.896 799.019, 626.144 787.733, 629.500 784.994 C 630.050 784.545, 632.510 783.375, 634.967 782.394 C 638.984 780.789, 645.425 777.397, 656.221 771.202 C 677.758 758.843, 705.553 734.557, 721.813 713.891 C 735.234 696.834, 747.443 675.982, 754.245 658.500 C 756.171 653.550, 758.100 648.600, 758.532 647.500 C 758.964 646.400, 759.258 645.199, 759.186 644.832 C 759.114 644.465, 759.921 641.526, 760.979 638.302 C 762.979 632.210, 764.790 623.383, 765.453 616.500 C 766.281 607.899, 765.894 583.165, 764.835 577 C 763.799 570.969, 757.835 553.779, 755.989 551.500 C 755.543 550.950, 754.379 548.500, 753.403 546.056 C 750.650 539.165, 741.335 522.433, 734.771 512.590 C 717.310 486.404, 694.003 463.914, 668 448.159 C 661.982 444.513, 640.333 434.092, 633.260 431.437 C 610.033 422.717, 580.324 417.217, 553 416.578 C 544.475 416.379, 535.250 416.419, 532.500 416.667 M 628.500 570.191 C 612.778 578.455, 607.974 587.363, 608.031 608.155 C 608.056 617.520, 608.449 620.452, 610.281 624.957 C 613.283 632.339, 618.538 636.096, 626.477 636.538 C 631.985 636.844, 637.498 637.533, 643.258 638.635 C 645.068 638.981, 647.060 640.680, 649.056 643.581 C 652.665 648.827, 655.457 649.290, 659.116 645.250 C 669.205 634.111, 671.059 603.963, 662.695 587.065 C 659.584 580.779, 658.095 580.141, 652.280 582.597 C 647.553 584.594, 647.438 584.596, 645.486 582.727 C 641.259 578.679, 640.289 578.714, 637.880 582.999 C 636.644 585.200, 635.265 587.056, 634.816 587.125 C 630.717 587.753, 630.501 587.529, 630.355 582.500 C 630.276 579.750, 630.524 577.275, 630.908 577 C 631.292 576.725, 632.588 574.882, 633.790 572.903 C 637.046 567.540, 635.273 566.631, 628.500 570.191 M 450.028 573.190 C 442.592 576.913, 437.515 583.091, 434.551 592.029 C 433.124 596.331, 431.747 601.572, 431.492 603.676 C 428.479 628.491, 428.223 640.446, 430.631 643.883 C 432.960 647.209, 438.257 649.233, 441.452 648.018 C 442.853 647.485, 444 646.565, 444 645.974 C 444 643.892, 450.624 642.198, 462.587 641.223 C 477.282 640.025, 482.846 637.952, 485.312 632.755 C 488.512 626.012, 490.166 616.918, 490.334 605.149 C 490.493 593.995, 490.376 593.276, 487.579 588.229 C 483.538 580.934, 473.808 570.693, 471.385 571.182 C 469.708 571.520, 469.537 572.364, 469.832 578.818 L 470.163 586.073 466.832 585.670 C 464.999 585.449, 462.684 584.923, 461.686 584.502 C 459.248 583.474, 454.881 585.526, 455.588 587.368 C 456.286 589.188, 454.823 590.127, 453.023 589.014 C 451.520 588.085, 453.491 584.959, 459.906 578.097 C 461.656 576.226, 462.952 573.976, 462.785 573.097 C 462.296 570.513, 455.275 570.564, 450.028 573.190 M 543.028 637.776 C 541.427 639.072, 540.636 641.166, 540.099 645.526 C 538.913 655.165, 535.318 660.700, 520.947 675.016 C 504.912 690.988, 503.553 693.707, 508.923 699.077 C 511.423 701.576, 512.618 702, 517.173 701.999 C 524.617 701.998, 533.797 697.472, 541.652 689.930 C 545.048 686.668, 548.586 684, 549.513 684 C 551.085 684, 557.444 687.519, 567.921 694.186 C 570.353 695.734, 572.828 697.003, 573.421 697.006 C 574.015 697.010, 575.655 697.615, 577.067 698.352 C 582.361 701.114, 585.104 701.251, 587.630 698.877 C 589.374 697.240, 589.999 695.574, 589.996 692.576 C 589.990 687.291, 586.508 682.033, 577.619 673.888 C 569.335 666.297, 563.357 658.404, 561.283 652.319 C 556.648 638.714, 549.198 632.780, 543.028 637.776" stroke="none" fill="#040404" fill-rule="evenodd"/></svg>