<svg xmlns="http://www.w3.org/2000/svg" width="1080" height="1080" viewBox="0 0 1080 1080" version="1.1"><path d="M 673.365 321.500 C 673.368 327, 673.536 329.122, 673.738 326.216 C 673.941 323.311, 673.939 318.811, 673.734 316.216 C 673.528 313.622, 673.363 316, 673.365 321.500 M 764.374 596.500 C 764.376 602.550, 764.541 604.896, 764.740 601.713 C 764.939 598.531, 764.937 593.581, 764.736 590.713 C 764.535 587.846, 764.372 590.450, 764.374 596.500 M 511.005 672.300 C 511 673.082, 523.031 672.157, 523.983 671.301 C 524.249 671.062, 521.439 671.009, 517.739 671.183 C 514.038 671.358, 511.008 671.860, 511.005 672.300 M 603.320 683 C 603.320 686.575, 603.502 688.038, 603.723 686.250 C 603.945 684.462, 603.945 681.538, 603.723 679.750 C 603.502 677.962, 603.320 679.425, 603.320 683 M 573 795.244 C 570.525 795.810, 568.950 796.425, 569.500 796.610 C 570.050 796.795, 572.975 796.333, 576 795.584 C 582.365 794.007, 579.719 793.707, 573 795.244 M 496 801.199 C 507.503 802.435, 543.838 802.017, 545.667 800.627 C 545.758 800.557, 533.158 800.500, 517.667 800.500 C 501.449 800.500, 492.257 800.796, 496 801.199 M 536.302 882.746 C 541.693 882.926, 550.243 882.925, 555.302 882.744 C 560.361 882.563, 555.950 882.416, 545.500 882.417 C 535.050 882.418, 530.911 882.566, 536.302 882.746" stroke="none" fill="#080404" fill-rule="evenodd"/><path d="M 545.500 237.660 C 539.057 241.054, 526.539 255.796, 522.284 265 C 518.866 272.395, 517.531 292.079, 520.148 296.500 C 520.474 297.050, 521.296 299.975, 521.975 303 C 523.990 311.977, 525.513 314.734, 528.863 315.470 C 532.065 316.173, 542.978 323.353, 544.300 325.625 C 545.674 327.988, 549.528 327.141, 554.429 323.398 C 562.335 317.362, 570.989 307.092, 571.006 303.726 C 571.010 303.052, 571.623 301.330, 572.369 299.901 C 573.115 298.471, 574.471 293.521, 575.383 288.901 C 576.897 281.224, 576.906 279.983, 575.481 274.500 C 573.682 267.575, 567.106 254.185, 562.893 248.864 C 561.302 246.856, 560 244.767, 560 244.222 C 560 242.596, 552.134 235.997, 550.247 236.040 C 549.286 236.062, 547.150 236.791, 545.500 237.660 M 653.500 291.796 C 638.541 300.052, 629.461 308.746, 625.927 318.195 C 623.939 323.512, 623.852 324.435, 625.102 326.929 C 627.179 331.071, 640.671 342.759, 647.221 346.090 C 654.161 349.619, 656.952 349.701, 663.674 346.572 C 672.023 342.684, 673.279 339.113, 673.009 320.032 C 672.816 306.412, 672.613 303.801, 671.623 302.200 C 671.216 301.540, 671.160 300.550, 671.500 300 C 671.840 299.450, 671.641 299, 671.059 299 C 670.477 299, 670 298.185, 670 297.189 C 670 293.861, 663.807 288.955, 659.685 289.018 C 659.033 289.028, 656.250 290.278, 653.500 291.796 M 424 306.013 C 417.241 306.936, 402.674 313.597, 398.174 317.822 C 395.556 320.279, 394.998 321.430, 395.555 323.222 C 397.763 330.332, 408.463 339.115, 424.500 346.980 C 427.990 348.692, 431.206 349.438, 435.146 349.450 C 440.455 349.466, 441.430 349.051, 451.521 342.483 C 465.061 333.671, 470 329.138, 470 325.522 C 470 322.914, 467.205 317, 465.973 317 C 465.645 317, 464.429 316.117, 463.271 315.038 C 460.738 312.678, 450.055 307.585, 444.500 306.089 C 440.072 304.896, 432.389 304.868, 424 306.013 M 524 370.931 C 519.534 371.713, 506.796 373.758, 502 374.462 C 500.625 374.664, 497.100 375.363, 494.167 376.015 C 491.234 376.668, 488.309 377.281, 487.667 377.379 C 487.025 377.476, 486.047 377.840, 485.492 378.187 C 484.938 378.534, 482.688 379.136, 480.492 379.524 C 475.889 380.337, 449.435 389.185, 443.500 391.896 C 441.300 392.901, 435.499 395.595, 430.609 397.883 C 421.931 401.943, 421.523 402.030, 413.510 401.529 C 405.643 401.036, 390.144 398.577, 387 397.321 C 386.175 396.992, 384.825 396.609, 384 396.471 C 383.175 396.332, 378.900 395.450, 374.500 394.511 C 370.100 393.571, 364.700 392.439, 362.500 391.996 C 360.300 391.552, 357.375 390.885, 356 390.514 C 351.438 389.282, 331.594 387.067, 325.500 387.110 C 318.055 387.162, 314.373 388.505, 309.225 393.046 C 302.929 398.599, 293.508 415.431, 291.523 424.671 C 291.307 425.677, 290.190 430.100, 289.040 434.500 C 287.891 438.900, 286.717 443.625, 286.432 445 C 284.396 454.797, 283.267 497.645, 282.890 579.358 L 282.647 632.216 278.679 631.684 C 276.497 631.391, 274.389 630.629, 273.994 629.990 C 273.599 629.352, 272.877 628.814, 272.388 628.795 C 271.900 628.776, 270.458 628.364, 269.185 627.880 C 267.912 627.396, 266.299 627, 265.602 627 C 264.904 627, 264.022 626.688, 263.641 626.308 C 263.260 625.927, 261.948 625.466, 260.724 625.285 C 257.944 624.872, 249.797 621.927, 248.628 620.913 C 248.149 620.497, 247.136 620.394, 246.378 620.685 C 245.620 620.976, 245 620.689, 245 620.048 C 245 619.407, 244.586 619.138, 244.079 619.451 C 243.573 619.764, 238.562 618.858, 232.944 617.438 C 227.325 616.017, 221.777 614.838, 220.614 614.817 C 219.451 614.796, 214.731 614.128, 210.125 613.334 C 202.460 612.011, 201.342 612.036, 196.920 613.626 C 190.098 616.079, 186.334 619.647, 184.921 625 C 183.887 628.916, 183.977 630.014, 185.616 633.459 C 189.288 641.176, 195.798 643.986, 219.238 647.967 C 232.159 650.162, 245.243 653.848, 261 659.733 C 266.225 661.685, 273.183 664.245, 276.462 665.422 C 284.495 668.306, 285.746 670.593, 286.451 683.681 L 286.999 693.841 283.749 694.614 C 279.714 695.574, 279.815 695.545, 278 696.282 C 277.175 696.617, 273.125 697.899, 269 699.132 C 264.875 700.364, 261.275 701.440, 261 701.523 C 260.725 701.605, 259.825 701.941, 259 702.269 C 258.175 702.597, 254.575 703.876, 251 705.111 C 233.660 711.101, 213.179 724.240, 205.493 734.305 C 199.435 742.240, 200.113 748.268, 207.850 755.250 C 211.645 758.674, 212.505 758.998, 217.753 758.981 C 223.895 758.961, 223.104 759.349, 239.103 748.500 C 247.985 742.477, 251.752 740.339, 263.500 734.652 C 276.856 728.188, 279.159 727.208, 286.132 725.022 C 297.350 721.506, 299.309 722.243, 303.585 731.593 C 307.806 740.819, 307.638 741.099, 290 754.262 C 278.761 762.650, 257.753 783.040, 253.500 789.687 C 245.559 802.100, 246.279 811.289, 255.647 817.099 C 258.617 818.941, 260.914 819.490, 265.669 819.494 C 273.006 819.501, 274.808 818.176, 281.645 807.749 C 289.613 795.596, 303.634 783.045, 318 775.208 C 323.554 772.179, 325.931 771.361, 327.159 772.058 C 328.072 772.575, 331.862 776.711, 335.580 781.249 C 352.552 801.959, 383.186 829.761, 400 839.713 C 404.675 842.480, 411.436 846.544, 415.023 848.745 C 422.703 853.456, 434.956 859.718, 439.961 861.491 C 441.907 862.180, 445.525 863.682, 448 864.828 C 452.648 866.980, 464.203 870.914, 479 875.381 C 487.505 877.949, 494.372 879.198, 507.500 880.563 C 511.350 880.964, 515.625 881.416, 517 881.569 C 520.771 881.987, 569.924 881.877, 574.417 881.439 C 589.708 879.951, 603.746 877.633, 611 875.398 C 632.181 868.872, 649.401 862.450, 659.289 857.391 C 661.922 856.043, 666.422 854.018, 669.289 852.891 C 672.155 851.764, 675.191 850.220, 676.036 849.459 C 678.277 847.443, 694.990 837.047, 698.500 835.485 C 700.150 834.752, 702.903 832.880, 704.617 831.326 C 706.332 829.772, 712.182 824.826, 717.617 820.335 C 727.937 811.809, 741.356 798.419, 751.527 786.500 C 764.862 770.872, 765.988 770.214, 772.482 774.250 C 794.242 787.773, 802.462 794.878, 808.917 805.743 C 814.438 815.037, 818.703 819.016, 823.887 819.712 C 833.729 821.032, 845 812.280, 845 803.318 C 845 801.188, 844.341 798.504, 843.535 797.354 C 842.730 796.204, 842.355 794.979, 842.702 794.631 C 843.049 794.284, 842.808 794, 842.167 794 C 841.525 794, 841 793.520, 841 792.933 C 841 790.993, 835.634 784.626, 825.887 775 C 815.972 765.209, 810.292 760, 809.528 760 C 809.288 760, 808.014 758.987, 806.698 757.750 C 803.369 754.621, 798.135 750.673, 795.886 749.597 C 794.849 749.101, 794 748.313, 794 747.847 C 794 747.381, 793.395 747, 792.655 747 C 791.915 747, 790.505 746.111, 789.521 745.024 C 788.538 743.937, 787.390 743.259, 786.971 743.518 C 785.512 744.420, 784.988 740.760, 786.059 737.143 C 786.653 735.139, 788.344 731.250, 789.819 728.500 C 793.084 722.411, 794.884 722.003, 805.189 725.018 C 823.516 730.382, 843.194 740.432, 855.685 750.809 C 865.111 758.640, 866.453 759.307, 871.766 758.796 C 877.130 758.281, 884.056 754.371, 886.668 750.384 C 890.315 744.818, 888.153 737.282, 880.714 729.620 C 875.804 724.564, 856.606 711.441, 852.674 710.454 C 851.193 710.083, 849.734 709.378, 849.432 708.889 C 849.129 708.400, 848.009 708, 846.941 708 C 845.873 708, 845 707.475, 845 706.833 C 845 706.192, 844.741 705.926, 844.423 706.243 C 844.106 706.560, 841.969 706.021, 839.673 705.045 C 833.289 702.329, 831.663 701.731, 829.578 701.330 C 828.522 701.127, 827.172 700.589, 826.578 700.135 C 825.985 699.682, 823.250 698.721, 820.500 698 C 817.750 697.279, 814.957 696.271, 814.294 695.759 C 813.630 695.247, 812.649 695.099, 812.113 695.430 C 811.577 695.762, 810.868 695.595, 810.537 695.060 C 810.206 694.525, 809.210 694.366, 808.323 694.706 C 804.747 696.079, 802.483 686.701, 804.966 680.797 C 805.497 679.534, 806.397 676.652, 806.966 674.393 C 807.973 670.393, 808.254 670.174, 817.725 666.004 C 827.989 661.485, 842.809 656.118, 852 653.592 C 871.271 648.297, 876.808 647, 880.146 647 C 885.147 647, 899.042 642.541, 902.488 639.831 C 906.096 636.992, 908 632.241, 908 626.074 C 908 621.649, 907.562 620.624, 904.135 617.022 C 901.521 614.273, 899.742 613.162, 898.635 613.586 C 897.736 613.932, 896.212 613.886, 895.250 613.485 C 892.110 612.177, 884.727 612.810, 872 615.479 C 865.125 616.921, 858.600 618.275, 857.500 618.490 C 856.400 618.704, 851.450 620.069, 846.500 621.523 C 841.550 622.977, 836.817 624.263, 835.982 624.381 C 835.148 624.498, 833.991 624.887, 833.412 625.245 C 832.833 625.603, 831.254 626.096, 829.903 626.341 C 828.552 626.586, 824.547 628.007, 821.003 629.499 C 812.506 633.075, 811.523 632.448, 811.427 623.389 C 811.387 619.600, 811.045 585.675, 810.666 548 C 810.021 483.834, 809.415 454.534, 808.658 451 C 808.481 450.175, 807.781 447.540, 807.102 445.145 C 806.422 442.750, 806.102 440.177, 806.390 439.427 C 806.677 438.677, 806.511 437.816, 806.020 437.512 C 805.529 437.209, 805.136 436.182, 805.147 435.230 C 805.185 431.993, 802.258 422.520, 799.164 415.858 C 797.467 412.206, 795.864 408.035, 795.602 406.590 C 794.713 401.688, 780.181 388.240, 774.128 386.719 C 772.038 386.194, 753.675 387.946, 744 389.593 C 742.075 389.920, 739.600 390.313, 738.500 390.466 C 737.400 390.618, 735.825 390.968, 735 391.242 C 734.175 391.517, 728.550 392.718, 722.500 393.912 C 693.440 399.643, 680.530 402, 678.190 402 C 674.950 402, 663.740 398.083, 662.765 396.610 C 662.361 395.999, 662.024 395.811, 662.015 396.192 C 662.007 396.573, 657.693 394.885, 652.429 392.442 C 647.166 389.999, 642.496 388, 642.052 388 C 641.608 388, 639.502 387.245, 637.372 386.323 C 635.242 385.401, 633.017 384.552, 632.426 384.437 C 631.383 384.235, 618.018 380.237, 615 379.225 C 614.175 378.949, 612.825 378.578, 612 378.401 C 611.175 378.225, 607.350 377.394, 603.500 376.555 C 599.650 375.716, 595.150 374.805, 593.500 374.530 C 591.850 374.256, 587.800 373.559, 584.500 372.982 C 581.200 372.406, 577.150 371.713, 575.500 371.444 C 569.986 370.545, 528.561 370.132, 524 370.931 M 524.823 412.467 C 524.646 412.621, 521.737 413.007, 518.359 413.325 C 503.774 414.699, 477.916 420.962, 469.860 425.072 C 467.781 426.132, 465.567 427, 464.939 427 C 464.312 427, 458.324 429.619, 451.632 432.820 C 415.999 449.865, 388.679 472.720, 361.691 508.059 C 358.149 512.696, 356 516.026, 356 516.876 C 356 517.403, 355.637 517.983, 355.193 518.167 C 354.109 518.614, 344.892 535.007, 341.512 542.500 C 336.403 553.823, 336 554.805, 336 555.941 C 336 556.567, 335.100 558.844, 334 561.001 C 332.900 563.157, 331.842 565.727, 331.650 566.711 C 331.458 567.695, 331.025 569.175, 330.689 570 C 330.064 571.534, 324.440 599.679, 323.496 606 C 322.386 613.428, 322.273 624.063, 323.157 638 C 323.663 645.975, 324.041 654.188, 323.998 656.250 C 323.953 658.374, 324.399 660, 325.027 660 C 325.636 660, 325.892 660.788, 325.594 661.750 C 325.297 662.712, 326.182 667.775, 327.560 673 C 328.939 678.225, 330.261 683.785, 330.499 685.357 C 330.737 686.928, 331.452 688.840, 332.088 689.607 C 332.724 690.373, 332.988 691, 332.673 691 C 332.359 691, 332.808 692.688, 333.670 694.750 C 334.532 696.813, 335.709 699.625, 336.285 701 C 336.861 702.375, 337.370 703.762, 337.416 704.081 C 337.620 705.497, 342.563 715.561, 343.325 716.112 C 343.790 716.448, 344.103 717.027, 344.020 717.398 C 343.768 718.525, 355.321 738.858, 358.282 742.500 C 358.729 743.050, 360.895 745.936, 363.094 748.913 C 367.101 754.335, 378.343 766, 379.563 766 C 379.919 766, 381.582 767.153, 383.257 768.563 C 386.594 771.371, 401.866 779, 404.150 779 C 404.935 779, 407.360 779.945, 409.539 781.100 C 411.717 782.255, 414.400 783.340, 415.500 783.510 C 419.861 784.184, 422.781 785.020, 429.327 787.469 C 433.082 788.874, 436.569 789.766, 437.077 789.452 C 437.585 789.139, 438 789.286, 438 789.781 C 438 790.275, 441.262 791.274, 445.250 792.001 C 449.238 792.727, 452.989 793.694, 453.587 794.149 C 455.040 795.253, 486.062 800.080, 487.197 799.378 C 487.687 799.075, 488.730 799.361, 489.515 800.012 C 490.338 800.696, 493.031 801.049, 495.877 800.848 C 498.591 800.657, 500.603 800.837, 500.347 801.250 C 499.900 801.971, 509.622 802.262, 526.500 802.032 C 536.208 801.900, 540.165 801.456, 555 798.832 C 561.325 797.713, 567.400 796.783, 568.500 796.764 C 571.389 796.715, 579.165 795.113, 581.500 794.085 C 582.600 793.601, 587.550 792.190, 592.500 790.948 C 597.450 789.707, 602.175 788.334, 603 787.899 C 603.825 787.463, 606.966 786.337, 609.980 785.397 C 612.994 784.456, 617.719 782.687, 620.480 781.466 C 623.241 780.245, 625.834 779.184, 626.242 779.107 C 627.283 778.911, 648.463 767.989, 654.500 764.535 C 657.250 762.961, 661.750 760.045, 664.500 758.055 C 669.569 754.387, 674 751.317, 676.848 749.500 C 677.710 748.950, 678.927 748.050, 679.552 747.500 C 680.178 746.950, 682.610 744.925, 684.959 743 C 690.192 738.710, 714 715.328, 714 714.479 C 714 714.142, 716.233 711.309, 718.963 708.183 C 725.975 700.154, 735.702 685.809, 736.291 682.626 C 736.406 682.007, 736.756 681.275, 737.069 681 C 738.070 680.120, 742.471 670.529, 742.231 669.750 C 742.104 669.337, 742.525 669, 743.167 669 C 743.808 669, 744.059 668.726, 743.723 668.390 C 743.388 668.055, 744.219 666.030, 745.569 663.890 C 746.920 661.751, 747.682 659.993, 747.263 659.985 C 746.843 659.976, 747.028 659.634, 747.673 659.223 C 748.946 658.414, 750.219 655.279, 756.095 638.500 C 758.213 632.450, 759.759 626.967, 759.529 626.315 C 759.300 625.663, 759.529 624.988, 760.039 624.815 C 760.549 624.642, 761.139 623.150, 761.351 621.500 C 761.563 619.850, 761.970 617.825, 762.254 617 C 763.853 612.362, 765 603.841, 765 596.599 C 765 586.387, 761.637 567.181, 758.981 562.225 C 757.891 560.193, 757 558.215, 757 557.830 C 757 557.445, 756.481 555.863, 755.846 554.315 C 755.212 552.767, 754.566 550.865, 754.411 550.088 C 753.959 547.823, 743.682 527.533, 742.801 527.167 C 742.361 526.983, 742 526.456, 742 525.996 C 742 524.531, 732.082 507.920, 726.520 500.067 C 713.443 481.606, 687.651 457.575, 668.228 445.754 C 659.003 440.141, 637.987 429.666, 629.500 426.451 C 618.578 422.315, 597.788 416.746, 585 414.533 C 573.289 412.506, 568.301 412.191, 547.823 412.189 C 535.351 412.188, 525.001 412.313, 524.823 412.467 M 750.500 429.136 C 748.850 429.666, 746.600 430.255, 745.500 430.445 C 740.137 431.370, 732.017 433.297, 727.709 434.665 L 722.918 436.188 727.061 440.844 C 729.340 443.405, 733.982 448.425, 737.377 452 C 745.643 460.703, 754 470.474, 754 471.434 C 754 471.862, 755.355 473.923, 757.011 476.013 C 758.667 478.104, 761.817 482.887, 764.011 486.642 C 766.205 490.396, 768.034 493.250, 768.077 492.984 C 768.119 492.718, 768.360 491.600, 768.613 490.500 C 769.587 486.268, 769.008 472.684, 767.398 462 C 767.108 460.075, 766.877 457.150, 766.884 455.500 C 766.891 453.850, 766.643 451.825, 766.333 451 C 766.022 450.175, 765.615 447.925, 765.426 446 C 765.022 441.866, 763.221 434.615, 761.638 430.750 C 760.699 428.457, 759.929 428.014, 757.006 428.086 C 755.078 428.133, 752.150 428.606, 750.500 429.136 M 336.048 430.949 C 335.249 431.455, 334.227 431.640, 333.777 431.362 C 331.790 430.134, 327.713 447.969, 326.430 463.500 C 325.670 472.692, 325.212 476.488, 324.677 478 C 323.782 480.532, 322.351 495, 322.996 495 C 323.330 495, 326.943 490.003, 331.025 483.895 C 335.108 477.787, 339.135 471.977, 339.974 470.985 C 340.813 469.992, 343.075 467.242, 345 464.873 C 346.925 462.505, 353.337 455.647, 359.250 449.634 C 365.163 443.621, 370 438.401, 370 438.033 C 370 436.898, 356.967 433.130, 347.500 431.529 C 336.957 429.745, 337.877 429.792, 336.048 430.949 M 626.907 566.112 C 626.133 566.504, 623.402 567.561, 620.837 568.462 C 615.365 570.383, 611.716 573.757, 608.366 579.992 C 597.778 599.702, 597.460 600.550, 598.816 605.500 C 599.629 608.468, 605.888 613.080, 608.377 612.544 C 611.469 611.878, 614.052 610.139, 620 604.718 C 623.575 601.460, 628.144 597.954, 630.153 596.926 L 633.806 595.058 637.653 597.643 C 639.769 599.064, 643.300 601.681, 645.500 603.458 C 654.372 610.624, 658.671 612.509, 665.224 612.106 C 668.057 611.932, 670.286 606.392, 669.536 601.392 C 669.178 599.002, 668.460 596.785, 667.942 596.464 C 667.424 596.144, 667 595.057, 667 594.048 C 667 593.039, 666.296 591.944, 665.437 591.614 C 664.577 591.284, 664.128 590.602, 664.439 590.099 C 664.750 589.596, 662.882 587.230, 660.287 584.842 C 657.693 582.454, 653.867 578.865, 651.785 576.868 C 649.703 574.870, 648 573.469, 648 573.754 C 648 574.039, 646.830 573.102, 645.399 571.672 C 643.968 570.241, 641.943 568.799, 640.899 568.468 C 639.855 568.136, 639 567.446, 639 566.933 C 639 566.420, 638.663 566.053, 638.250 566.118 C 637.837 566.184, 637.275 566.139, 637 566.020 C 635.623 565.421, 628.136 565.490, 626.907 566.112 M 456.750 572.055 C 455.238 572.480, 453.993 572.528, 453.985 572.164 C 453.976 571.799, 453.639 571.950, 453.235 572.500 C 452.831 573.050, 450.975 574.350, 449.112 575.388 C 447.248 576.427, 444.971 578.002, 444.052 578.888 C 443.133 579.775, 439.804 582.697, 436.655 585.382 C 433.507 588.067, 431.156 590.490, 431.432 590.766 C 431.709 591.042, 431.049 592.393, 429.967 593.769 C 428.885 595.144, 428 596.884, 428 597.635 C 428 598.386, 427.475 599, 426.833 599 C 426.192 599, 425.963 599.296, 426.325 599.658 C 426.687 600.020, 426.481 600.920, 425.869 601.658 C 425.256 602.396, 425.090 603, 425.500 603 C 425.910 603, 425.825 603.563, 425.311 604.250 C 424.798 604.938, 424.461 606.063, 424.564 606.750 C 424.666 607.438, 424.806 608.884, 424.875 609.964 C 425.043 612.596, 431.711 617, 435.530 617 C 437.445 617, 440.453 615.668, 443.548 613.449 C 451.560 607.704, 460.076 603, 462.466 603 C 463.689 603, 465.488 603.882, 466.464 604.960 C 469.924 608.784, 480.917 615.179, 484.962 615.722 C 488.301 616.170, 489.724 615.771, 493.080 613.444 C 497.938 610.078, 500 607.354, 500 604.303 C 500 600.944, 487.434 586.566, 477.336 578.372 C 475.390 576.792, 473.281 575.033, 472.649 574.463 C 472.017 573.893, 469.479 573.288, 467.009 573.119 C 464.539 572.950, 461.839 572.468, 461.009 572.048 C 460.179 571.628, 458.262 571.631, 456.750 572.055 M 538 625.180 C 534.975 626.321, 531.649 627.986, 530.609 628.878 C 524.939 633.741, 523.861 645.651, 528.434 652.896 C 531.841 658.293, 532.005 662.909, 528.948 667.374 C 526.446 671.028, 525.539 671.397, 516.250 672.541 C 512.472 673.006, 511 672.851, 511 671.987 C 511 671.276, 510.319 671.047, 509.330 671.427 C 508.411 671.779, 507.399 671.655, 507.080 671.150 C 506.761 670.645, 503.906 668.832, 500.736 667.121 L 494.972 664.009 493.236 666.116 C 492.281 667.275, 491.050 668.746, 490.500 669.385 C 488.117 672.155, 487.553 677.849, 489.454 679.949 C 490.389 680.983, 491.015 682.656, 490.843 683.667 C 490.672 684.679, 491.537 687.133, 492.766 689.121 C 493.995 691.109, 495 693.470, 495 694.368 C 495 695.266, 495.450 696, 496 696 C 496.550 696, 497 696.691, 497 697.535 C 497 699.197, 499.818 704.044, 501.477 705.235 C 502.040 705.639, 502.168 705.976, 501.762 705.985 C 500.864 706.003, 506.196 716.018, 508.700 719.014 C 515.845 727.565, 521.278 731.734, 527.709 733.602 C 530.894 734.528, 534.400 735.851, 535.500 736.544 C 536.723 737.314, 541.515 737.864, 547.831 737.960 C 557.847 738.112, 558.410 738.001, 566.331 734.312 C 575.555 730.016, 579.177 727.098, 585.233 719.082 C 587.553 716.012, 590.362 712.535, 591.475 711.356 C 592.589 710.177, 595.021 706.240, 596.879 702.606 C 598.738 698.973, 600.620 696, 601.062 696 C 601.504 696, 602.167 695.049, 602.536 693.887 C 603.463 690.966, 603.509 675.521, 602.608 669.707 L 601.865 664.915 597.432 665.144 C 594.995 665.270, 593 665.815, 593 666.354 C 593 666.892, 592.694 667.027, 592.319 666.653 C 591.945 666.278, 590.383 667.175, 588.849 668.645 C 585.566 671.790, 580.043 672.129, 572.282 669.661 C 569.652 668.825, 566.141 667.871, 564.480 667.541 L 561.459 666.942 561.991 660.612 C 562.283 657.130, 563.035 653.655, 563.663 652.891 C 565.134 651.099, 567.355 643.364, 567.510 639.500 C 567.636 636.341, 565.199 631.395, 562.165 628.649 C 559.891 626.591, 549.531 622.983, 546.093 623.052 C 544.667 623.081, 541.025 624.038, 538 625.180 M 531.500 692.912 C 527.272 693.267, 523.521 694.193, 522.027 695.250 C 520.668 696.212, 518.839 697, 517.965 697 C 515.514 697, 510.826 702.384, 511.576 704.337 C 511.927 705.252, 512.642 706, 513.166 706 C 513.690 706, 513.840 706.450, 513.500 707 C 513.160 707.550, 513.385 708, 514 708 C 514.615 708, 514.875 708.393, 514.579 708.872 C 514.282 709.352, 515.385 711.152, 517.029 712.872 C 518.672 714.593, 519.710 716, 519.334 716 C 518.959 716, 519.690 717.105, 520.959 718.456 C 527.650 725.579, 536.944 729, 549.598 729 C 557.004 729, 563 727.176, 563 724.923 C 563 724.359, 564.688 723.207, 566.750 722.363 C 568.813 721.519, 573.056 718.169, 576.179 714.918 C 582.239 708.612, 587.288 702.086, 585.027 703.483 C 584.033 704.098, 583.825 703.899, 584.264 702.754 C 584.655 701.736, 583.334 699.555, 580.533 696.589 L 576.198 692 557.349 692.162 C 546.982 692.251, 535.350 692.588, 531.500 692.912" stroke="none" fill="#040404" fill-rule="evenodd"/></svg>